<?xml version="1.0" encoding="utf-8" standalone="no"?>
<!DOCTYPE svg PUBLIC "-//W3C//DTD SVG 1.1//EN"
  "http://www.w3.org/Graphics/SVG/1.1/DTD/svg11.dtd">
<!-- Created with matplotlib (http://matplotlib.org/) -->
<svg height="276.48pt" version="1.1" viewBox="0 0 414.72 276.48" width="414.72pt" xmlns="http://www.w3.org/2000/svg" xmlns:xlink="http://www.w3.org/1999/xlink">
 <defs>
  <style type="text/css">
*{stroke-linecap:butt;stroke-linejoin:round;}
  </style>
 </defs>
 <g id="figure_1">
  <g id="patch_1">
   <path d="M 0 276.48 
L 414.72 276.48 
L 414.72 0 
L 0 0 
z
" style="fill:#ffffff;"/>
  </g>
  <g id="axes_1">
   <g id="patch_2">
    <path d="M 20.014646 111.345354 
L 204.525354 111.345354 
L 204.525354 18.194646 
L 20.014646 18.194646 
z
" style="fill:#ffffff;"/>
   </g>
   <g id="matplotlib.axis_1">
    <g id="xtick_1">
     <g id="line2d_1">
      <path clip-path="url(#p58e8c6e0c2)" d="M 55.302714 111.345354 
L 55.302714 18.194646 
" style="fill:none;opacity:0.1;stroke:#000000;stroke-linecap:square;stroke-width:0.5;"/>
     </g>
     <g id="line2d_2">
      <defs>
       <path d="M 0 0 
L 0 -3.5 
" id="m79dc206951" style="stroke:#000000;stroke-width:0.8;"/>
      </defs>
      <g>
       <use style="stroke:#000000;stroke-width:0.8;" x="55.302714" xlink:href="#m79dc206951" y="111.345354"/>
      </g>
     </g>
     <g id="text_1">
      <!-- 0.2 -->
      <defs>
       <path d="M 31.78125 66.40625 
Q 24.171875 66.40625 20.328125 58.90625 
Q 16.5 51.421875 16.5 36.375 
Q 16.5 21.390625 20.328125 13.890625 
Q 24.171875 6.390625 31.78125 6.390625 
Q 39.453125 6.390625 43.28125 13.890625 
Q 47.125 21.390625 47.125 36.375 
Q 47.125 51.421875 43.28125 58.90625 
Q 39.453125 66.40625 31.78125 66.40625 
z
M 31.78125 74.21875 
Q 44.046875 74.21875 50.515625 64.515625 
Q 56.984375 54.828125 56.984375 36.375 
Q 56.984375 17.96875 50.515625 8.265625 
Q 44.046875 -1.421875 31.78125 -1.421875 
Q 19.53125 -1.421875 13.0625 8.265625 
Q 6.59375 17.96875 6.59375 36.375 
Q 6.59375 54.828125 13.0625 64.515625 
Q 19.53125 74.21875 31.78125 74.21875 
z
" id="DejaVuSans-30"/>
       <path d="M 10.6875 12.40625 
L 21 12.40625 
L 21 0 
L 10.6875 0 
z
" id="DejaVuSans-2e"/>
       <path d="M 19.1875 8.296875 
L 53.609375 8.296875 
L 53.609375 0 
L 7.328125 0 
L 7.328125 8.296875 
Q 12.9375 14.109375 22.625 23.890625 
Q 32.328125 33.6875 34.8125 36.53125 
Q 39.546875 41.84375 41.421875 45.53125 
Q 43.3125 49.21875 43.3125 52.78125 
Q 43.3125 58.59375 39.234375 62.25 
Q 35.15625 65.921875 28.609375 65.921875 
Q 23.96875 65.921875 18.8125 64.3125 
Q 13.671875 62.703125 7.8125 59.421875 
L 7.8125 69.390625 
Q 13.765625 71.78125 18.9375 73 
Q 24.125 74.21875 28.421875 74.21875 
Q 39.75 74.21875 46.484375 68.546875 
Q 53.21875 62.890625 53.21875 53.421875 
Q 53.21875 48.921875 51.53125 44.890625 
Q 49.859375 40.875 45.40625 35.40625 
Q 44.1875 33.984375 37.640625 27.21875 
Q 31.109375 20.453125 19.1875 8.296875 
z
" id="DejaVuSans-32"/>
      </defs>
      <g transform="translate(48.941464 120.924104)scale(0.08 -0.08)">
       <use xlink:href="#DejaVuSans-30"/>
       <use x="63.623047" xlink:href="#DejaVuSans-2e"/>
       <use x="95.410156" xlink:href="#DejaVuSans-32"/>
      </g>
     </g>
    </g>
    <g id="xtick_2">
     <g id="line2d_3">
      <path clip-path="url(#p58e8c6e0c2)" d="M 93.280905 111.345354 
L 93.280905 18.194646 
" style="fill:none;opacity:0.1;stroke:#000000;stroke-linecap:square;stroke-width:0.5;"/>
     </g>
     <g id="line2d_4">
      <g>
       <use style="stroke:#000000;stroke-width:0.8;" x="93.280905" xlink:href="#m79dc206951" y="111.345354"/>
      </g>
     </g>
     <g id="text_2">
      <!-- 0.4 -->
      <defs>
       <path d="M 37.796875 64.3125 
L 12.890625 25.390625 
L 37.796875 25.390625 
z
M 35.203125 72.90625 
L 47.609375 72.90625 
L 47.609375 25.390625 
L 58.015625 25.390625 
L 58.015625 17.1875 
L 47.609375 17.1875 
L 47.609375 0 
L 37.796875 0 
L 37.796875 17.1875 
L 4.890625 17.1875 
L 4.890625 26.703125 
z
" id="DejaVuSans-34"/>
      </defs>
      <g transform="translate(86.919655 120.924104)scale(0.08 -0.08)">
       <use xlink:href="#DejaVuSans-30"/>
       <use x="63.623047" xlink:href="#DejaVuSans-2e"/>
       <use x="95.410156" xlink:href="#DejaVuSans-34"/>
      </g>
     </g>
    </g>
    <g id="xtick_3">
     <g id="line2d_5">
      <path clip-path="url(#p58e8c6e0c2)" d="M 131.259095 111.345354 
L 131.259095 18.194646 
" style="fill:none;opacity:0.1;stroke:#000000;stroke-linecap:square;stroke-width:0.5;"/>
     </g>
     <g id="line2d_6">
      <g>
       <use style="stroke:#000000;stroke-width:0.8;" x="131.259095" xlink:href="#m79dc206951" y="111.345354"/>
      </g>
     </g>
     <g id="text_3">
      <!-- 0.6 -->
      <defs>
       <path d="M 33.015625 40.375 
Q 26.375 40.375 22.484375 35.828125 
Q 18.609375 31.296875 18.609375 23.390625 
Q 18.609375 15.53125 22.484375 10.953125 
Q 26.375 6.390625 33.015625 6.390625 
Q 39.65625 6.390625 43.53125 10.953125 
Q 47.40625 15.53125 47.40625 23.390625 
Q 47.40625 31.296875 43.53125 35.828125 
Q 39.65625 40.375 33.015625 40.375 
z
M 52.59375 71.296875 
L 52.59375 62.3125 
Q 48.875 64.0625 45.09375 64.984375 
Q 41.3125 65.921875 37.59375 65.921875 
Q 27.828125 65.921875 22.671875 59.328125 
Q 17.53125 52.734375 16.796875 39.40625 
Q 19.671875 43.65625 24.015625 45.921875 
Q 28.375 48.1875 33.59375 48.1875 
Q 44.578125 48.1875 50.953125 41.515625 
Q 57.328125 34.859375 57.328125 23.390625 
Q 57.328125 12.15625 50.6875 5.359375 
Q 44.046875 -1.421875 33.015625 -1.421875 
Q 20.359375 -1.421875 13.671875 8.265625 
Q 6.984375 17.96875 6.984375 36.375 
Q 6.984375 53.65625 15.1875 63.9375 
Q 23.390625 74.21875 37.203125 74.21875 
Q 40.921875 74.21875 44.703125 73.484375 
Q 48.484375 72.75 52.59375 71.296875 
z
" id="DejaVuSans-36"/>
      </defs>
      <g transform="translate(124.897845 120.924104)scale(0.08 -0.08)">
       <use xlink:href="#DejaVuSans-30"/>
       <use x="63.623047" xlink:href="#DejaVuSans-2e"/>
       <use x="95.410156" xlink:href="#DejaVuSans-36"/>
      </g>
     </g>
    </g>
    <g id="xtick_4">
     <g id="line2d_7">
      <path clip-path="url(#p58e8c6e0c2)" d="M 169.237286 111.345354 
L 169.237286 18.194646 
" style="fill:none;opacity:0.1;stroke:#000000;stroke-linecap:square;stroke-width:0.5;"/>
     </g>
     <g id="line2d_8">
      <g>
       <use style="stroke:#000000;stroke-width:0.8;" x="169.237286" xlink:href="#m79dc206951" y="111.345354"/>
      </g>
     </g>
     <g id="text_4">
      <!-- 0.8 -->
      <defs>
       <path d="M 31.78125 34.625 
Q 24.75 34.625 20.71875 30.859375 
Q 16.703125 27.09375 16.703125 20.515625 
Q 16.703125 13.921875 20.71875 10.15625 
Q 24.75 6.390625 31.78125 6.390625 
Q 38.8125 6.390625 42.859375 10.171875 
Q 46.921875 13.96875 46.921875 20.515625 
Q 46.921875 27.09375 42.890625 30.859375 
Q 38.875 34.625 31.78125 34.625 
z
M 21.921875 38.8125 
Q 15.578125 40.375 12.03125 44.71875 
Q 8.5 49.078125 8.5 55.328125 
Q 8.5 64.0625 14.71875 69.140625 
Q 20.953125 74.21875 31.78125 74.21875 
Q 42.671875 74.21875 48.875 69.140625 
Q 55.078125 64.0625 55.078125 55.328125 
Q 55.078125 49.078125 51.53125 44.71875 
Q 48 40.375 41.703125 38.8125 
Q 48.828125 37.15625 52.796875 32.3125 
Q 56.78125 27.484375 56.78125 20.515625 
Q 56.78125 9.90625 50.3125 4.234375 
Q 43.84375 -1.421875 31.78125 -1.421875 
Q 19.734375 -1.421875 13.25 4.234375 
Q 6.78125 9.90625 6.78125 20.515625 
Q 6.78125 27.484375 10.78125 32.3125 
Q 14.796875 37.15625 21.921875 38.8125 
z
M 18.3125 54.390625 
Q 18.3125 48.734375 21.84375 45.5625 
Q 25.390625 42.390625 31.78125 42.390625 
Q 38.140625 42.390625 41.71875 45.5625 
Q 45.3125 48.734375 45.3125 54.390625 
Q 45.3125 60.0625 41.71875 63.234375 
Q 38.140625 66.40625 31.78125 66.40625 
Q 25.390625 66.40625 21.84375 63.234375 
Q 18.3125 60.0625 18.3125 54.390625 
z
" id="DejaVuSans-38"/>
      </defs>
      <g transform="translate(162.876036 120.924104)scale(0.08 -0.08)">
       <use xlink:href="#DejaVuSans-30"/>
       <use x="63.623047" xlink:href="#DejaVuSans-2e"/>
       <use x="95.410156" xlink:href="#DejaVuSans-38"/>
      </g>
     </g>
    </g>
    <g id="text_5">
     <!-- x -->
     <defs>
      <path d="M 54.890625 54.6875 
L 35.109375 28.078125 
L 55.90625 0 
L 45.3125 0 
L 29.390625 21.484375 
L 13.484375 0 
L 2.875 0 
L 24.125 28.609375 
L 4.6875 54.6875 
L 15.28125 54.6875 
L 29.78125 35.203125 
L 44.28125 54.6875 
z
" id="DejaVuSans-78"/>
     </defs>
     <g transform="translate(109.014687 134.946136)scale(0.11 -0.11)">
      <use xlink:href="#DejaVuSans-78"/>
     </g>
    </g>
   </g>
   <g id="matplotlib.axis_2">
    <g id="ytick_1">
     <g id="line2d_9">
      <path clip-path="url(#p58e8c6e0c2)" d="M 20.014646 108.709014 
L 204.525354 108.709014 
" style="fill:none;opacity:0.1;stroke:#000000;stroke-linecap:square;stroke-width:0.5;"/>
     </g>
     <g id="line2d_10">
      <defs>
       <path d="M 0 0 
L 3.5 0 
" id="md144fbda8a" style="stroke:#000000;stroke-width:0.8;"/>
      </defs>
      <g>
       <use style="stroke:#000000;stroke-width:0.8;" x="20.014646" xlink:href="#md144fbda8a" y="108.709014"/>
      </g>
     </g>
     <g id="text_6">
      <!-- 0 -->
      <g transform="translate(11.424646 111.748389)scale(0.08 -0.08)">
       <use xlink:href="#DejaVuSans-30"/>
      </g>
     </g>
    </g>
    <g id="ytick_2">
     <g id="line2d_11">
      <path clip-path="url(#p58e8c6e0c2)" d="M 20.014646 86.739507 
L 204.525354 86.739507 
" style="fill:none;opacity:0.1;stroke:#000000;stroke-linecap:square;stroke-width:0.5;"/>
     </g>
     <g id="line2d_12">
      <g>
       <use style="stroke:#000000;stroke-width:0.8;" x="20.014646" xlink:href="#md144fbda8a" y="86.739507"/>
      </g>
     </g>
     <g id="text_7">
      <!-- 25 -->
      <defs>
       <path d="M 10.796875 72.90625 
L 49.515625 72.90625 
L 49.515625 64.59375 
L 19.828125 64.59375 
L 19.828125 46.734375 
Q 21.96875 47.46875 24.109375 47.828125 
Q 26.265625 48.1875 28.421875 48.1875 
Q 40.625 48.1875 47.75 41.5 
Q 54.890625 34.8125 54.890625 23.390625 
Q 54.890625 11.625 47.5625 5.09375 
Q 40.234375 -1.421875 26.90625 -1.421875 
Q 22.3125 -1.421875 17.546875 -0.640625 
Q 12.796875 0.140625 7.71875 1.703125 
L 7.71875 11.625 
Q 12.109375 9.234375 16.796875 8.0625 
Q 21.484375 6.890625 26.703125 6.890625 
Q 35.15625 6.890625 40.078125 11.328125 
Q 45.015625 15.765625 45.015625 23.390625 
Q 45.015625 31 40.078125 35.4375 
Q 35.15625 39.890625 26.703125 39.890625 
Q 22.75 39.890625 18.8125 39.015625 
Q 14.890625 38.140625 10.796875 36.28125 
z
" id="DejaVuSans-35"/>
      </defs>
      <g transform="translate(6.334646 89.778882)scale(0.08 -0.08)">
       <use xlink:href="#DejaVuSans-32"/>
       <use x="63.623047" xlink:href="#DejaVuSans-35"/>
      </g>
     </g>
    </g>
    <g id="ytick_3">
     <g id="line2d_13">
      <path clip-path="url(#p58e8c6e0c2)" d="M 20.014646 64.77 
L 204.525354 64.77 
" style="fill:none;opacity:0.1;stroke:#000000;stroke-linecap:square;stroke-width:0.5;"/>
     </g>
     <g id="line2d_14">
      <g>
       <use style="stroke:#000000;stroke-width:0.8;" x="20.014646" xlink:href="#md144fbda8a" y="64.77"/>
      </g>
     </g>
     <g id="text_8">
      <!-- 50 -->
      <g transform="translate(6.334646 67.809375)scale(0.08 -0.08)">
       <use xlink:href="#DejaVuSans-35"/>
       <use x="63.623047" xlink:href="#DejaVuSans-30"/>
      </g>
     </g>
    </g>
    <g id="ytick_4">
     <g id="line2d_15">
      <path clip-path="url(#p58e8c6e0c2)" d="M 20.014646 42.800493 
L 204.525354 42.800493 
" style="fill:none;opacity:0.1;stroke:#000000;stroke-linecap:square;stroke-width:0.5;"/>
     </g>
     <g id="line2d_16">
      <g>
       <use style="stroke:#000000;stroke-width:0.8;" x="20.014646" xlink:href="#md144fbda8a" y="42.800493"/>
      </g>
     </g>
     <g id="text_9">
      <!-- 75 -->
      <defs>
       <path d="M 8.203125 72.90625 
L 55.078125 72.90625 
L 55.078125 68.703125 
L 28.609375 0 
L 18.3125 0 
L 43.21875 64.59375 
L 8.203125 64.59375 
z
" id="DejaVuSans-37"/>
      </defs>
      <g transform="translate(6.334646 45.839868)scale(0.08 -0.08)">
       <use xlink:href="#DejaVuSans-37"/>
       <use x="63.623047" xlink:href="#DejaVuSans-35"/>
      </g>
     </g>
    </g>
    <g id="ytick_5">
     <g id="line2d_17">
      <path clip-path="url(#p58e8c6e0c2)" d="M 20.014646 20.830986 
L 204.525354 20.830986 
" style="fill:none;opacity:0.1;stroke:#000000;stroke-linecap:square;stroke-width:0.5;"/>
     </g>
     <g id="line2d_18">
      <g>
       <use style="stroke:#000000;stroke-width:0.8;" x="20.014646" xlink:href="#md144fbda8a" y="20.830986"/>
      </g>
     </g>
     <g id="text_10">
      <!-- 100 -->
      <defs>
       <path d="M 12.40625 8.296875 
L 28.515625 8.296875 
L 28.515625 63.921875 
L 10.984375 60.40625 
L 10.984375 69.390625 
L 28.421875 72.90625 
L 38.28125 72.90625 
L 38.28125 8.296875 
L 54.390625 8.296875 
L 54.390625 0 
L 12.40625 0 
z
" id="DejaVuSans-31"/>
      </defs>
      <g transform="translate(1.244646 23.870361)scale(0.08 -0.08)">
       <use xlink:href="#DejaVuSans-31"/>
       <use x="63.623047" xlink:href="#DejaVuSans-30"/>
       <use x="127.246094" xlink:href="#DejaVuSans-30"/>
      </g>
     </g>
    </g>
   </g>
   <g id="line2d_19">
    <path clip-path="url(#p58e8c6e0c2)" d="M 25.236647 108.709014 
L 41.060893 108.709014 
L 56.885139 108.709014 
L 72.709385 108.709014 
L 88.533631 108.709014 
L 104.357877 20.830986 
L 120.182123 108.709014 
L 136.006369 108.709014 
L 151.830615 108.709014 
L 167.654861 108.709014 
L 183.479107 108.709014 
L 199.303353 108.709014 
" style="fill:none;stroke:#009afa;stroke-linecap:round;"/>
   </g>
   <g id="line2d_20">
    <path clip-path="url(#p58e8c6e0c2)" d="M 25.236647 101.314155 
L 41.060893 101.319038 
L 56.885139 101.328471 
L 72.709385 101.341813 
L 88.533631 101.358157 
L 104.357877 101.37639 
L 120.182123 101.39527 
L 136.006369 101.413511 
L 151.830615 101.429868 
L 167.654861 101.443226 
L 183.479107 101.452673 
L 199.303353 101.457563 
" style="fill:none;stroke:#e36f47;stroke-linecap:round;"/>
   </g>
   <g id="patch_3">
    <path d="M 20.014646 111.345354 
L 20.014646 18.194646 
" style="fill:none;stroke:#000000;stroke-linecap:square;stroke-linejoin:miter;"/>
   </g>
   <g id="patch_4">
    <path d="M 20.014646 111.345354 
L 204.525354 111.345354 
" style="fill:none;stroke:#000000;stroke-linecap:square;stroke-linejoin:miter;"/>
   </g>
   <g id="line2d_21">
    <path clip-path="url(#p58e8c6e0c2)" d="M 25.236647 101.383197 
L 41.060893 101.383377 
L 56.885139 101.383726 
L 72.709385 101.384219 
L 88.533631 101.384823 
L 104.357877 101.385497 
L 120.182123 101.386194 
L 136.006369 101.386867 
L 151.830615 101.38747 
L 167.654861 101.387963 
L 183.479107 101.388311 
L 199.303353 101.388491 
" style="fill:none;stroke:#3ea44e;stroke-linecap:round;"/>
   </g>
   <g id="text_11">
    <!-- 0.0 -->
    <g transform="translate(101.137812 12.194646)scale(0.14 -0.14)">
     <use xlink:href="#DejaVuSans-30"/>
     <use x="63.623047" xlink:href="#DejaVuSans-2e"/>
     <use x="95.410156" xlink:href="#DejaVuSans-30"/>
    </g>
   </g>
   <g id="line2d_22">
    <path clip-path="url(#p58e8c6e0c2)" d="M 25.236647 101.385724 
L 41.060893 101.385732 
L 56.885139 101.385748 
L 72.709385 101.38577 
L 88.533631 101.385798 
L 104.357877 101.385829 
L 120.182123 101.385861 
L 136.006369 101.385891 
L 151.830615 101.385919 
L 167.654861 101.385941 
L 183.479107 101.385957 
L 199.303353 101.385966 
" style="fill:none;stroke:#c371d2;stroke-linecap:round;"/>
   </g>
  </g>
  <g id="axes_2">
   <g id="patch_5">
    <path d="M 227.374646 111.345354 
L 411.885354 111.345354 
L 411.885354 18.194646 
L 227.374646 18.194646 
z
" style="fill:#ffffff;"/>
   </g>
   <g id="matplotlib.axis_3">
    <g id="xtick_5">
     <g id="line2d_23">
      <path clip-path="url(#pa7fdd86a24)" d="M 262.662714 111.345354 
L 262.662714 18.194646 
" style="fill:none;opacity:0.1;stroke:#000000;stroke-linecap:square;stroke-width:0.5;"/>
     </g>
     <g id="line2d_24">
      <g>
       <use style="stroke:#000000;stroke-width:0.8;" x="262.662714" xlink:href="#m79dc206951" y="111.345354"/>
      </g>
     </g>
     <g id="text_12">
      <!-- 0.2 -->
      <g transform="translate(256.301464 120.924104)scale(0.08 -0.08)">
       <use xlink:href="#DejaVuSans-30"/>
       <use x="63.623047" xlink:href="#DejaVuSans-2e"/>
       <use x="95.410156" xlink:href="#DejaVuSans-32"/>
      </g>
     </g>
    </g>
    <g id="xtick_6">
     <g id="line2d_25">
      <path clip-path="url(#pa7fdd86a24)" d="M 300.640905 111.345354 
L 300.640905 18.194646 
" style="fill:none;opacity:0.1;stroke:#000000;stroke-linecap:square;stroke-width:0.5;"/>
     </g>
     <g id="line2d_26">
      <g>
       <use style="stroke:#000000;stroke-width:0.8;" x="300.640905" xlink:href="#m79dc206951" y="111.345354"/>
      </g>
     </g>
     <g id="text_13">
      <!-- 0.4 -->
      <g transform="translate(294.279655 120.924104)scale(0.08 -0.08)">
       <use xlink:href="#DejaVuSans-30"/>
       <use x="63.623047" xlink:href="#DejaVuSans-2e"/>
       <use x="95.410156" xlink:href="#DejaVuSans-34"/>
      </g>
     </g>
    </g>
    <g id="xtick_7">
     <g id="line2d_27">
      <path clip-path="url(#pa7fdd86a24)" d="M 338.619095 111.345354 
L 338.619095 18.194646 
" style="fill:none;opacity:0.1;stroke:#000000;stroke-linecap:square;stroke-width:0.5;"/>
     </g>
     <g id="line2d_28">
      <g>
       <use style="stroke:#000000;stroke-width:0.8;" x="338.619095" xlink:href="#m79dc206951" y="111.345354"/>
      </g>
     </g>
     <g id="text_14">
      <!-- 0.6 -->
      <g transform="translate(332.257845 120.924104)scale(0.08 -0.08)">
       <use xlink:href="#DejaVuSans-30"/>
       <use x="63.623047" xlink:href="#DejaVuSans-2e"/>
       <use x="95.410156" xlink:href="#DejaVuSans-36"/>
      </g>
     </g>
    </g>
    <g id="xtick_8">
     <g id="line2d_29">
      <path clip-path="url(#pa7fdd86a24)" d="M 376.597286 111.345354 
L 376.597286 18.194646 
" style="fill:none;opacity:0.1;stroke:#000000;stroke-linecap:square;stroke-width:0.5;"/>
     </g>
     <g id="line2d_30">
      <g>
       <use style="stroke:#000000;stroke-width:0.8;" x="376.597286" xlink:href="#m79dc206951" y="111.345354"/>
      </g>
     </g>
     <g id="text_15">
      <!-- 0.8 -->
      <g transform="translate(370.236036 120.924104)scale(0.08 -0.08)">
       <use xlink:href="#DejaVuSans-30"/>
       <use x="63.623047" xlink:href="#DejaVuSans-2e"/>
       <use x="95.410156" xlink:href="#DejaVuSans-38"/>
      </g>
     </g>
    </g>
    <g id="text_16">
     <!-- x -->
     <g transform="translate(316.374687 134.946136)scale(0.11 -0.11)">
      <use xlink:href="#DejaVuSans-78"/>
     </g>
    </g>
   </g>
   <g id="matplotlib.axis_4">
    <g id="ytick_6">
     <g id="line2d_31">
      <path clip-path="url(#pa7fdd86a24)" d="M 227.374646 108.709014 
L 411.885354 108.709014 
" style="fill:none;opacity:0.1;stroke:#000000;stroke-linecap:square;stroke-width:0.5;"/>
     </g>
     <g id="line2d_32">
      <g>
       <use style="stroke:#000000;stroke-width:0.8;" x="227.374646" xlink:href="#md144fbda8a" y="108.709014"/>
      </g>
     </g>
     <g id="text_17">
      <!-- 0 -->
      <g transform="translate(218.784646 111.748389)scale(0.08 -0.08)">
       <use xlink:href="#DejaVuSans-30"/>
      </g>
     </g>
    </g>
    <g id="ytick_7">
     <g id="line2d_33">
      <path clip-path="url(#pa7fdd86a24)" d="M 227.374646 86.739507 
L 411.885354 86.739507 
" style="fill:none;opacity:0.1;stroke:#000000;stroke-linecap:square;stroke-width:0.5;"/>
     </g>
     <g id="line2d_34">
      <g>
       <use style="stroke:#000000;stroke-width:0.8;" x="227.374646" xlink:href="#md144fbda8a" y="86.739507"/>
      </g>
     </g>
     <g id="text_18">
      <!-- 25 -->
      <g transform="translate(213.694646 89.778882)scale(0.08 -0.08)">
       <use xlink:href="#DejaVuSans-32"/>
       <use x="63.623047" xlink:href="#DejaVuSans-35"/>
      </g>
     </g>
    </g>
    <g id="ytick_8">
     <g id="line2d_35">
      <path clip-path="url(#pa7fdd86a24)" d="M 227.374646 64.77 
L 411.885354 64.77 
" style="fill:none;opacity:0.1;stroke:#000000;stroke-linecap:square;stroke-width:0.5;"/>
     </g>
     <g id="line2d_36">
      <g>
       <use style="stroke:#000000;stroke-width:0.8;" x="227.374646" xlink:href="#md144fbda8a" y="64.77"/>
      </g>
     </g>
     <g id="text_19">
      <!-- 50 -->
      <g transform="translate(213.694646 67.809375)scale(0.08 -0.08)">
       <use xlink:href="#DejaVuSans-35"/>
       <use x="63.623047" xlink:href="#DejaVuSans-30"/>
      </g>
     </g>
    </g>
    <g id="ytick_9">
     <g id="line2d_37">
      <path clip-path="url(#pa7fdd86a24)" d="M 227.374646 42.800493 
L 411.885354 42.800493 
" style="fill:none;opacity:0.1;stroke:#000000;stroke-linecap:square;stroke-width:0.5;"/>
     </g>
     <g id="line2d_38">
      <g>
       <use style="stroke:#000000;stroke-width:0.8;" x="227.374646" xlink:href="#md144fbda8a" y="42.800493"/>
      </g>
     </g>
     <g id="text_20">
      <!-- 75 -->
      <g transform="translate(213.694646 45.839868)scale(0.08 -0.08)">
       <use xlink:href="#DejaVuSans-37"/>
       <use x="63.623047" xlink:href="#DejaVuSans-35"/>
      </g>
     </g>
    </g>
    <g id="ytick_10">
     <g id="line2d_39">
      <path clip-path="url(#pa7fdd86a24)" d="M 227.374646 20.830986 
L 411.885354 20.830986 
" style="fill:none;opacity:0.1;stroke:#000000;stroke-linecap:square;stroke-width:0.5;"/>
     </g>
     <g id="line2d_40">
      <g>
       <use style="stroke:#000000;stroke-width:0.8;" x="227.374646" xlink:href="#md144fbda8a" y="20.830986"/>
      </g>
     </g>
     <g id="text_21">
      <!-- 100 -->
      <g transform="translate(208.604646 23.870361)scale(0.08 -0.08)">
       <use xlink:href="#DejaVuSans-31"/>
       <use x="63.623047" xlink:href="#DejaVuSans-30"/>
       <use x="127.246094" xlink:href="#DejaVuSans-30"/>
      </g>
     </g>
    </g>
   </g>
   <g id="line2d_41">
    <path clip-path="url(#pa7fdd86a24)" d="M 232.596647 108.709014 
L 248.420893 108.709014 
L 264.245139 108.709014 
L 280.069385 108.709014 
L 295.893631 108.709014 
L 311.717877 20.830986 
L 327.542123 108.709014 
L 343.366369 108.709014 
L 359.190615 108.709014 
L 375.014861 108.709014 
L 390.839107 108.709014 
L 406.663353 108.709014 
" style="fill:none;stroke:#009afa;stroke-linecap:round;"/>
   </g>
   <g id="line2d_42">
    <path clip-path="url(#pa7fdd86a24)" d="M 232.596647 101.314155 
L 248.420893 101.319038 
L 264.245139 101.328471 
L 280.069385 101.341813 
L 295.893631 101.358157 
L 311.717877 101.37639 
L 327.542123 101.39527 
L 343.366369 101.413511 
L 359.190615 101.429868 
L 375.014861 101.443226 
L 390.839107 101.452673 
L 406.663353 101.457563 
" style="fill:none;stroke:#e36f47;stroke-linecap:round;"/>
   </g>
   <g id="patch_6">
    <path d="M 227.374646 111.345354 
L 227.374646 18.194646 
" style="fill:none;stroke:#000000;stroke-linecap:square;stroke-linejoin:miter;"/>
   </g>
   <g id="patch_7">
    <path d="M 227.374646 111.345354 
L 411.885354 111.345354 
" style="fill:none;stroke:#000000;stroke-linecap:square;stroke-linejoin:miter;"/>
   </g>
   <g id="line2d_43">
    <path clip-path="url(#pa7fdd86a24)" d="M 232.596647 101.383197 
L 248.420893 101.383377 
L 264.245139 101.383726 
L 280.069385 101.384219 
L 295.893631 101.384823 
L 311.717877 101.385497 
L 327.542123 101.386194 
L 343.366369 101.386867 
L 359.190615 101.38747 
L 375.014861 101.387963 
L 390.839107 101.388311 
L 406.663353 101.388491 
" style="fill:none;stroke:#3ea44e;stroke-linecap:round;"/>
   </g>
   <g id="text_22">
    <!-- 0.3333333333333333 -->
    <defs>
     <path d="M 40.578125 39.3125 
Q 47.65625 37.796875 51.625 33 
Q 55.609375 28.21875 55.609375 21.1875 
Q 55.609375 10.40625 48.1875 4.484375 
Q 40.765625 -1.421875 27.09375 -1.421875 
Q 22.515625 -1.421875 17.65625 -0.515625 
Q 12.796875 0.390625 7.625 2.203125 
L 7.625 11.71875 
Q 11.71875 9.328125 16.59375 8.109375 
Q 21.484375 6.890625 26.8125 6.890625 
Q 36.078125 6.890625 40.9375 10.546875 
Q 45.796875 14.203125 45.796875 21.1875 
Q 45.796875 27.640625 41.28125 31.265625 
Q 36.765625 34.90625 28.71875 34.90625 
L 20.21875 34.90625 
L 20.21875 43.015625 
L 29.109375 43.015625 
Q 36.375 43.015625 40.234375 45.921875 
Q 44.09375 48.828125 44.09375 54.296875 
Q 44.09375 59.90625 40.109375 62.90625 
Q 36.140625 65.921875 28.71875 65.921875 
Q 24.65625 65.921875 20.015625 65.03125 
Q 15.375 64.15625 9.8125 62.3125 
L 9.8125 71.09375 
Q 15.4375 72.65625 20.34375 73.4375 
Q 25.25 74.21875 29.59375 74.21875 
Q 40.828125 74.21875 47.359375 69.109375 
Q 53.90625 64.015625 53.90625 55.328125 
Q 53.90625 49.265625 50.4375 45.09375 
Q 46.96875 40.921875 40.578125 39.3125 
z
" id="DejaVuSans-33"/>
    </defs>
    <g transform="translate(241.691562 12.194646)scale(0.14 -0.14)">
     <use xlink:href="#DejaVuSans-30"/>
     <use x="63.623047" xlink:href="#DejaVuSans-2e"/>
     <use x="95.410156" xlink:href="#DejaVuSans-33"/>
     <use x="159.033203" xlink:href="#DejaVuSans-33"/>
     <use x="222.65625" xlink:href="#DejaVuSans-33"/>
     <use x="286.279297" xlink:href="#DejaVuSans-33"/>
     <use x="349.902344" xlink:href="#DejaVuSans-33"/>
     <use x="413.525391" xlink:href="#DejaVuSans-33"/>
     <use x="477.148438" xlink:href="#DejaVuSans-33"/>
     <use x="540.771484" xlink:href="#DejaVuSans-33"/>
     <use x="604.394531" xlink:href="#DejaVuSans-33"/>
     <use x="668.017578" xlink:href="#DejaVuSans-33"/>
     <use x="731.640625" xlink:href="#DejaVuSans-33"/>
     <use x="795.263672" xlink:href="#DejaVuSans-33"/>
     <use x="858.886719" xlink:href="#DejaVuSans-33"/>
     <use x="922.509766" xlink:href="#DejaVuSans-33"/>
     <use x="986.132812" xlink:href="#DejaVuSans-33"/>
     <use x="1049.755859" xlink:href="#DejaVuSans-33"/>
    </g>
   </g>
   <g id="line2d_44">
    <path clip-path="url(#pa7fdd86a24)" d="M 232.596647 101.385724 
L 248.420893 101.385732 
L 264.245139 101.385748 
L 280.069385 101.38577 
L 295.893631 101.385798 
L 311.717877 101.385829 
L 327.542123 101.385861 
L 343.366369 101.385891 
L 359.190615 101.385919 
L 375.014861 101.385941 
L 390.839107 101.385957 
L 406.663353 101.385966 
" style="fill:none;stroke:#c371d2;stroke-linecap:round;"/>
   </g>
  </g>
  <g id="axes_3">
   <g id="patch_8">
    <path d="M 20.014646 249.585354 
L 204.525354 249.585354 
L 204.525354 156.434646 
L 20.014646 156.434646 
z
" style="fill:#ffffff;"/>
   </g>
   <g id="matplotlib.axis_5">
    <g id="xtick_9">
     <g id="line2d_45">
      <path clip-path="url(#p65f812733d)" d="M 55.302714 249.585354 
L 55.302714 156.434646 
" style="fill:none;opacity:0.1;stroke:#000000;stroke-linecap:square;stroke-width:0.5;"/>
     </g>
     <g id="line2d_46">
      <g>
       <use style="stroke:#000000;stroke-width:0.8;" x="55.302714" xlink:href="#m79dc206951" y="249.585354"/>
      </g>
     </g>
     <g id="text_23">
      <!-- 0.2 -->
      <g transform="translate(48.941464 259.164104)scale(0.08 -0.08)">
       <use xlink:href="#DejaVuSans-30"/>
       <use x="63.623047" xlink:href="#DejaVuSans-2e"/>
       <use x="95.410156" xlink:href="#DejaVuSans-32"/>
      </g>
     </g>
    </g>
    <g id="xtick_10">
     <g id="line2d_47">
      <path clip-path="url(#p65f812733d)" d="M 93.280905 249.585354 
L 93.280905 156.434646 
" style="fill:none;opacity:0.1;stroke:#000000;stroke-linecap:square;stroke-width:0.5;"/>
     </g>
     <g id="line2d_48">
      <g>
       <use style="stroke:#000000;stroke-width:0.8;" x="93.280905" xlink:href="#m79dc206951" y="249.585354"/>
      </g>
     </g>
     <g id="text_24">
      <!-- 0.4 -->
      <g transform="translate(86.919655 259.164104)scale(0.08 -0.08)">
       <use xlink:href="#DejaVuSans-30"/>
       <use x="63.623047" xlink:href="#DejaVuSans-2e"/>
       <use x="95.410156" xlink:href="#DejaVuSans-34"/>
      </g>
     </g>
    </g>
    <g id="xtick_11">
     <g id="line2d_49">
      <path clip-path="url(#p65f812733d)" d="M 131.259095 249.585354 
L 131.259095 156.434646 
" style="fill:none;opacity:0.1;stroke:#000000;stroke-linecap:square;stroke-width:0.5;"/>
     </g>
     <g id="line2d_50">
      <g>
       <use style="stroke:#000000;stroke-width:0.8;" x="131.259095" xlink:href="#m79dc206951" y="249.585354"/>
      </g>
     </g>
     <g id="text_25">
      <!-- 0.6 -->
      <g transform="translate(124.897845 259.164104)scale(0.08 -0.08)">
       <use xlink:href="#DejaVuSans-30"/>
       <use x="63.623047" xlink:href="#DejaVuSans-2e"/>
       <use x="95.410156" xlink:href="#DejaVuSans-36"/>
      </g>
     </g>
    </g>
    <g id="xtick_12">
     <g id="line2d_51">
      <path clip-path="url(#p65f812733d)" d="M 169.237286 249.585354 
L 169.237286 156.434646 
" style="fill:none;opacity:0.1;stroke:#000000;stroke-linecap:square;stroke-width:0.5;"/>
     </g>
     <g id="line2d_52">
      <g>
       <use style="stroke:#000000;stroke-width:0.8;" x="169.237286" xlink:href="#m79dc206951" y="249.585354"/>
      </g>
     </g>
     <g id="text_26">
      <!-- 0.8 -->
      <g transform="translate(162.876036 259.164104)scale(0.08 -0.08)">
       <use xlink:href="#DejaVuSans-30"/>
       <use x="63.623047" xlink:href="#DejaVuSans-2e"/>
       <use x="95.410156" xlink:href="#DejaVuSans-38"/>
      </g>
     </g>
    </g>
    <g id="text_27">
     <!-- x -->
     <g transform="translate(109.014687 273.186136)scale(0.11 -0.11)">
      <use xlink:href="#DejaVuSans-78"/>
     </g>
    </g>
   </g>
   <g id="matplotlib.axis_6">
    <g id="ytick_11">
     <g id="line2d_53">
      <path clip-path="url(#p65f812733d)" d="M 20.014646 246.949014 
L 204.525354 246.949014 
" style="fill:none;opacity:0.1;stroke:#000000;stroke-linecap:square;stroke-width:0.5;"/>
     </g>
     <g id="line2d_54">
      <g>
       <use style="stroke:#000000;stroke-width:0.8;" x="20.014646" xlink:href="#md144fbda8a" y="246.949014"/>
      </g>
     </g>
     <g id="text_28">
      <!-- 0 -->
      <g transform="translate(11.424646 249.988389)scale(0.08 -0.08)">
       <use xlink:href="#DejaVuSans-30"/>
      </g>
     </g>
    </g>
    <g id="ytick_12">
     <g id="line2d_55">
      <path clip-path="url(#p65f812733d)" d="M 20.014646 224.979507 
L 204.525354 224.979507 
" style="fill:none;opacity:0.1;stroke:#000000;stroke-linecap:square;stroke-width:0.5;"/>
     </g>
     <g id="line2d_56">
      <g>
       <use style="stroke:#000000;stroke-width:0.8;" x="20.014646" xlink:href="#md144fbda8a" y="224.979507"/>
      </g>
     </g>
     <g id="text_29">
      <!-- 25 -->
      <g transform="translate(6.334646 228.018882)scale(0.08 -0.08)">
       <use xlink:href="#DejaVuSans-32"/>
       <use x="63.623047" xlink:href="#DejaVuSans-35"/>
      </g>
     </g>
    </g>
    <g id="ytick_13">
     <g id="line2d_57">
      <path clip-path="url(#p65f812733d)" d="M 20.014646 203.01 
L 204.525354 203.01 
" style="fill:none;opacity:0.1;stroke:#000000;stroke-linecap:square;stroke-width:0.5;"/>
     </g>
     <g id="line2d_58">
      <g>
       <use style="stroke:#000000;stroke-width:0.8;" x="20.014646" xlink:href="#md144fbda8a" y="203.01"/>
      </g>
     </g>
     <g id="text_30">
      <!-- 50 -->
      <g transform="translate(6.334646 206.049375)scale(0.08 -0.08)">
       <use xlink:href="#DejaVuSans-35"/>
       <use x="63.623047" xlink:href="#DejaVuSans-30"/>
      </g>
     </g>
    </g>
    <g id="ytick_14">
     <g id="line2d_59">
      <path clip-path="url(#p65f812733d)" d="M 20.014646 181.040493 
L 204.525354 181.040493 
" style="fill:none;opacity:0.1;stroke:#000000;stroke-linecap:square;stroke-width:0.5;"/>
     </g>
     <g id="line2d_60">
      <g>
       <use style="stroke:#000000;stroke-width:0.8;" x="20.014646" xlink:href="#md144fbda8a" y="181.040493"/>
      </g>
     </g>
     <g id="text_31">
      <!-- 75 -->
      <g transform="translate(6.334646 184.079868)scale(0.08 -0.08)">
       <use xlink:href="#DejaVuSans-37"/>
       <use x="63.623047" xlink:href="#DejaVuSans-35"/>
      </g>
     </g>
    </g>
    <g id="ytick_15">
     <g id="line2d_61">
      <path clip-path="url(#p65f812733d)" d="M 20.014646 159.070986 
L 204.525354 159.070986 
" style="fill:none;opacity:0.1;stroke:#000000;stroke-linecap:square;stroke-width:0.5;"/>
     </g>
     <g id="line2d_62">
      <g>
       <use style="stroke:#000000;stroke-width:0.8;" x="20.014646" xlink:href="#md144fbda8a" y="159.070986"/>
      </g>
     </g>
     <g id="text_32">
      <!-- 100 -->
      <g transform="translate(1.244646 162.110361)scale(0.08 -0.08)">
       <use xlink:href="#DejaVuSans-31"/>
       <use x="63.623047" xlink:href="#DejaVuSans-30"/>
       <use x="127.246094" xlink:href="#DejaVuSans-30"/>
      </g>
     </g>
    </g>
   </g>
   <g id="line2d_63">
    <path clip-path="url(#p65f812733d)" d="M 25.236647 246.949014 
L 41.060893 246.949014 
L 56.885139 246.949014 
L 72.709385 246.949014 
L 88.533631 246.949014 
L 104.357877 159.070986 
L 120.182123 246.949014 
L 136.006369 246.949014 
L 151.830615 246.949014 
L 167.654861 246.949014 
L 183.479107 246.949014 
L 199.303353 246.949014 
" style="fill:none;stroke:#009afa;stroke-linecap:round;"/>
   </g>
   <g id="line2d_64">
    <path clip-path="url(#p65f812733d)" d="M 25.236647 239.554155 
L 41.060893 239.559038 
L 56.885139 239.568471 
L 72.709385 239.581813 
L 88.533631 239.598157 
L 104.357877 239.61639 
L 120.182123 239.63527 
L 136.006369 239.653511 
L 151.830615 239.669868 
L 167.654861 239.683226 
L 183.479107 239.692673 
L 199.303353 239.697563 
" style="fill:none;stroke:#e36f47;stroke-linecap:round;"/>
   </g>
   <g id="patch_9">
    <path d="M 20.014646 249.585354 
L 20.014646 156.434646 
" style="fill:none;stroke:#000000;stroke-linecap:square;stroke-linejoin:miter;"/>
   </g>
   <g id="patch_10">
    <path d="M 20.014646 249.585354 
L 204.525354 249.585354 
" style="fill:none;stroke:#000000;stroke-linecap:square;stroke-linejoin:miter;"/>
   </g>
   <g id="line2d_65">
    <path clip-path="url(#p65f812733d)" d="M 25.236647 239.623197 
L 41.060893 239.623377 
L 56.885139 239.623726 
L 72.709385 239.624219 
L 88.533631 239.624823 
L 104.357877 239.625497 
L 120.182123 239.626194 
L 136.006369 239.626867 
L 151.830615 239.62747 
L 167.654861 239.627963 
L 183.479107 239.628311 
L 199.303353 239.628491 
" style="fill:none;stroke:#3ea44e;stroke-linecap:round;"/>
   </g>
   <g id="text_33">
    <!-- 0.6666666666666666 -->
    <g transform="translate(34.331562 150.434646)scale(0.14 -0.14)">
     <use xlink:href="#DejaVuSans-30"/>
     <use x="63.623047" xlink:href="#DejaVuSans-2e"/>
     <use x="95.410156" xlink:href="#DejaVuSans-36"/>
     <use x="159.033203" xlink:href="#DejaVuSans-36"/>
     <use x="222.65625" xlink:href="#DejaVuSans-36"/>
     <use x="286.279297" xlink:href="#DejaVuSans-36"/>
     <use x="349.902344" xlink:href="#DejaVuSans-36"/>
     <use x="413.525391" xlink:href="#DejaVuSans-36"/>
     <use x="477.148438" xlink:href="#DejaVuSans-36"/>
     <use x="540.771484" xlink:href="#DejaVuSans-36"/>
     <use x="604.394531" xlink:href="#DejaVuSans-36"/>
     <use x="668.017578" xlink:href="#DejaVuSans-36"/>
     <use x="731.640625" xlink:href="#DejaVuSans-36"/>
     <use x="795.263672" xlink:href="#DejaVuSans-36"/>
     <use x="858.886719" xlink:href="#DejaVuSans-36"/>
     <use x="922.509766" xlink:href="#DejaVuSans-36"/>
     <use x="986.132812" xlink:href="#DejaVuSans-36"/>
     <use x="1049.755859" xlink:href="#DejaVuSans-36"/>
    </g>
   </g>
   <g id="line2d_66">
    <path clip-path="url(#p65f812733d)" d="M 25.236647 239.625724 
L 41.060893 239.625732 
L 56.885139 239.625748 
L 72.709385 239.62577 
L 88.533631 239.625798 
L 104.357877 239.625829 
L 120.182123 239.625861 
L 136.006369 239.625891 
L 151.830615 239.625919 
L 167.654861 239.625941 
L 183.479107 239.625957 
L 199.303353 239.625966 
" style="fill:none;stroke:#c371d2;stroke-linecap:round;"/>
   </g>
  </g>
  <g id="axes_4">
   <g id="patch_11">
    <path d="M 227.374646 249.585354 
L 411.885354 249.585354 
L 411.885354 156.434646 
L 227.374646 156.434646 
z
" style="fill:#ffffff;"/>
   </g>
   <g id="matplotlib.axis_7">
    <g id="xtick_13">
     <g id="line2d_67">
      <path clip-path="url(#p110091933a)" d="M 262.662714 249.585354 
L 262.662714 156.434646 
" style="fill:none;opacity:0.1;stroke:#000000;stroke-linecap:square;stroke-width:0.5;"/>
     </g>
     <g id="line2d_68">
      <g>
       <use style="stroke:#000000;stroke-width:0.8;" x="262.662714" xlink:href="#m79dc206951" y="249.585354"/>
      </g>
     </g>
     <g id="text_34">
      <!-- 0.2 -->
      <g transform="translate(256.301464 259.164104)scale(0.08 -0.08)">
       <use xlink:href="#DejaVuSans-30"/>
       <use x="63.623047" xlink:href="#DejaVuSans-2e"/>
       <use x="95.410156" xlink:href="#DejaVuSans-32"/>
      </g>
     </g>
    </g>
    <g id="xtick_14">
     <g id="line2d_69">
      <path clip-path="url(#p110091933a)" d="M 300.640905 249.585354 
L 300.640905 156.434646 
" style="fill:none;opacity:0.1;stroke:#000000;stroke-linecap:square;stroke-width:0.5;"/>
     </g>
     <g id="line2d_70">
      <g>
       <use style="stroke:#000000;stroke-width:0.8;" x="300.640905" xlink:href="#m79dc206951" y="249.585354"/>
      </g>
     </g>
     <g id="text_35">
      <!-- 0.4 -->
      <g transform="translate(294.279655 259.164104)scale(0.08 -0.08)">
       <use xlink:href="#DejaVuSans-30"/>
       <use x="63.623047" xlink:href="#DejaVuSans-2e"/>
       <use x="95.410156" xlink:href="#DejaVuSans-34"/>
      </g>
     </g>
    </g>
    <g id="xtick_15">
     <g id="line2d_71">
      <path clip-path="url(#p110091933a)" d="M 338.619095 249.585354 
L 338.619095 156.434646 
" style="fill:none;opacity:0.1;stroke:#000000;stroke-linecap:square;stroke-width:0.5;"/>
     </g>
     <g id="line2d_72">
      <g>
       <use style="stroke:#000000;stroke-width:0.8;" x="338.619095" xlink:href="#m79dc206951" y="249.585354"/>
      </g>
     </g>
     <g id="text_36">
      <!-- 0.6 -->
      <g transform="translate(332.257845 259.164104)scale(0.08 -0.08)">
       <use xlink:href="#DejaVuSans-30"/>
       <use x="63.623047" xlink:href="#DejaVuSans-2e"/>
       <use x="95.410156" xlink:href="#DejaVuSans-36"/>
      </g>
     </g>
    </g>
    <g id="xtick_16">
     <g id="line2d_73">
      <path clip-path="url(#p110091933a)" d="M 376.597286 249.585354 
L 376.597286 156.434646 
" style="fill:none;opacity:0.1;stroke:#000000;stroke-linecap:square;stroke-width:0.5;"/>
     </g>
     <g id="line2d_74">
      <g>
       <use style="stroke:#000000;stroke-width:0.8;" x="376.597286" xlink:href="#m79dc206951" y="249.585354"/>
      </g>
     </g>
     <g id="text_37">
      <!-- 0.8 -->
      <g transform="translate(370.236036 259.164104)scale(0.08 -0.08)">
       <use xlink:href="#DejaVuSans-30"/>
       <use x="63.623047" xlink:href="#DejaVuSans-2e"/>
       <use x="95.410156" xlink:href="#DejaVuSans-38"/>
      </g>
     </g>
    </g>
    <g id="text_38">
     <!-- x -->
     <g transform="translate(316.374687 273.186136)scale(0.11 -0.11)">
      <use xlink:href="#DejaVuSans-78"/>
     </g>
    </g>
   </g>
   <g id="matplotlib.axis_8">
    <g id="ytick_16">
     <g id="line2d_75">
      <path clip-path="url(#p110091933a)" d="M 227.374646 246.949014 
L 411.885354 246.949014 
" style="fill:none;opacity:0.1;stroke:#000000;stroke-linecap:square;stroke-width:0.5;"/>
     </g>
     <g id="line2d_76">
      <g>
       <use style="stroke:#000000;stroke-width:0.8;" x="227.374646" xlink:href="#md144fbda8a" y="246.949014"/>
      </g>
     </g>
     <g id="text_39">
      <!-- 0 -->
      <g transform="translate(218.784646 249.988389)scale(0.08 -0.08)">
       <use xlink:href="#DejaVuSans-30"/>
      </g>
     </g>
    </g>
    <g id="ytick_17">
     <g id="line2d_77">
      <path clip-path="url(#p110091933a)" d="M 227.374646 224.979507 
L 411.885354 224.979507 
" style="fill:none;opacity:0.1;stroke:#000000;stroke-linecap:square;stroke-width:0.5;"/>
     </g>
     <g id="line2d_78">
      <g>
       <use style="stroke:#000000;stroke-width:0.8;" x="227.374646" xlink:href="#md144fbda8a" y="224.979507"/>
      </g>
     </g>
     <g id="text_40">
      <!-- 25 -->
      <g transform="translate(213.694646 228.018882)scale(0.08 -0.08)">
       <use xlink:href="#DejaVuSans-32"/>
       <use x="63.623047" xlink:href="#DejaVuSans-35"/>
      </g>
     </g>
    </g>
    <g id="ytick_18">
     <g id="line2d_79">
      <path clip-path="url(#p110091933a)" d="M 227.374646 203.01 
L 411.885354 203.01 
" style="fill:none;opacity:0.1;stroke:#000000;stroke-linecap:square;stroke-width:0.5;"/>
     </g>
     <g id="line2d_80">
      <g>
       <use style="stroke:#000000;stroke-width:0.8;" x="227.374646" xlink:href="#md144fbda8a" y="203.01"/>
      </g>
     </g>
     <g id="text_41">
      <!-- 50 -->
      <g transform="translate(213.694646 206.049375)scale(0.08 -0.08)">
       <use xlink:href="#DejaVuSans-35"/>
       <use x="63.623047" xlink:href="#DejaVuSans-30"/>
      </g>
     </g>
    </g>
    <g id="ytick_19">
     <g id="line2d_81">
      <path clip-path="url(#p110091933a)" d="M 227.374646 181.040493 
L 411.885354 181.040493 
" style="fill:none;opacity:0.1;stroke:#000000;stroke-linecap:square;stroke-width:0.5;"/>
     </g>
     <g id="line2d_82">
      <g>
       <use style="stroke:#000000;stroke-width:0.8;" x="227.374646" xlink:href="#md144fbda8a" y="181.040493"/>
      </g>
     </g>
     <g id="text_42">
      <!-- 75 -->
      <g transform="translate(213.694646 184.079868)scale(0.08 -0.08)">
       <use xlink:href="#DejaVuSans-37"/>
       <use x="63.623047" xlink:href="#DejaVuSans-35"/>
      </g>
     </g>
    </g>
    <g id="ytick_20">
     <g id="line2d_83">
      <path clip-path="url(#p110091933a)" d="M 227.374646 159.070986 
L 411.885354 159.070986 
" style="fill:none;opacity:0.1;stroke:#000000;stroke-linecap:square;stroke-width:0.5;"/>
     </g>
     <g id="line2d_84">
      <g>
       <use style="stroke:#000000;stroke-width:0.8;" x="227.374646" xlink:href="#md144fbda8a" y="159.070986"/>
      </g>
     </g>
     <g id="text_43">
      <!-- 100 -->
      <g transform="translate(208.604646 162.110361)scale(0.08 -0.08)">
       <use xlink:href="#DejaVuSans-31"/>
       <use x="63.623047" xlink:href="#DejaVuSans-30"/>
       <use x="127.246094" xlink:href="#DejaVuSans-30"/>
      </g>
     </g>
    </g>
   </g>
   <g id="line2d_85">
    <path clip-path="url(#p110091933a)" d="M 232.596647 246.949014 
L 248.420893 246.949014 
L 264.245139 246.949014 
L 280.069385 246.949014 
L 295.893631 246.949014 
L 311.717877 159.070986 
L 327.542123 246.949014 
L 343.366369 246.949014 
L 359.190615 246.949014 
L 375.014861 246.949014 
L 390.839107 246.949014 
L 406.663353 246.949014 
" style="fill:none;stroke:#009afa;stroke-linecap:round;"/>
   </g>
   <g id="line2d_86">
    <path clip-path="url(#p110091933a)" d="M 232.596647 239.554155 
L 248.420893 239.559038 
L 264.245139 239.568471 
L 280.069385 239.581813 
L 295.893631 239.598157 
L 311.717877 239.61639 
L 327.542123 239.63527 
L 343.366369 239.653511 
L 359.190615 239.669868 
L 375.014861 239.683226 
L 390.839107 239.692673 
L 406.663353 239.697563 
" style="fill:none;stroke:#e36f47;stroke-linecap:round;"/>
   </g>
   <g id="patch_12">
    <path d="M 227.374646 249.585354 
L 227.374646 156.434646 
" style="fill:none;stroke:#000000;stroke-linecap:square;stroke-linejoin:miter;"/>
   </g>
   <g id="patch_13">
    <path d="M 227.374646 249.585354 
L 411.885354 249.585354 
" style="fill:none;stroke:#000000;stroke-linecap:square;stroke-linejoin:miter;"/>
   </g>
   <g id="line2d_87">
    <path clip-path="url(#p110091933a)" d="M 232.596647 239.623197 
L 248.420893 239.623377 
L 264.245139 239.623726 
L 280.069385 239.624219 
L 295.893631 239.624823 
L 311.717877 239.625497 
L 327.542123 239.626194 
L 343.366369 239.626867 
L 359.190615 239.62747 
L 375.014861 239.627963 
L 390.839107 239.628311 
L 406.663353 239.628491 
" style="fill:none;stroke:#3ea44e;stroke-linecap:round;"/>
   </g>
   <g id="text_44">
    <!-- 1.0 -->
    <g transform="translate(308.497813 150.434646)scale(0.14 -0.14)">
     <use xlink:href="#DejaVuSans-31"/>
     <use x="63.623047" xlink:href="#DejaVuSans-2e"/>
     <use x="95.410156" xlink:href="#DejaVuSans-30"/>
    </g>
   </g>
   <g id="line2d_88">
    <path clip-path="url(#p110091933a)" d="M 232.596647 239.625724 
L 248.420893 239.625732 
L 264.245139 239.625748 
L 280.069385 239.62577 
L 295.893631 239.625798 
L 311.717877 239.625829 
L 327.542123 239.625861 
L 343.366369 239.625891 
L 359.190615 239.625919 
L 375.014861 239.625941 
L 390.839107 239.625957 
L 406.663353 239.625966 
" style="fill:none;stroke:#c371d2;stroke-linecap:round;"/>
   </g>
  </g>
 </g>
 <defs>
  <clipPath id="p58e8c6e0c2">
   <rect height="93.150709" width="184.510709" x="20.014646" y="18.194646"/>
  </clipPath>
  <clipPath id="pa7fdd86a24">
   <rect height="93.150709" width="184.510709" x="227.374646" y="18.194646"/>
  </clipPath>
  <clipPath id="p65f812733d">
   <rect height="93.150709" width="184.510709" x="20.014646" y="156.434646"/>
  </clipPath>
  <clipPath id="p110091933a">
   <rect height="93.150709" width="184.510709" x="227.374646" y="156.434646"/>
  </clipPath>
 </defs>
</svg>
