<?xml version="1.0" encoding="utf-8" standalone="no"?>
<!DOCTYPE svg PUBLIC "-//W3C//DTD SVG 1.1//EN"
  "http://www.w3.org/Graphics/SVG/1.1/DTD/svg11.dtd">
<!-- Created with matplotlib (http://matplotlib.org/) -->
<svg height="276.48pt" version="1.1" viewBox="0 0 414.72 276.48" width="414.72pt" xmlns="http://www.w3.org/2000/svg" xmlns:xlink="http://www.w3.org/1999/xlink">
 <defs>
  <style type="text/css">
*{stroke-linecap:butt;stroke-linejoin:round;}
  </style>
 </defs>
 <g id="figure_1">
  <g id="patch_1">
   <path d="M 0 276.48 
L 414.72 276.48 
L 414.72 0 
L 0 0 
z
" style="fill:#ffffff;"/>
  </g>
  <g id="axes_1">
   <g id="patch_2">
    <path d="M 20.014646 264.385354 
L 411.885354 264.385354 
L 411.885354 2.834646 
L 20.014646 2.834646 
z
" style="fill:#ffffff;"/>
   </g>
   <g id="matplotlib.axis_1">
    <g id="xtick_1">
     <g id="line2d_1">
      <path clip-path="url(#p0948cfbe87)" d="M 27.37109 264.385354 
L 27.37109 2.834646 
" style="fill:none;opacity:0.1;stroke:#000000;stroke-linecap:square;stroke-width:0.5;"/>
     </g>
     <g id="line2d_2">
      <defs>
       <path d="M 0 0 
L 0 -3.5 
" id="md5de1a014c" style="stroke:#000000;stroke-width:0.8;"/>
      </defs>
      <g>
       <use style="stroke:#000000;stroke-width:0.8;" x="27.37109" xlink:href="#md5de1a014c" y="264.385354"/>
      </g>
     </g>
     <g id="text_1">
      <!-- 0 -->
      <defs>
       <path d="M 31.78125 66.40625 
Q 24.171875 66.40625 20.328125 58.90625 
Q 16.5 51.421875 16.5 36.375 
Q 16.5 21.390625 20.328125 13.890625 
Q 24.171875 6.390625 31.78125 6.390625 
Q 39.453125 6.390625 43.28125 13.890625 
Q 47.125 21.390625 47.125 36.375 
Q 47.125 51.421875 43.28125 58.90625 
Q 39.453125 66.40625 31.78125 66.40625 
z
M 31.78125 74.21875 
Q 44.046875 74.21875 50.515625 64.515625 
Q 56.984375 54.828125 56.984375 36.375 
Q 56.984375 17.96875 50.515625 8.265625 
Q 44.046875 -1.421875 31.78125 -1.421875 
Q 19.53125 -1.421875 13.0625 8.265625 
Q 6.59375 17.96875 6.59375 36.375 
Q 6.59375 54.828125 13.0625 64.515625 
Q 19.53125 74.21875 31.78125 74.21875 
z
" id="DejaVuSans-30"/>
      </defs>
      <g transform="translate(24.82609 273.964104)scale(0.08 -0.08)">
       <use xlink:href="#DejaVuSans-30"/>
      </g>
     </g>
    </g>
    <g id="xtick_2">
     <g id="line2d_3">
      <path clip-path="url(#p0948cfbe87)" d="M 120.726986 264.385354 
L 120.726986 2.834646 
" style="fill:none;opacity:0.1;stroke:#000000;stroke-linecap:square;stroke-width:0.5;"/>
     </g>
     <g id="line2d_4">
      <g>
       <use style="stroke:#000000;stroke-width:0.8;" x="120.726986" xlink:href="#md5de1a014c" y="264.385354"/>
      </g>
     </g>
     <g id="text_2">
      <!-- 25 -->
      <defs>
       <path d="M 19.1875 8.296875 
L 53.609375 8.296875 
L 53.609375 0 
L 7.328125 0 
L 7.328125 8.296875 
Q 12.9375 14.109375 22.625 23.890625 
Q 32.328125 33.6875 34.8125 36.53125 
Q 39.546875 41.84375 41.421875 45.53125 
Q 43.3125 49.21875 43.3125 52.78125 
Q 43.3125 58.59375 39.234375 62.25 
Q 35.15625 65.921875 28.609375 65.921875 
Q 23.96875 65.921875 18.8125 64.3125 
Q 13.671875 62.703125 7.8125 59.421875 
L 7.8125 69.390625 
Q 13.765625 71.78125 18.9375 73 
Q 24.125 74.21875 28.421875 74.21875 
Q 39.75 74.21875 46.484375 68.546875 
Q 53.21875 62.890625 53.21875 53.421875 
Q 53.21875 48.921875 51.53125 44.890625 
Q 49.859375 40.875 45.40625 35.40625 
Q 44.1875 33.984375 37.640625 27.21875 
Q 31.109375 20.453125 19.1875 8.296875 
z
" id="DejaVuSans-32"/>
       <path d="M 10.796875 72.90625 
L 49.515625 72.90625 
L 49.515625 64.59375 
L 19.828125 64.59375 
L 19.828125 46.734375 
Q 21.96875 47.46875 24.109375 47.828125 
Q 26.265625 48.1875 28.421875 48.1875 
Q 40.625 48.1875 47.75 41.5 
Q 54.890625 34.8125 54.890625 23.390625 
Q 54.890625 11.625 47.5625 5.09375 
Q 40.234375 -1.421875 26.90625 -1.421875 
Q 22.3125 -1.421875 17.546875 -0.640625 
Q 12.796875 0.140625 7.71875 1.703125 
L 7.71875 11.625 
Q 12.109375 9.234375 16.796875 8.0625 
Q 21.484375 6.890625 26.703125 6.890625 
Q 35.15625 6.890625 40.078125 11.328125 
Q 45.015625 15.765625 45.015625 23.390625 
Q 45.015625 31 40.078125 35.4375 
Q 35.15625 39.890625 26.703125 39.890625 
Q 22.75 39.890625 18.8125 39.015625 
Q 14.890625 38.140625 10.796875 36.28125 
z
" id="DejaVuSans-35"/>
      </defs>
      <g transform="translate(115.636986 273.964104)scale(0.08 -0.08)">
       <use xlink:href="#DejaVuSans-32"/>
       <use x="63.623047" xlink:href="#DejaVuSans-35"/>
      </g>
     </g>
    </g>
    <g id="xtick_3">
     <g id="line2d_5">
      <path clip-path="url(#p0948cfbe87)" d="M 214.082882 264.385354 
L 214.082882 2.834646 
" style="fill:none;opacity:0.1;stroke:#000000;stroke-linecap:square;stroke-width:0.5;"/>
     </g>
     <g id="line2d_6">
      <g>
       <use style="stroke:#000000;stroke-width:0.8;" x="214.082882" xlink:href="#md5de1a014c" y="264.385354"/>
      </g>
     </g>
     <g id="text_3">
      <!-- 50 -->
      <g transform="translate(208.992882 273.964104)scale(0.08 -0.08)">
       <use xlink:href="#DejaVuSans-35"/>
       <use x="63.623047" xlink:href="#DejaVuSans-30"/>
      </g>
     </g>
    </g>
    <g id="xtick_4">
     <g id="line2d_7">
      <path clip-path="url(#p0948cfbe87)" d="M 307.438778 264.385354 
L 307.438778 2.834646 
" style="fill:none;opacity:0.1;stroke:#000000;stroke-linecap:square;stroke-width:0.5;"/>
     </g>
     <g id="line2d_8">
      <g>
       <use style="stroke:#000000;stroke-width:0.8;" x="307.438778" xlink:href="#md5de1a014c" y="264.385354"/>
      </g>
     </g>
     <g id="text_4">
      <!-- 75 -->
      <defs>
       <path d="M 8.203125 72.90625 
L 55.078125 72.90625 
L 55.078125 68.703125 
L 28.609375 0 
L 18.3125 0 
L 43.21875 64.59375 
L 8.203125 64.59375 
z
" id="DejaVuSans-37"/>
      </defs>
      <g transform="translate(302.348778 273.964104)scale(0.08 -0.08)">
       <use xlink:href="#DejaVuSans-37"/>
       <use x="63.623047" xlink:href="#DejaVuSans-35"/>
      </g>
     </g>
    </g>
    <g id="xtick_5">
     <g id="line2d_9">
      <path clip-path="url(#p0948cfbe87)" d="M 400.794674 264.385354 
L 400.794674 2.834646 
" style="fill:none;opacity:0.1;stroke:#000000;stroke-linecap:square;stroke-width:0.5;"/>
     </g>
     <g id="line2d_10">
      <g>
       <use style="stroke:#000000;stroke-width:0.8;" x="400.794674" xlink:href="#md5de1a014c" y="264.385354"/>
      </g>
     </g>
     <g id="text_5">
      <!-- 100 -->
      <defs>
       <path d="M 12.40625 8.296875 
L 28.515625 8.296875 
L 28.515625 63.921875 
L 10.984375 60.40625 
L 10.984375 69.390625 
L 28.421875 72.90625 
L 38.28125 72.90625 
L 38.28125 8.296875 
L 54.390625 8.296875 
L 54.390625 0 
L 12.40625 0 
z
" id="DejaVuSans-31"/>
      </defs>
      <g transform="translate(393.159674 273.964104)scale(0.08 -0.08)">
       <use xlink:href="#DejaVuSans-31"/>
       <use x="63.623047" xlink:href="#DejaVuSans-30"/>
       <use x="127.246094" xlink:href="#DejaVuSans-30"/>
      </g>
     </g>
    </g>
   </g>
   <g id="matplotlib.axis_2">
    <g id="ytick_1">
     <g id="line2d_11">
      <path clip-path="url(#p0948cfbe87)" d="M 20.014646 259.475359 
L 411.885354 259.475359 
" style="fill:none;opacity:0.1;stroke:#000000;stroke-linecap:square;stroke-width:0.5;"/>
     </g>
     <g id="line2d_12">
      <defs>
       <path d="M 0 0 
L 3.5 0 
" id="m23714fe1ce" style="stroke:#000000;stroke-width:0.8;"/>
      </defs>
      <g>
       <use style="stroke:#000000;stroke-width:0.8;" x="20.014646" xlink:href="#m23714fe1ce" y="259.475359"/>
      </g>
     </g>
     <g id="text_6">
      <!-- 0 -->
      <g transform="translate(11.424646 262.514734)scale(0.08 -0.08)">
       <use xlink:href="#DejaVuSans-30"/>
      </g>
     </g>
    </g>
    <g id="ytick_2">
     <g id="line2d_13">
      <path clip-path="url(#p0948cfbe87)" d="M 20.014646 197.165775 
L 411.885354 197.165775 
" style="fill:none;opacity:0.1;stroke:#000000;stroke-linecap:square;stroke-width:0.5;"/>
     </g>
     <g id="line2d_14">
      <g>
       <use style="stroke:#000000;stroke-width:0.8;" x="20.014646" xlink:href="#m23714fe1ce" y="197.165775"/>
      </g>
     </g>
     <g id="text_7">
      <!-- 25 -->
      <g transform="translate(6.334646 200.20515)scale(0.08 -0.08)">
       <use xlink:href="#DejaVuSans-32"/>
       <use x="63.623047" xlink:href="#DejaVuSans-35"/>
      </g>
     </g>
    </g>
    <g id="ytick_3">
     <g id="line2d_15">
      <path clip-path="url(#p0948cfbe87)" d="M 20.014646 134.856192 
L 411.885354 134.856192 
" style="fill:none;opacity:0.1;stroke:#000000;stroke-linecap:square;stroke-width:0.5;"/>
     </g>
     <g id="line2d_16">
      <g>
       <use style="stroke:#000000;stroke-width:0.8;" x="20.014646" xlink:href="#m23714fe1ce" y="134.856192"/>
      </g>
     </g>
     <g id="text_8">
      <!-- 50 -->
      <g transform="translate(6.334646 137.895567)scale(0.08 -0.08)">
       <use xlink:href="#DejaVuSans-35"/>
       <use x="63.623047" xlink:href="#DejaVuSans-30"/>
      </g>
     </g>
    </g>
    <g id="ytick_4">
     <g id="line2d_17">
      <path clip-path="url(#p0948cfbe87)" d="M 20.014646 72.546608 
L 411.885354 72.546608 
" style="fill:none;opacity:0.1;stroke:#000000;stroke-linecap:square;stroke-width:0.5;"/>
     </g>
     <g id="line2d_18">
      <g>
       <use style="stroke:#000000;stroke-width:0.8;" x="20.014646" xlink:href="#m23714fe1ce" y="72.546608"/>
      </g>
     </g>
     <g id="text_9">
      <!-- 75 -->
      <g transform="translate(6.334646 75.585983)scale(0.08 -0.08)">
       <use xlink:href="#DejaVuSans-37"/>
       <use x="63.623047" xlink:href="#DejaVuSans-35"/>
      </g>
     </g>
    </g>
    <g id="ytick_5">
     <g id="line2d_19">
      <path clip-path="url(#p0948cfbe87)" d="M 20.014646 10.237024 
L 411.885354 10.237024 
" style="fill:none;opacity:0.1;stroke:#000000;stroke-linecap:square;stroke-width:0.5;"/>
     </g>
     <g id="line2d_20">
      <g>
       <use style="stroke:#000000;stroke-width:0.8;" x="20.014646" xlink:href="#m23714fe1ce" y="10.237024"/>
      </g>
     </g>
     <g id="text_10">
      <!-- 100 -->
      <g transform="translate(1.244646 13.276399)scale(0.08 -0.08)">
       <use xlink:href="#DejaVuSans-31"/>
       <use x="63.623047" xlink:href="#DejaVuSans-30"/>
       <use x="127.246094" xlink:href="#DejaVuSans-30"/>
      </g>
     </g>
    </g>
   </g>
   <g id="line2d_21">
    <path clip-path="url(#p0948cfbe87)" d="M 31.105326 256.982976 
L 34.839562 254.490592 
L 38.573798 251.998209 
L 42.308034 249.505826 
L 46.042269 247.013442 
L 49.776505 244.521059 
L 53.510741 242.028676 
L 57.244977 239.536292 
L 60.979213 237.043909 
L 64.713449 234.551526 
L 68.447684 232.059142 
L 72.18192 229.566759 
L 75.916156 227.074376 
L 79.650392 224.581992 
L 83.384628 222.089609 
L 87.118864 219.597226 
L 90.853099 217.104842 
L 94.587335 214.612459 
L 98.321571 212.120075 
L 102.055807 209.627692 
L 105.790043 207.135309 
L 109.524279 204.642925 
L 113.258515 202.150542 
L 116.99275 199.658159 
L 120.726986 197.165775 
L 124.461222 194.673392 
L 128.195458 192.181009 
L 131.929694 189.688625 
L 135.66393 187.196242 
L 139.398165 184.703859 
L 143.132401 182.211475 
L 146.866637 179.719092 
L 150.600873 177.226709 
L 154.335109 174.734325 
L 158.069345 172.241942 
L 161.80358 169.749559 
L 165.537816 167.257175 
L 169.272052 164.764792 
L 173.006288 162.272409 
L 176.740524 159.780025 
L 180.47476 157.287642 
L 184.208995 154.795258 
L 187.943231 152.302875 
L 191.677467 149.810492 
L 195.411703 147.318108 
L 199.145939 144.825725 
L 202.880175 142.333342 
L 206.61441 139.840958 
L 210.348646 137.348575 
L 214.082882 134.856192 
L 217.817118 132.363808 
L 221.551354 129.871425 
L 225.28559 127.379042 
L 229.019825 124.886658 
L 232.754061 122.394275 
L 236.488297 119.901892 
L 240.222533 117.409508 
L 243.956769 114.917125 
L 247.691005 112.424742 
L 251.42524 109.932358 
L 255.159476 107.439975 
L 258.893712 104.947591 
L 262.627948 102.455208 
L 266.362184 99.962825 
L 270.09642 97.470441 
L 273.830655 94.978058 
L 277.564891 92.485675 
L 281.299127 89.993291 
L 285.033363 87.500908 
L 288.767599 85.008525 
L 292.501835 82.516141 
L 296.23607 80.023758 
L 299.970306 77.531375 
L 303.704542 75.038991 
L 307.438778 72.546608 
L 311.173014 70.054225 
L 314.90725 67.561841 
L 318.641485 65.069458 
L 322.375721 62.577075 
L 326.109957 60.084691 
L 329.844193 57.592308 
L 333.578429 55.099925 
L 337.312665 52.607541 
L 341.046901 50.115158 
L 344.781136 47.622774 
L 348.515372 45.130391 
L 352.249608 42.638008 
L 355.983844 40.145624 
L 359.71808 37.653241 
L 363.452316 35.160858 
L 367.186551 32.668474 
L 370.920787 30.176091 
L 374.655023 27.683708 
L 378.389259 25.191324 
L 382.123495 22.698941 
L 385.857731 20.206558 
L 389.591966 17.714174 
L 393.326202 15.221791 
L 397.060438 12.729408 
L 400.794674 10.237024 
" style="fill:none;stroke:#009afa;stroke-linecap:round;"/>
   </g>
   <g id="patch_3">
    <path d="M 20.014646 264.385354 
L 20.014646 2.834646 
" style="fill:none;stroke:#000000;stroke-linecap:square;stroke-linejoin:miter;"/>
   </g>
   <g id="patch_4">
    <path d="M 20.014646 264.385354 
L 411.885354 264.385354 
" style="fill:none;stroke:#000000;stroke-linecap:square;stroke-linejoin:miter;"/>
   </g>
   <g id="legend_1">
    <g id="patch_5">
     <path d="M 25.614646 20.977146 
L 61.039646 20.977146 
Q 62.639646 20.977146 62.639646 19.377146 
L 62.639646 8.434646 
Q 62.639646 6.834646 61.039646 6.834646 
L 25.614646 6.834646 
Q 24.014646 6.834646 24.014646 8.434646 
L 24.014646 19.377146 
Q 24.014646 20.977146 25.614646 20.977146 
z
" style="fill:#ffffff;stroke:#000000;stroke-linejoin:miter;"/>
    </g>
    <g id="line2d_22">
     <path d="M 27.214646 13.313396 
L 43.214646 13.313396 
" style="fill:none;stroke:#009afa;stroke-linecap:square;"/>
    </g>
    <g id="line2d_23"/>
    <g id="text_11">
     <!-- y1 -->
     <defs>
      <path d="M 32.171875 -5.078125 
Q 28.375 -14.84375 24.75 -17.8125 
Q 21.140625 -20.796875 15.09375 -20.796875 
L 7.90625 -20.796875 
L 7.90625 -13.28125 
L 13.1875 -13.28125 
Q 16.890625 -13.28125 18.9375 -11.515625 
Q 21 -9.765625 23.484375 -3.21875 
L 25.09375 0.875 
L 2.984375 54.6875 
L 12.5 54.6875 
L 29.59375 11.921875 
L 46.6875 54.6875 
L 56.203125 54.6875 
z
" id="DejaVuSans-79"/>
     </defs>
     <g transform="translate(49.614646 16.113396)scale(0.08 -0.08)">
      <use xlink:href="#DejaVuSans-79"/>
      <use x="59.179688" xlink:href="#DejaVuSans-31"/>
     </g>
    </g>
   </g>
  </g>
 </g>
 <defs>
  <clipPath id="p0948cfbe87">
   <rect height="261.550709" width="391.870709" x="20.014646" y="2.834646"/>
  </clipPath>
 </defs>
</svg>
