<?xml version="1.0" encoding="utf-8"?>
<svg xmlns="http://www.w3.org/2000/svg" xmlns:xlink="http://www.w3.org/1999/xlink" width="576" height="384" viewBox="0 0 2304 1536">
<defs>
  <clipPath id="clip320">
    <rect x="0" y="0" width="2304" height="1536"/>
  </clipPath>
</defs>
<path clip-path="url(#clip320)" d="
M0 1536 L2304 1536 L2304 0 L0 0  Z
  " fill="#ffffff" fill-rule="evenodd" fill-opacity="1"/>
<defs>
  <clipPath id="clip321">
    <rect x="460" y="0" width="1614" height="1536"/>
  </clipPath>
</defs>
<path clip-path="url(#clip320)" d="
M237.17 1359.82 L2256.76 1359.82 L2256.76 123.472 L237.17 123.472  Z
  " fill="#ffffff" fill-rule="evenodd" fill-opacity="1"/>
<defs>
  <clipPath id="clip322">
    <rect x="237" y="123" width="2021" height="1237"/>
  </clipPath>
</defs>
<polyline clip-path="url(#clip322)" style="stroke:#000000; stroke-width:2; stroke-opacity:0.1; fill:none" points="
  294.328,1359.82 294.328,123.472 
  "/>
<polyline clip-path="url(#clip322)" style="stroke:#000000; stroke-width:2; stroke-opacity:0.1; fill:none" points="
  611.873,1359.82 611.873,123.472 
  "/>
<polyline clip-path="url(#clip322)" style="stroke:#000000; stroke-width:2; stroke-opacity:0.1; fill:none" points="
  929.418,1359.82 929.418,123.472 
  "/>
<polyline clip-path="url(#clip322)" style="stroke:#000000; stroke-width:2; stroke-opacity:0.1; fill:none" points="
  1246.96,1359.82 1246.96,123.472 
  "/>
<polyline clip-path="url(#clip322)" style="stroke:#000000; stroke-width:2; stroke-opacity:0.1; fill:none" points="
  1564.51,1359.82 1564.51,123.472 
  "/>
<polyline clip-path="url(#clip322)" style="stroke:#000000; stroke-width:2; stroke-opacity:0.1; fill:none" points="
  1882.05,1359.82 1882.05,123.472 
  "/>
<polyline clip-path="url(#clip322)" style="stroke:#000000; stroke-width:2; stroke-opacity:0.1; fill:none" points="
  2199.6,1359.82 2199.6,123.472 
  "/>
<polyline clip-path="url(#clip322)" style="stroke:#000000; stroke-width:2; stroke-opacity:0.1; fill:none" points="
  237.17,1321.71 2256.76,1321.71 
  "/>
<polyline clip-path="url(#clip322)" style="stroke:#000000; stroke-width:2; stroke-opacity:0.1; fill:none" points="
  237.17,1082.06 2256.76,1082.06 
  "/>
<polyline clip-path="url(#clip322)" style="stroke:#000000; stroke-width:2; stroke-opacity:0.1; fill:none" points="
  237.17,842.408 2256.76,842.408 
  "/>
<polyline clip-path="url(#clip322)" style="stroke:#000000; stroke-width:2; stroke-opacity:0.1; fill:none" points="
  237.17,602.756 2256.76,602.756 
  "/>
<polyline clip-path="url(#clip322)" style="stroke:#000000; stroke-width:2; stroke-opacity:0.1; fill:none" points="
  237.17,363.103 2256.76,363.103 
  "/>
<polyline clip-path="url(#clip320)" style="stroke:#000000; stroke-width:4; stroke-opacity:1; fill:none" points="
  237.17,1359.82 2256.76,1359.82 
  "/>
<polyline clip-path="url(#clip320)" style="stroke:#000000; stroke-width:4; stroke-opacity:1; fill:none" points="
  237.17,1359.82 237.17,123.472 
  "/>
<polyline clip-path="url(#clip320)" style="stroke:#000000; stroke-width:4; stroke-opacity:1; fill:none" points="
  294.328,1359.82 294.328,1344.98 
  "/>
<polyline clip-path="url(#clip320)" style="stroke:#000000; stroke-width:4; stroke-opacity:1; fill:none" points="
  611.873,1359.82 611.873,1344.98 
  "/>
<polyline clip-path="url(#clip320)" style="stroke:#000000; stroke-width:4; stroke-opacity:1; fill:none" points="
  929.418,1359.82 929.418,1344.98 
  "/>
<polyline clip-path="url(#clip320)" style="stroke:#000000; stroke-width:4; stroke-opacity:1; fill:none" points="
  1246.96,1359.82 1246.96,1344.98 
  "/>
<polyline clip-path="url(#clip320)" style="stroke:#000000; stroke-width:4; stroke-opacity:1; fill:none" points="
  1564.51,1359.82 1564.51,1344.98 
  "/>
<polyline clip-path="url(#clip320)" style="stroke:#000000; stroke-width:4; stroke-opacity:1; fill:none" points="
  1882.05,1359.82 1882.05,1344.98 
  "/>
<polyline clip-path="url(#clip320)" style="stroke:#000000; stroke-width:4; stroke-opacity:1; fill:none" points="
  2199.6,1359.82 2199.6,1344.98 
  "/>
<polyline clip-path="url(#clip320)" style="stroke:#000000; stroke-width:4; stroke-opacity:1; fill:none" points="
  237.17,1321.71 261.405,1321.71 
  "/>
<polyline clip-path="url(#clip320)" style="stroke:#000000; stroke-width:4; stroke-opacity:1; fill:none" points="
  237.17,1082.06 261.405,1082.06 
  "/>
<polyline clip-path="url(#clip320)" style="stroke:#000000; stroke-width:4; stroke-opacity:1; fill:none" points="
  237.17,842.408 261.405,842.408 
  "/>
<polyline clip-path="url(#clip320)" style="stroke:#000000; stroke-width:4; stroke-opacity:1; fill:none" points="
  237.17,602.756 261.405,602.756 
  "/>
<polyline clip-path="url(#clip320)" style="stroke:#000000; stroke-width:4; stroke-opacity:1; fill:none" points="
  237.17,363.103 261.405,363.103 
  "/>
<path clip-path="url(#clip320)" d="M 0 0 M274.907 1397.93 L287.384 1397.93 L287.384 1401.72 L274.907 1401.72 L274.907 1397.93 Z" fill="#000000" fill-rule="evenodd" fill-opacity="1" /><path clip-path="url(#clip320)" d="M 0 0 M306.62 1394.18 Q309.976 1394.9 311.851 1397.16 Q313.749 1399.43 313.749 1402.77 Q313.749 1407.88 310.231 1410.68 Q306.712 1413.48 300.231 1413.48 Q298.055 1413.48 295.74 1413.04 Q293.449 1412.63 290.995 1411.77 L290.995 1407.26 Q292.939 1408.39 295.254 1408.97 Q297.569 1409.55 300.092 1409.55 Q304.49 1409.55 306.782 1407.81 Q309.097 1406.08 309.097 1402.77 Q309.097 1399.71 306.944 1398 Q304.814 1396.26 300.995 1396.26 L296.967 1396.26 L296.967 1392.42 L301.18 1392.42 Q304.629 1392.42 306.458 1391.05 Q308.286 1389.66 308.286 1387.07 Q308.286 1384.41 306.388 1383 Q304.513 1381.56 300.995 1381.56 Q299.073 1381.56 296.874 1381.98 Q294.675 1382.4 292.036 1383.27 L292.036 1379.11 Q294.699 1378.37 297.013 1378 Q299.351 1377.63 301.411 1377.63 Q306.735 1377.63 309.837 1380.06 Q312.939 1382.46 312.939 1386.59 Q312.939 1389.46 311.296 1391.45 Q309.652 1393.41 306.62 1394.18 Z" fill="#000000" fill-rule="evenodd" fill-opacity="1" /><path clip-path="url(#clip320)" d="M 0 0 M592.926 1397.93 L605.403 1397.93 L605.403 1401.72 L592.926 1401.72 L592.926 1397.93 Z" fill="#000000" fill-rule="evenodd" fill-opacity="1" /><path clip-path="url(#clip320)" d="M 0 0 M614.5 1408.88 L630.82 1408.88 L630.82 1412.81 L608.875 1412.81 L608.875 1408.88 Q611.537 1406.12 616.121 1401.49 Q620.727 1396.84 621.908 1395.5 Q624.153 1392.97 625.033 1391.24 Q625.936 1389.48 625.936 1387.79 Q625.936 1385.03 623.991 1383.3 Q622.07 1381.56 618.968 1381.56 Q616.769 1381.56 614.315 1382.33 Q611.885 1383.09 609.107 1384.64 L609.107 1379.92 Q611.931 1378.78 614.385 1378.21 Q616.838 1377.63 618.875 1377.63 Q624.246 1377.63 627.44 1380.31 Q630.635 1383 630.635 1387.49 Q630.635 1389.62 629.824 1391.54 Q629.037 1393.44 626.931 1396.03 Q626.352 1396.7 623.25 1399.92 Q620.149 1403.11 614.5 1408.88 Z" fill="#000000" fill-rule="evenodd" fill-opacity="1" /><path clip-path="url(#clip320)" d="M 0 0 M910.286 1397.93 L922.763 1397.93 L922.763 1401.72 L910.286 1401.72 L910.286 1397.93 Z" fill="#000000" fill-rule="evenodd" fill-opacity="1" /><path clip-path="url(#clip320)" d="M 0 0 M928.643 1408.88 L936.281 1408.88 L936.281 1382.51 L927.971 1384.18 L927.971 1379.92 L936.235 1378.25 L940.911 1378.25 L940.911 1408.88 L948.55 1408.88 L948.55 1412.81 L928.643 1412.81 L928.643 1408.88 Z" fill="#000000" fill-rule="evenodd" fill-opacity="1" /><path clip-path="url(#clip320)" d="M 0 0 M1246.96 1381.33 Q1243.35 1381.33 1241.52 1384.9 Q1239.72 1388.44 1239.72 1395.57 Q1239.72 1402.67 1241.52 1406.24 Q1243.35 1409.78 1246.96 1409.78 Q1250.6 1409.78 1252.4 1406.24 Q1254.23 1402.67 1254.23 1395.57 Q1254.23 1388.44 1252.4 1384.9 Q1250.6 1381.33 1246.96 1381.33 M1246.96 1377.63 Q1252.77 1377.63 1255.83 1382.23 Q1258.91 1386.82 1258.91 1395.57 Q1258.91 1404.29 1255.83 1408.9 Q1252.77 1413.48 1246.96 1413.48 Q1241.15 1413.48 1238.07 1408.9 Q1235.02 1404.29 1235.02 1395.57 Q1235.02 1386.82 1238.07 1382.23 Q1241.15 1377.63 1246.96 1377.63 Z" fill="#000000" fill-rule="evenodd" fill-opacity="1" /><path clip-path="url(#clip320)" d="M 0 0 M1554.89 1408.88 L1562.53 1408.88 L1562.53 1382.51 L1554.22 1384.18 L1554.22 1379.92 L1562.48 1378.25 L1567.16 1378.25 L1567.16 1408.88 L1574.8 1408.88 L1574.8 1412.81 L1554.89 1412.81 L1554.89 1408.88 Z" fill="#000000" fill-rule="evenodd" fill-opacity="1" /><path clip-path="url(#clip320)" d="M 0 0 M1876.71 1408.88 L1893.03 1408.88 L1893.03 1412.81 L1871.08 1412.81 L1871.08 1408.88 Q1873.74 1406.12 1878.33 1401.49 Q1882.93 1396.84 1884.11 1395.5 Q1886.36 1392.97 1887.24 1391.24 Q1888.14 1389.48 1888.14 1387.79 Q1888.14 1385.03 1886.2 1383.3 Q1884.28 1381.56 1881.17 1381.56 Q1878.97 1381.56 1876.52 1382.33 Q1874.09 1383.09 1871.31 1384.64 L1871.31 1379.92 Q1874.14 1378.78 1876.59 1378.21 Q1879.04 1377.63 1881.08 1377.63 Q1886.45 1377.63 1889.65 1380.31 Q1892.84 1383 1892.84 1387.49 Q1892.84 1389.62 1892.03 1391.54 Q1891.24 1393.44 1889.14 1396.03 Q1888.56 1396.7 1885.46 1399.92 Q1882.35 1403.11 1876.71 1408.88 Z" fill="#000000" fill-rule="evenodd" fill-opacity="1" /><path clip-path="url(#clip320)" d="M 0 0 M2203.85 1394.18 Q2207.2 1394.9 2209.08 1397.16 Q2210.98 1399.43 2210.98 1402.77 Q2210.98 1407.88 2207.46 1410.68 Q2203.94 1413.48 2197.46 1413.48 Q2195.28 1413.48 2192.97 1413.04 Q2190.67 1412.63 2188.22 1411.77 L2188.22 1407.26 Q2190.16 1408.39 2192.48 1408.97 Q2194.79 1409.55 2197.32 1409.55 Q2201.72 1409.55 2204.01 1407.81 Q2206.32 1406.08 2206.32 1402.77 Q2206.32 1399.71 2204.17 1398 Q2202.04 1396.26 2198.22 1396.26 L2194.19 1396.26 L2194.19 1392.42 L2198.41 1392.42 Q2201.85 1392.42 2203.68 1391.05 Q2205.51 1389.66 2205.51 1387.07 Q2205.51 1384.41 2203.61 1383 Q2201.74 1381.56 2198.22 1381.56 Q2196.3 1381.56 2194.1 1381.98 Q2191.9 1382.4 2189.26 1383.27 L2189.26 1379.11 Q2191.92 1378.37 2194.24 1378 Q2196.58 1377.63 2198.64 1377.63 Q2203.96 1377.63 2207.06 1380.06 Q2210.16 1382.46 2210.16 1386.59 Q2210.16 1389.46 2208.52 1391.45 Q2206.88 1393.41 2203.85 1394.18 Z" fill="#000000" fill-rule="evenodd" fill-opacity="1" /><path clip-path="url(#clip320)" d="M 0 0 M138.205 1307.51 Q134.593 1307.51 132.765 1311.08 Q130.959 1314.62 130.959 1321.75 Q130.959 1328.85 132.765 1332.42 Q134.593 1335.96 138.205 1335.96 Q141.839 1335.96 143.644 1332.42 Q145.473 1328.85 145.473 1321.75 Q145.473 1314.62 143.644 1311.08 Q141.839 1307.51 138.205 1307.51 M138.205 1303.81 Q144.015 1303.81 147.07 1308.41 Q150.149 1313 150.149 1321.75 Q150.149 1330.47 147.07 1335.08 Q144.015 1339.66 138.205 1339.66 Q132.394 1339.66 129.316 1335.08 Q126.26 1330.47 126.26 1321.75 Q126.26 1313 129.316 1308.41 Q132.394 1303.81 138.205 1303.81 Z" fill="#000000" fill-rule="evenodd" fill-opacity="1" /><path clip-path="url(#clip320)" d="M 0 0 M155.218 1333.11 L160.103 1333.11 L160.103 1338.99 L155.218 1338.99 L155.218 1333.11 Z" fill="#000000" fill-rule="evenodd" fill-opacity="1" /><path clip-path="url(#clip320)" d="M 0 0 M175.172 1307.51 Q171.561 1307.51 169.732 1311.08 Q167.927 1314.62 167.927 1321.75 Q167.927 1328.85 169.732 1332.42 Q171.561 1335.96 175.172 1335.96 Q178.806 1335.96 180.612 1332.42 Q182.44 1328.85 182.44 1321.75 Q182.44 1314.62 180.612 1311.08 Q178.806 1307.51 175.172 1307.51 M175.172 1303.81 Q180.982 1303.81 184.038 1308.41 Q187.116 1313 187.116 1321.75 Q187.116 1330.47 184.038 1335.08 Q180.982 1339.66 175.172 1339.66 Q169.362 1339.66 166.283 1335.08 Q163.228 1330.47 163.228 1321.75 Q163.228 1313 166.283 1308.41 Q169.362 1303.81 175.172 1303.81 Z" fill="#000000" fill-rule="evenodd" fill-opacity="1" /><path clip-path="url(#clip320)" d="M 0 0 M202.186 1307.51 Q198.575 1307.51 196.746 1311.08 Q194.94 1314.62 194.94 1321.75 Q194.94 1328.85 196.746 1332.42 Q198.575 1335.96 202.186 1335.96 Q205.82 1335.96 207.625 1332.42 Q209.454 1328.85 209.454 1321.75 Q209.454 1314.62 207.625 1311.08 Q205.82 1307.51 202.186 1307.51 M202.186 1303.81 Q207.996 1303.81 211.051 1308.41 Q214.13 1313 214.13 1321.75 Q214.13 1330.47 211.051 1335.08 Q207.996 1339.66 202.186 1339.66 Q196.376 1339.66 193.297 1335.08 Q190.241 1330.47 190.241 1321.75 Q190.241 1313 193.297 1308.41 Q196.376 1303.81 202.186 1303.81 Z" fill="#000000" fill-rule="evenodd" fill-opacity="1" /><path clip-path="url(#clip320)" d="M 0 0 M140.797 1067.86 Q137.186 1067.86 135.357 1071.42 Q133.552 1074.97 133.552 1082.1 Q133.552 1089.2 135.357 1092.77 Q137.186 1096.31 140.797 1096.31 Q144.431 1096.31 146.237 1092.77 Q148.066 1089.2 148.066 1082.1 Q148.066 1074.97 146.237 1071.42 Q144.431 1067.86 140.797 1067.86 M140.797 1064.16 Q146.607 1064.16 149.663 1068.76 Q152.741 1073.35 152.741 1082.1 Q152.741 1090.82 149.663 1095.43 Q146.607 1100.01 140.797 1100.01 Q134.987 1100.01 131.908 1095.43 Q128.853 1090.82 128.853 1082.1 Q128.853 1073.35 131.908 1068.76 Q134.987 1064.16 140.797 1064.16 Z" fill="#000000" fill-rule="evenodd" fill-opacity="1" /><path clip-path="url(#clip320)" d="M 0 0 M157.811 1093.46 L162.695 1093.46 L162.695 1099.34 L157.811 1099.34 L157.811 1093.46 Z" fill="#000000" fill-rule="evenodd" fill-opacity="1" /><path clip-path="url(#clip320)" d="M 0 0 M171.792 1095.41 L188.112 1095.41 L188.112 1099.34 L166.167 1099.34 L166.167 1095.41 Q168.829 1092.65 173.413 1088.02 Q178.019 1083.37 179.2 1082.03 Q181.445 1079.5 182.325 1077.77 Q183.227 1076.01 183.227 1074.32 Q183.227 1071.56 181.283 1069.83 Q179.362 1068.09 176.26 1068.09 Q174.061 1068.09 171.607 1068.85 Q169.177 1069.62 166.399 1071.17 L166.399 1066.45 Q169.223 1065.31 171.677 1064.73 Q174.13 1064.16 176.167 1064.16 Q181.538 1064.16 184.732 1066.84 Q187.926 1069.53 187.926 1074.02 Q187.926 1076.15 187.116 1078.07 Q186.329 1079.97 184.223 1082.56 Q183.644 1083.23 180.542 1086.45 Q177.44 1089.64 171.792 1095.41 Z" fill="#000000" fill-rule="evenodd" fill-opacity="1" /><path clip-path="url(#clip320)" d="M 0 0 M193.227 1064.78 L211.584 1064.78 L211.584 1068.72 L197.51 1068.72 L197.51 1077.19 Q198.528 1076.84 199.547 1076.68 Q200.565 1076.49 201.584 1076.49 Q207.371 1076.49 210.75 1079.66 Q214.13 1082.84 214.13 1088.25 Q214.13 1093.83 210.658 1096.93 Q207.186 1100.01 200.866 1100.01 Q198.69 1100.01 196.422 1099.64 Q194.176 1099.27 191.769 1098.53 L191.769 1093.83 Q193.852 1094.97 196.075 1095.52 Q198.297 1096.08 200.774 1096.08 Q204.778 1096.08 207.116 1093.97 Q209.454 1091.86 209.454 1088.25 Q209.454 1084.64 207.116 1082.54 Q204.778 1080.43 200.774 1080.43 Q198.899 1080.43 197.024 1080.85 Q195.172 1081.26 193.227 1082.14 L193.227 1064.78 Z" fill="#000000" fill-rule="evenodd" fill-opacity="1" /><path clip-path="url(#clip320)" d="M 0 0 M139.2 828.207 Q135.589 828.207 133.76 831.772 Q131.955 835.313 131.955 842.443 Q131.955 849.549 133.76 853.114 Q135.589 856.656 139.2 856.656 Q142.834 856.656 144.64 853.114 Q146.468 849.549 146.468 842.443 Q146.468 835.313 144.64 831.772 Q142.834 828.207 139.2 828.207 M139.2 824.503 Q145.01 824.503 148.066 829.11 Q151.144 833.693 151.144 842.443 Q151.144 851.17 148.066 855.776 Q145.01 860.359 139.2 860.359 Q133.39 860.359 130.311 855.776 Q127.256 851.17 127.256 842.443 Q127.256 833.693 130.311 829.11 Q133.39 824.503 139.2 824.503 Z" fill="#000000" fill-rule="evenodd" fill-opacity="1" /><path clip-path="url(#clip320)" d="M 0 0 M156.214 853.809 L161.098 853.809 L161.098 859.688 L156.214 859.688 L156.214 853.809 Z" fill="#000000" fill-rule="evenodd" fill-opacity="1" /><path clip-path="url(#clip320)" d="M 0 0 M166.214 825.128 L184.57 825.128 L184.57 829.063 L170.496 829.063 L170.496 837.535 Q171.515 837.188 172.533 837.026 Q173.552 836.841 174.57 836.841 Q180.357 836.841 183.737 840.012 Q187.116 843.184 187.116 848.6 Q187.116 854.179 183.644 857.281 Q180.172 860.359 173.852 860.359 Q171.677 860.359 169.408 859.989 Q167.163 859.619 164.755 858.878 L164.755 854.179 Q166.839 855.313 169.061 855.869 Q171.283 856.424 173.76 856.424 Q177.765 856.424 180.102 854.318 Q182.44 852.211 182.44 848.6 Q182.44 844.989 180.102 842.883 Q177.765 840.776 173.76 840.776 Q171.885 840.776 170.01 841.193 Q168.158 841.61 166.214 842.489 L166.214 825.128 Z" fill="#000000" fill-rule="evenodd" fill-opacity="1" /><path clip-path="url(#clip320)" d="M 0 0 M202.186 828.207 Q198.575 828.207 196.746 831.772 Q194.94 835.313 194.94 842.443 Q194.94 849.549 196.746 853.114 Q198.575 856.656 202.186 856.656 Q205.82 856.656 207.625 853.114 Q209.454 849.549 209.454 842.443 Q209.454 835.313 207.625 831.772 Q205.82 828.207 202.186 828.207 M202.186 824.503 Q207.996 824.503 211.051 829.11 Q214.13 833.693 214.13 842.443 Q214.13 851.17 211.051 855.776 Q207.996 860.359 202.186 860.359 Q196.376 860.359 193.297 855.776 Q190.241 851.17 190.241 842.443 Q190.241 833.693 193.297 829.11 Q196.376 824.503 202.186 824.503 Z" fill="#000000" fill-rule="evenodd" fill-opacity="1" /><path clip-path="url(#clip320)" d="M 0 0 M140.103 588.554 Q136.492 588.554 134.663 592.119 Q132.857 595.661 132.857 602.79 Q132.857 609.897 134.663 613.462 Q136.492 617.003 140.103 617.003 Q143.737 617.003 145.542 613.462 Q147.371 609.897 147.371 602.79 Q147.371 595.661 145.542 592.119 Q143.737 588.554 140.103 588.554 M140.103 584.851 Q145.913 584.851 148.968 589.457 Q152.047 594.04 152.047 602.79 Q152.047 611.517 148.968 616.124 Q145.913 620.707 140.103 620.707 Q134.293 620.707 131.214 616.124 Q128.158 611.517 128.158 602.79 Q128.158 594.04 131.214 589.457 Q134.293 584.851 140.103 584.851 Z" fill="#000000" fill-rule="evenodd" fill-opacity="1" /><path clip-path="url(#clip320)" d="M 0 0 M157.116 614.156 L162.001 614.156 L162.001 620.036 L157.116 620.036 L157.116 614.156 Z" fill="#000000" fill-rule="evenodd" fill-opacity="1" /><path clip-path="url(#clip320)" d="M 0 0 M165.89 585.476 L188.112 585.476 L188.112 587.466 L175.565 620.036 L170.681 620.036 L182.487 589.411 L165.89 589.411 L165.89 585.476 Z" fill="#000000" fill-rule="evenodd" fill-opacity="1" /><path clip-path="url(#clip320)" d="M 0 0 M193.227 585.476 L211.584 585.476 L211.584 589.411 L197.51 589.411 L197.51 597.883 Q198.528 597.536 199.547 597.374 Q200.565 597.189 201.584 597.189 Q207.371 597.189 210.75 600.36 Q214.13 603.531 214.13 608.948 Q214.13 614.526 210.658 617.628 Q207.186 620.707 200.866 620.707 Q198.69 620.707 196.422 620.337 Q194.176 619.966 191.769 619.226 L191.769 614.526 Q193.852 615.661 196.075 616.216 Q198.297 616.772 200.774 616.772 Q204.778 616.772 207.116 614.665 Q209.454 612.559 209.454 608.948 Q209.454 605.337 207.116 603.23 Q204.778 601.124 200.774 601.124 Q198.899 601.124 197.024 601.54 Q195.172 601.957 193.227 602.837 L193.227 585.476 Z" fill="#000000" fill-rule="evenodd" fill-opacity="1" /><path clip-path="url(#clip320)" d="M 0 0 M130.242 376.448 L137.88 376.448 L137.88 350.083 L129.57 351.749 L129.57 347.49 L137.834 345.823 L142.51 345.823 L142.51 376.448 L150.149 376.448 L150.149 380.383 L130.242 380.383 L130.242 376.448 Z" fill="#000000" fill-rule="evenodd" fill-opacity="1" /><path clip-path="url(#clip320)" d="M 0 0 M155.218 374.504 L160.103 374.504 L160.103 380.383 L155.218 380.383 L155.218 374.504 Z" fill="#000000" fill-rule="evenodd" fill-opacity="1" /><path clip-path="url(#clip320)" d="M 0 0 M175.172 348.902 Q171.561 348.902 169.732 352.467 Q167.927 356.008 167.927 363.138 Q167.927 370.244 169.732 373.809 Q171.561 377.351 175.172 377.351 Q178.806 377.351 180.612 373.809 Q182.44 370.244 182.44 363.138 Q182.44 356.008 180.612 352.467 Q178.806 348.902 175.172 348.902 M175.172 345.198 Q180.982 345.198 184.038 349.805 Q187.116 354.388 187.116 363.138 Q187.116 371.865 184.038 376.471 Q180.982 381.055 175.172 381.055 Q169.362 381.055 166.283 376.471 Q163.228 371.865 163.228 363.138 Q163.228 354.388 166.283 349.805 Q169.362 345.198 175.172 345.198 Z" fill="#000000" fill-rule="evenodd" fill-opacity="1" /><path clip-path="url(#clip320)" d="M 0 0 M202.186 348.902 Q198.575 348.902 196.746 352.467 Q194.94 356.008 194.94 363.138 Q194.94 370.244 196.746 373.809 Q198.575 377.351 202.186 377.351 Q205.82 377.351 207.625 373.809 Q209.454 370.244 209.454 363.138 Q209.454 356.008 207.625 352.467 Q205.82 348.902 202.186 348.902 M202.186 345.198 Q207.996 345.198 211.051 349.805 Q214.13 354.388 214.13 363.138 Q214.13 371.865 211.051 376.471 Q207.996 381.055 202.186 381.055 Q196.376 381.055 193.297 376.471 Q190.241 371.865 190.241 363.138 Q190.241 354.388 193.297 349.805 Q196.376 345.198 202.186 345.198 Z" fill="#000000" fill-rule="evenodd" fill-opacity="1" /><path clip-path="url(#clip320)" d="M 0 0 M509.962 14.0809 L509.962 22.0612 Q505.303 19.8332 501.171 18.7395 Q497.039 17.6457 493.191 17.6457 Q486.507 17.6457 482.861 20.2383 Q479.256 22.8309 479.256 27.611 Q479.256 31.6214 481.646 33.6873 Q484.076 35.7128 490.801 36.9686 L495.743 37.9813 Q504.898 39.7232 509.233 44.1387 Q513.608 48.5136 513.608 55.8863 Q513.608 64.6767 507.693 69.2137 Q501.819 73.7508 490.436 73.7508 Q486.142 73.7508 481.281 72.7785 Q476.461 71.8063 471.276 69.9024 L471.276 61.4765 Q476.258 64.2716 481.038 65.6895 Q485.818 67.1073 490.436 67.1073 Q497.444 67.1073 501.252 64.3527 Q505.06 61.598 505.06 56.4939 Q505.06 52.0379 502.306 49.5264 Q499.591 47.0148 493.353 45.759 L488.37 44.7868 Q479.215 42.9639 475.124 39.075 Q471.033 35.1862 471.033 28.2591 Q471.033 20.2383 476.663 15.6203 Q482.335 11.0023 492.259 11.0023 Q496.513 11.0023 500.928 11.7719 Q505.344 12.5416 509.962 14.0809 Z" fill="#000000" fill-rule="evenodd" fill-opacity="1" /><path clip-path="url(#clip320)" d="M 0 0 M539.007 32.4315 Q533.011 32.4315 529.528 37.1306 Q526.044 41.7891 526.044 49.9314 Q526.044 58.0738 529.487 62.7728 Q532.971 67.4314 539.007 67.4314 Q544.962 67.4314 548.445 62.7323 Q551.929 58.0333 551.929 49.9314 Q551.929 41.8701 548.445 37.1711 Q544.962 32.4315 539.007 32.4315 M539.007 26.1121 Q548.729 26.1121 554.279 32.4315 Q559.828 38.7509 559.828 49.9314 Q559.828 61.0714 554.279 67.4314 Q548.729 73.7508 539.007 73.7508 Q529.244 73.7508 523.694 67.4314 Q518.185 61.0714 518.185 49.9314 Q518.185 38.7509 523.694 32.4315 Q529.244 26.1121 539.007 26.1121 Z" fill="#000000" fill-rule="evenodd" fill-opacity="1" /><path clip-path="url(#clip320)" d="M 0 0 M567.647 9.54393 L575.1 9.54393 L575.1 72.576 L567.647 72.576 L567.647 9.54393 Z" fill="#000000" fill-rule="evenodd" fill-opacity="1" /><path clip-path="url(#clip320)" d="M 0 0 M582.149 54.671 L582.149 27.2059 L589.602 27.2059 L589.602 54.3874 Q589.602 60.8284 592.114 64.0691 Q594.626 67.2693 599.649 67.2693 Q605.685 67.2693 609.168 63.421 Q612.693 59.5726 612.693 52.9291 L612.693 27.2059 L620.146 27.2059 L620.146 72.576 L612.693 72.576 L612.693 65.6084 Q609.979 69.7404 606.373 71.7658 Q602.808 73.7508 598.069 73.7508 Q590.251 73.7508 586.2 68.8897 Q582.149 64.0286 582.149 54.671 M600.905 26.1121 L600.905 26.1121 Z" fill="#000000" fill-rule="evenodd" fill-opacity="1" /><path clip-path="url(#clip320)" d="M 0 0 M635.337 14.324 L635.337 27.2059 L650.69 27.2059 L650.69 32.9987 L635.337 32.9987 L635.337 57.6282 Q635.337 63.1779 636.836 64.7578 Q638.375 66.3376 643.034 66.3376 L650.69 66.3376 L650.69 72.576 L643.034 72.576 Q634.405 72.576 631.124 69.3758 Q627.843 66.1351 627.843 57.6282 L627.843 32.9987 L622.374 32.9987 L622.374 27.2059 L627.843 27.2059 L627.843 14.324 L635.337 14.324 Z" fill="#000000" fill-rule="evenodd" fill-opacity="1" /><path clip-path="url(#clip320)" d="M 0 0 M658.508 27.2059 L665.962 27.2059 L665.962 72.576 L658.508 72.576 L658.508 27.2059 M658.508 9.54393 L665.962 9.54393 L665.962 18.9825 L658.508 18.9825 L658.508 9.54393 Z" fill="#000000" fill-rule="evenodd" fill-opacity="1" /><path clip-path="url(#clip320)" d="M 0 0 M691.361 32.4315 Q685.366 32.4315 681.882 37.1306 Q678.398 41.7891 678.398 49.9314 Q678.398 58.0738 681.842 62.7728 Q685.325 67.4314 691.361 67.4314 Q697.316 67.4314 700.8 62.7323 Q704.284 58.0333 704.284 49.9314 Q704.284 41.8701 700.8 37.1711 Q697.316 32.4315 691.361 32.4315 M691.361 26.1121 Q701.083 26.1121 706.633 32.4315 Q712.183 38.7509 712.183 49.9314 Q712.183 61.0714 706.633 67.4314 Q701.083 73.7508 691.361 73.7508 Q681.599 73.7508 676.049 67.4314 Q670.54 61.0714 670.54 49.9314 Q670.54 38.7509 676.049 32.4315 Q681.599 26.1121 691.361 26.1121 Z" fill="#000000" fill-rule="evenodd" fill-opacity="1" /><path clip-path="url(#clip320)" d="M 0 0 M757.715 45.1919 L757.715 72.576 L750.261 72.576 L750.261 45.4349 Q750.261 38.994 747.75 35.7938 Q745.238 32.5936 740.215 32.5936 Q734.179 32.5936 730.695 36.4419 Q727.212 40.2903 727.212 46.9338 L727.212 72.576 L719.718 72.576 L719.718 27.2059 L727.212 27.2059 L727.212 34.2544 Q729.885 30.163 733.491 28.1376 Q737.136 26.1121 741.876 26.1121 Q749.694 26.1121 753.705 30.9732 Q757.715 35.7938 757.715 45.1919 Z" fill="#000000" fill-rule="evenodd" fill-opacity="1" /><path clip-path="url(#clip320)" d="M 0 0 M799.277 14.324 L799.277 27.2059 L814.63 27.2059 L814.63 32.9987 L799.277 32.9987 L799.277 57.6282 Q799.277 63.1779 800.776 64.7578 Q802.315 66.3376 806.974 66.3376 L814.63 66.3376 L814.63 72.576 L806.974 72.576 Q798.346 72.576 795.064 69.3758 Q791.783 66.1351 791.783 57.6282 L791.783 32.9987 L786.314 32.9987 L786.314 27.2059 L791.783 27.2059 L791.783 14.324 L799.277 14.324 Z" fill="#000000" fill-rule="evenodd" fill-opacity="1" /><path clip-path="url(#clip320)" d="M 0 0 M840.029 32.4315 Q834.034 32.4315 830.55 37.1306 Q827.067 41.7891 827.067 49.9314 Q827.067 58.0738 830.51 62.7728 Q833.994 67.4314 840.029 67.4314 Q845.984 67.4314 849.468 62.7323 Q852.952 58.0333 852.952 49.9314 Q852.952 41.8701 849.468 37.1711 Q845.984 32.4315 840.029 32.4315 M840.029 26.1121 Q849.752 26.1121 855.301 32.4315 Q860.851 38.7509 860.851 49.9314 Q860.851 61.0714 855.301 67.4314 Q849.752 73.7508 840.029 73.7508 Q830.267 73.7508 824.717 67.4314 Q819.208 61.0714 819.208 49.9314 Q819.208 38.7509 824.717 32.4315 Q830.267 26.1121 840.029 26.1121 Z" fill="#000000" fill-rule="evenodd" fill-opacity="1" /><path clip-path="url(#clip320)" d="M 0 0 M902.413 14.324 L902.413 27.2059 L917.766 27.2059 L917.766 32.9987 L902.413 32.9987 L902.413 57.6282 Q902.413 63.1779 903.912 64.7578 Q905.452 66.3376 910.11 66.3376 L917.766 66.3376 L917.766 72.576 L910.11 72.576 Q901.482 72.576 898.2 69.3758 Q894.919 66.1351 894.919 57.6282 L894.919 32.9987 L889.45 32.9987 L889.45 27.2059 L894.919 27.2059 L894.919 14.324 L902.413 14.324 Z" fill="#000000" fill-rule="evenodd" fill-opacity="1" /><path clip-path="url(#clip320)" d="M 0 0 M963.298 45.1919 L963.298 72.576 L955.845 72.576 L955.845 45.4349 Q955.845 38.994 953.333 35.7938 Q950.822 32.5936 945.799 32.5936 Q939.763 32.5936 936.279 36.4419 Q932.795 40.2903 932.795 46.9338 L932.795 72.576 L925.301 72.576 L925.301 9.54393 L932.795 9.54393 L932.795 34.2544 Q935.469 30.163 939.074 28.1376 Q942.72 26.1121 947.459 26.1121 Q955.278 26.1121 959.288 30.9732 Q963.298 35.7938 963.298 45.1919 Z" fill="#000000" fill-rule="evenodd" fill-opacity="1" /><path clip-path="url(#clip320)" d="M 0 0 M1009.92 48.0275 L1009.92 51.6733 L975.654 51.6733 Q976.14 59.3701 980.272 63.421 Q984.444 67.4314 991.857 67.4314 Q996.151 67.4314 1000.16 66.3781 Q1004.21 65.3249 1008.18 63.2184 L1008.18 70.267 Q1004.17 71.9684 999.959 72.8596 Q995.746 73.7508 991.412 73.7508 Q980.555 73.7508 974.195 67.4314 Q967.876 61.1119 967.876 50.3365 Q967.876 39.1965 973.871 32.6746 Q979.907 26.1121 990.115 26.1121 Q999.27 26.1121 1004.58 32.0264 Q1009.92 37.9003 1009.92 48.0275 M1002.47 45.84 Q1002.39 39.7232 999.027 36.0774 Q995.706 32.4315 990.196 32.4315 Q983.958 32.4315 980.191 35.9558 Q976.464 39.4801 975.897 45.8805 L1002.47 45.84 Z" fill="#000000" fill-rule="evenodd" fill-opacity="1" /><path clip-path="url(#clip320)" d="M 0 0 M1044.11 9.54393 L1051.57 9.54393 L1051.57 72.576 L1044.11 72.576 L1044.11 9.54393 Z" fill="#000000" fill-rule="evenodd" fill-opacity="1" /><path clip-path="url(#clip320)" d="M 0 0 M1059.39 27.2059 L1066.84 27.2059 L1066.84 72.576 L1059.39 72.576 L1059.39 27.2059 M1059.39 9.54393 L1066.84 9.54393 L1066.84 18.9825 L1059.39 18.9825 L1059.39 9.54393 Z" fill="#000000" fill-rule="evenodd" fill-opacity="1" /><path clip-path="url(#clip320)" d="M 0 0 M1112.37 45.1919 L1112.37 72.576 L1104.92 72.576 L1104.92 45.4349 Q1104.92 38.994 1102.41 35.7938 Q1099.89 32.5936 1094.87 32.5936 Q1088.84 32.5936 1085.35 36.4419 Q1081.87 40.2903 1081.87 46.9338 L1081.87 72.576 L1074.37 72.576 L1074.37 27.2059 L1081.87 27.2059 L1081.87 34.2544 Q1084.54 30.163 1088.15 28.1376 Q1091.79 26.1121 1096.53 26.1121 Q1104.35 26.1121 1108.36 30.9732 Q1112.37 35.7938 1112.37 45.1919 Z" fill="#000000" fill-rule="evenodd" fill-opacity="1" /><path clip-path="url(#clip320)" d="M 0 0 M1159 48.0275 L1159 51.6733 L1124.73 51.6733 Q1125.21 59.3701 1129.34 63.421 Q1133.52 67.4314 1140.93 67.4314 Q1145.22 67.4314 1149.23 66.3781 Q1153.29 65.3249 1157.26 63.2184 L1157.26 70.267 Q1153.25 71.9684 1149.03 72.8596 Q1144.82 73.7508 1140.48 73.7508 Q1129.63 73.7508 1123.27 67.4314 Q1116.95 61.1119 1116.95 50.3365 Q1116.95 39.1965 1122.94 32.6746 Q1128.98 26.1121 1139.19 26.1121 Q1148.34 26.1121 1153.65 32.0264 Q1159 37.9003 1159 48.0275 M1151.54 45.84 Q1151.46 39.7232 1148.1 36.0774 Q1144.78 32.4315 1139.27 32.4315 Q1133.03 32.4315 1129.26 35.9558 Q1125.54 39.4801 1124.97 45.8805 L1151.54 45.84 Z" fill="#000000" fill-rule="evenodd" fill-opacity="1" /><path clip-path="url(#clip320)" d="M 0 0 M1187.43 49.7694 Q1178.4 49.7694 1174.92 51.8354 Q1171.43 53.9013 1171.43 58.8839 Q1171.43 62.8538 1174.03 65.2034 Q1176.66 67.5124 1181.16 67.5124 Q1187.35 67.5124 1191.08 63.1374 Q1194.85 58.7219 1194.85 51.4303 L1194.85 49.7694 L1187.43 49.7694 M1202.3 46.6907 L1202.3 72.576 L1194.85 72.576 L1194.85 65.6895 Q1192.3 69.8214 1188.49 71.8063 Q1184.68 73.7508 1179.17 73.7508 Q1172.2 73.7508 1168.07 69.8619 Q1163.98 65.9325 1163.98 59.3701 Q1163.98 51.7138 1169.08 47.825 Q1174.23 43.9361 1184.4 43.9361 L1194.85 43.9361 L1194.85 43.2069 Q1194.85 38.0623 1191.45 35.2672 Q1188.08 32.4315 1181.97 32.4315 Q1178.08 32.4315 1174.39 33.3632 Q1170.7 34.295 1167.3 36.1584 L1167.3 29.2718 Q1171.39 27.692 1175.24 26.9223 Q1179.09 26.1121 1182.74 26.1121 Q1192.58 26.1121 1197.44 31.2163 Q1202.3 36.3204 1202.3 46.6907 Z" fill="#000000" fill-rule="evenodd" fill-opacity="1" /><path clip-path="url(#clip320)" d="M 0 0 M1236.41 34.1734 Q1235.15 33.4443 1233.66 33.1202 Q1232.2 32.7556 1230.42 32.7556 Q1224.1 32.7556 1220.69 36.8875 Q1217.33 40.9789 1217.33 48.6757 L1217.33 72.576 L1209.84 72.576 L1209.84 27.2059 L1217.33 27.2059 L1217.33 34.2544 Q1219.68 30.1225 1223.45 28.1376 Q1227.21 26.1121 1232.6 26.1121 Q1233.37 26.1121 1234.3 26.2337 Q1235.24 26.3147 1236.37 26.5172 L1236.41 34.1734 Z" fill="#000000" fill-rule="evenodd" fill-opacity="1" /><path clip-path="url(#clip320)" d="M 0 0 M1279.11 18.8205 L1279.11 41.5461 L1289.4 41.5461 Q1295.11 41.5461 1298.23 38.5889 Q1301.35 35.6318 1301.35 30.163 Q1301.35 24.7348 1298.23 21.7777 Q1295.11 18.8205 1289.4 18.8205 L1279.11 18.8205 M1270.92 12.096 L1289.4 12.096 Q1299.56 12.096 1304.75 16.714 Q1309.97 21.2916 1309.97 30.163 Q1309.97 39.1155 1304.75 43.6931 Q1299.56 48.2706 1289.4 48.2706 L1279.11 48.2706 L1279.11 72.576 L1270.92 72.576 L1270.92 12.096 Z" fill="#000000" fill-rule="evenodd" fill-opacity="1" /><path clip-path="url(#clip320)" d="M 0 0 M1326.3 18.8205 L1326.3 65.8515 L1336.18 65.8515 Q1348.7 65.8515 1354.49 60.1802 Q1360.33 54.509 1360.33 42.2752 Q1360.33 30.1225 1354.49 24.4918 Q1348.7 18.8205 1336.18 18.8205 L1326.3 18.8205 M1318.12 12.096 L1334.93 12.096 Q1352.51 12.096 1360.73 19.4281 Q1368.96 26.7198 1368.96 42.2752 Q1368.96 57.9117 1360.69 65.2439 Q1352.43 72.576 1334.93 72.576 L1318.12 72.576 L1318.12 12.096 Z" fill="#000000" fill-rule="evenodd" fill-opacity="1" /><path clip-path="url(#clip320)" d="M 0 0 M1377.1 12.096 L1415.34 12.096 L1415.34 18.9825 L1385.28 18.9825 L1385.28 36.8875 L1414.08 36.8875 L1414.08 43.7741 L1385.28 43.7741 L1385.28 65.6895 L1416.07 65.6895 L1416.07 72.576 L1377.1 72.576 L1377.1 12.096 Z" fill="#000000" fill-rule="evenodd" fill-opacity="1" /><path clip-path="url(#clip320)" d="M 0 0 M1445.92 27.2059 L1453.38 27.2059 L1462.69 62.6108 L1471.97 27.2059 L1480.76 27.2059 L1490.08 62.6108 L1499.35 27.2059 L1506.81 27.2059 L1494.94 72.576 L1486.15 72.576 L1476.39 35.3887 L1466.58 72.576 L1457.79 72.576 L1445.92 27.2059 Z" fill="#000000" fill-rule="evenodd" fill-opacity="1" /><path clip-path="url(#clip320)" d="M 0 0 M1514.63 27.2059 L1522.08 27.2059 L1522.08 72.576 L1514.63 72.576 L1514.63 27.2059 M1514.63 9.54393 L1522.08 9.54393 L1522.08 18.9825 L1514.63 18.9825 L1514.63 9.54393 Z" fill="#000000" fill-rule="evenodd" fill-opacity="1" /><path clip-path="url(#clip320)" d="M 0 0 M1537.27 14.324 L1537.27 27.2059 L1552.62 27.2059 L1552.62 32.9987 L1537.27 32.9987 L1537.27 57.6282 Q1537.27 63.1779 1538.77 64.7578 Q1540.31 66.3376 1544.97 66.3376 L1552.62 66.3376 L1552.62 72.576 L1544.97 72.576 Q1536.34 72.576 1533.06 69.3758 Q1529.78 66.1351 1529.78 57.6282 L1529.78 32.9987 L1524.31 32.9987 L1524.31 27.2059 L1529.78 27.2059 L1529.78 14.324 L1537.27 14.324 Z" fill="#000000" fill-rule="evenodd" fill-opacity="1" /><path clip-path="url(#clip320)" d="M 0 0 M1598.16 45.1919 L1598.16 72.576 L1590.7 72.576 L1590.7 45.4349 Q1590.7 38.994 1588.19 35.7938 Q1585.68 32.5936 1580.66 32.5936 Q1574.62 32.5936 1571.14 36.4419 Q1567.65 40.2903 1567.65 46.9338 L1567.65 72.576 L1560.16 72.576 L1560.16 9.54393 L1567.65 9.54393 L1567.65 34.2544 Q1570.33 30.163 1573.93 28.1376 Q1577.58 26.1121 1582.32 26.1121 Q1590.14 26.1121 1594.15 30.9732 Q1598.16 35.7938 1598.16 45.1919 Z" fill="#000000" fill-rule="evenodd" fill-opacity="1" /><path clip-path="url(#clip320)" d="M 0 0 M1652.96 49.7694 Q1643.93 49.7694 1640.45 51.8354 Q1636.96 53.9013 1636.96 58.8839 Q1636.96 62.8538 1639.56 65.2034 Q1642.19 67.5124 1646.69 67.5124 Q1652.88 67.5124 1656.61 63.1374 Q1660.38 58.7219 1660.38 51.4303 L1660.38 49.7694 L1652.96 49.7694 M1667.83 46.6907 L1667.83 72.576 L1660.38 72.576 L1660.38 65.6895 Q1657.83 69.8214 1654.02 71.8063 Q1650.21 73.7508 1644.7 73.7508 Q1637.73 73.7508 1633.6 69.8619 Q1629.51 65.9325 1629.51 59.3701 Q1629.51 51.7138 1634.61 47.825 Q1639.76 43.9361 1649.93 43.9361 L1660.38 43.9361 L1660.38 43.2069 Q1660.38 38.0623 1656.98 35.2672 Q1653.61 32.4315 1647.5 32.4315 Q1643.61 32.4315 1639.92 33.3632 Q1636.23 34.295 1632.83 36.1584 L1632.83 29.2718 Q1636.92 27.692 1640.77 26.9223 Q1644.62 26.1121 1648.27 26.1121 Q1658.11 26.1121 1662.97 31.2163 Q1667.83 36.3204 1667.83 46.6907 Z" fill="#000000" fill-rule="evenodd" fill-opacity="1" /><path clip-path="url(#clip320)" d="M 0 0 M1709.39 14.324 L1709.39 27.2059 L1724.75 27.2059 L1724.75 32.9987 L1709.39 32.9987 L1709.39 57.6282 Q1709.39 63.1779 1710.89 64.7578 Q1712.43 66.3376 1717.09 66.3376 L1724.75 66.3376 L1724.75 72.576 L1717.09 72.576 Q1708.46 72.576 1705.18 69.3758 Q1701.9 66.1351 1701.9 57.6282 L1701.9 32.9987 L1696.43 32.9987 L1696.43 27.2059 L1701.9 27.2059 L1701.9 14.324 L1709.39 14.324 Z" fill="#000000" fill-rule="evenodd" fill-opacity="1" /><path clip-path="url(#clip320)" d="M 0 0 M1770.28 45.1919 L1770.28 72.576 L1762.83 72.576 L1762.83 45.4349 Q1762.83 38.994 1760.31 35.7938 Q1757.8 32.5936 1752.78 32.5936 Q1746.74 32.5936 1743.26 36.4419 Q1739.78 40.2903 1739.78 46.9338 L1739.78 72.576 L1732.28 72.576 L1732.28 9.54393 L1739.78 9.54393 L1739.78 34.2544 Q1742.45 30.163 1746.05 28.1376 Q1749.7 26.1121 1754.44 26.1121 Q1762.26 26.1121 1766.27 30.9732 Q1770.28 35.7938 1770.28 45.1919 Z" fill="#000000" fill-rule="evenodd" fill-opacity="1" /><path clip-path="url(#clip320)" d="M 0 0 M1778.1 27.2059 L1785.55 27.2059 L1785.55 72.576 L1778.1 72.576 L1778.1 27.2059 M1778.1 9.54393 L1785.55 9.54393 L1785.55 18.9825 L1778.1 18.9825 L1778.1 9.54393 Z" fill="#000000" fill-rule="evenodd" fill-opacity="1" /><path clip-path="url(#clip320)" d="M 0 0 M1826.02 28.9478 L1826.02 35.9153 Q1822.86 34.1734 1819.66 33.3227 Q1816.5 32.4315 1813.26 32.4315 Q1806.01 32.4315 1802 37.0496 Q1797.99 41.6271 1797.99 49.9314 Q1797.99 58.2358 1802 62.8538 Q1806.01 67.4314 1813.26 67.4314 Q1816.5 67.4314 1819.66 66.5807 Q1822.86 65.6895 1826.02 63.9476 L1826.02 70.8341 Q1822.9 72.2924 1819.54 73.0216 Q1816.22 73.7508 1812.45 73.7508 Q1802.2 73.7508 1796.16 67.3098 Q1790.13 60.8689 1790.13 49.9314 Q1790.13 38.832 1796.2 32.472 Q1802.32 26.1121 1812.94 26.1121 Q1816.38 26.1121 1819.66 26.8413 Q1822.94 27.5299 1826.02 28.9478 Z" fill="#000000" fill-rule="evenodd" fill-opacity="1" /><path clip-path="url(#clip320)" d="M 0 0 M1833.55 9.54393 L1841.05 9.54393 L1841.05 46.7717 L1863.29 27.2059 L1872.81 27.2059 L1848.75 48.4326 L1873.82 72.576 L1864.1 72.576 L1841.05 50.4176 L1841.05 72.576 L1833.55 72.576 L1833.55 9.54393 Z" fill="#000000" fill-rule="evenodd" fill-opacity="1" /><path clip-path="url(#clip320)" d="M 0 0 M1908.01 9.54393 L1915.46 9.54393 L1915.46 72.576 L1908.01 72.576 L1908.01 9.54393 Z" fill="#000000" fill-rule="evenodd" fill-opacity="1" /><path clip-path="url(#clip320)" d="M 0 0 M1923.28 27.2059 L1930.74 27.2059 L1930.74 72.576 L1923.28 72.576 L1923.28 27.2059 M1923.28 9.54393 L1930.74 9.54393 L1930.74 18.9825 L1923.28 18.9825 L1923.28 9.54393 Z" fill="#000000" fill-rule="evenodd" fill-opacity="1" /><path clip-path="url(#clip320)" d="M 0 0 M1976.27 45.1919 L1976.27 72.576 L1968.81 72.576 L1968.81 45.4349 Q1968.81 38.994 1966.3 35.7938 Q1963.79 32.5936 1958.77 32.5936 Q1952.73 32.5936 1949.25 36.4419 Q1945.76 40.2903 1945.76 46.9338 L1945.76 72.576 L1938.27 72.576 L1938.27 27.2059 L1945.76 27.2059 L1945.76 34.2544 Q1948.44 30.163 1952.04 28.1376 Q1955.69 26.1121 1960.43 26.1121 Q1968.25 26.1121 1972.26 30.9732 Q1976.27 35.7938 1976.27 45.1919 Z" fill="#000000" fill-rule="evenodd" fill-opacity="1" /><path clip-path="url(#clip320)" d="M 0 0 M2022.89 48.0275 L2022.89 51.6733 L1988.62 51.6733 Q1989.11 59.3701 1993.24 63.421 Q1997.41 67.4314 2004.83 67.4314 Q2009.12 67.4314 2013.13 66.3781 Q2017.18 65.3249 2021.15 63.2184 L2021.15 70.267 Q2017.14 71.9684 2012.93 72.8596 Q2008.72 73.7508 2004.38 73.7508 Q1993.52 73.7508 1987.16 67.4314 Q1980.85 61.1119 1980.85 50.3365 Q1980.85 39.1965 1986.84 32.6746 Q1992.88 26.1121 2003.08 26.1121 Q2012.24 26.1121 2017.55 32.0264 Q2022.89 37.9003 2022.89 48.0275 M2015.44 45.84 Q2015.36 39.7232 2012 36.0774 Q2008.67 32.4315 2003.17 32.4315 Q1996.93 32.4315 1993.16 35.9558 Q1989.43 39.4801 1988.87 45.8805 L2015.44 45.84 Z" fill="#000000" fill-rule="evenodd" fill-opacity="1" /><path clip-path="url(#clip320)" d="M 0 0 M1132.19 1444.2 L1172.39 1444.2 L1172.39 1449.61 L1155.52 1449.61 L1155.52 1491.72 L1149.06 1491.72 L1149.06 1449.61 L1132.19 1449.61 L1132.19 1444.2 Z" fill="#000000" fill-rule="evenodd" fill-opacity="1" /><path clip-path="url(#clip320)" d="M 0 0 M1176.53 1456.08 L1182.38 1456.08 L1182.38 1491.72 L1176.53 1491.72 L1176.53 1456.08 M1176.53 1442.2 L1182.38 1442.2 L1182.38 1449.61 L1176.53 1449.61 L1176.53 1442.2 Z" fill="#000000" fill-rule="evenodd" fill-opacity="1" /><path clip-path="url(#clip320)" d="M 0 0 M1216.28 1462.92 Q1218.48 1458.97 1221.53 1457.09 Q1224.59 1455.22 1228.73 1455.22 Q1234.3 1455.22 1237.32 1459.13 Q1240.34 1463.01 1240.34 1470.21 L1240.34 1491.72 L1234.45 1491.72 L1234.45 1470.4 Q1234.45 1465.27 1232.64 1462.79 Q1230.83 1460.31 1227.1 1460.31 Q1222.55 1460.31 1219.91 1463.33 Q1217.27 1466.36 1217.27 1471.58 L1217.27 1491.72 L1211.38 1491.72 L1211.38 1470.4 Q1211.38 1465.24 1209.56 1462.79 Q1207.75 1460.31 1203.96 1460.31 Q1199.47 1460.31 1196.83 1463.36 Q1194.19 1466.39 1194.19 1471.58 L1194.19 1491.72 L1188.3 1491.72 L1188.3 1456.08 L1194.19 1456.08 L1194.19 1461.61 Q1196.2 1458.34 1199 1456.78 Q1201.8 1455.22 1205.65 1455.22 Q1209.53 1455.22 1212.24 1457.19 Q1214.98 1459.16 1216.28 1462.92 Z" fill="#000000" fill-rule="evenodd" fill-opacity="1" /><path clip-path="url(#clip320)" d="M 0 0 M1276.98 1472.44 L1276.98 1475.3 L1250.05 1475.3 Q1250.43 1481.35 1253.68 1484.53 Q1256.96 1487.68 1262.78 1487.68 Q1266.16 1487.68 1269.31 1486.85 Q1272.49 1486.03 1275.61 1484.37 L1275.61 1489.91 Q1272.46 1491.25 1269.15 1491.95 Q1265.84 1492.65 1262.43 1492.65 Q1253.9 1492.65 1248.9 1487.68 Q1243.94 1482.72 1243.94 1474.25 Q1243.94 1465.5 1248.65 1460.37 Q1253.39 1455.22 1261.41 1455.22 Q1268.61 1455.22 1272.78 1459.86 Q1276.98 1464.48 1276.98 1472.44 M1271.12 1470.72 Q1271.06 1465.91 1268.42 1463.05 Q1265.81 1460.18 1261.48 1460.18 Q1256.58 1460.18 1253.62 1462.95 Q1250.69 1465.72 1250.24 1470.75 L1271.12 1470.72 Z" fill="#000000" fill-rule="evenodd" fill-opacity="1" /><path clip-path="url(#clip320)" d="M 0 0 M1317.91 1442.26 Q1313.64 1449.58 1311.57 1456.74 Q1309.51 1463.91 1309.51 1471.26 Q1309.51 1478.61 1311.57 1485.84 Q1313.68 1493.03 1317.91 1500.32 L1312.82 1500.32 Q1308.04 1492.84 1305.65 1485.61 Q1303.3 1478.39 1303.3 1471.26 Q1303.3 1464.16 1305.65 1456.97 Q1308.01 1449.77 1312.82 1442.26 L1317.91 1442.26 Z" fill="#000000" fill-rule="evenodd" fill-opacity="1" /><path clip-path="url(#clip320)" d="M 0 0 M1329.84 1445.95 L1329.84 1456.08 L1341.91 1456.08 L1341.91 1460.63 L1329.84 1460.63 L1329.84 1479.98 Q1329.84 1484.34 1331.02 1485.58 Q1332.23 1486.82 1335.89 1486.82 L1341.91 1486.82 L1341.91 1491.72 L1335.89 1491.72 Q1329.11 1491.72 1326.53 1489.21 Q1323.96 1486.66 1323.96 1479.98 L1323.96 1460.63 L1319.66 1460.63 L1319.66 1456.08 L1323.96 1456.08 L1323.96 1445.95 L1329.84 1445.95 Z" fill="#000000" fill-rule="evenodd" fill-opacity="1" /><path clip-path="url(#clip320)" d="M 0 0 M1347.13 1442.26 L1352.22 1442.26 Q1356.99 1449.77 1359.35 1456.97 Q1361.74 1464.16 1361.74 1471.26 Q1361.74 1478.39 1359.35 1485.61 Q1356.99 1492.84 1352.22 1500.32 L1347.13 1500.32 Q1351.36 1493.03 1353.43 1485.84 Q1355.53 1478.61 1355.53 1471.26 Q1355.53 1463.91 1353.43 1456.74 Q1351.36 1449.58 1347.13 1442.26 Z" fill="#000000" fill-rule="evenodd" fill-opacity="1" /><path clip-path="url(#clip320)" d="M 0 0 M74.8959 902.141 L53.3162 902.141 L53.3162 896.285 L74.6731 896.285 Q79.7339 896.285 82.2802 894.312 Q84.7946 892.338 84.7946 888.391 Q84.7946 883.649 81.7709 880.912 Q78.7472 878.143 73.5273 878.143 L53.3162 878.143 L53.3162 872.286 L88.9642 872.286 L88.9642 878.143 L83.4896 878.143 Q86.7362 880.275 88.3276 883.108 Q89.8872 885.909 89.8872 889.633 Q89.8872 895.776 86.0678 898.959 Q82.2483 902.141 74.8959 902.141 M52.4568 887.405 L52.4568 887.405 Z" fill="#000000" fill-rule="evenodd" fill-opacity="1" /><path clip-path="url(#clip320)" d="M 0 0 M39.5026 852.075 Q46.8232 856.34 53.9846 858.409 Q61.146 860.478 68.4984 860.478 Q75.8508 860.478 83.0759 858.409 Q90.2691 856.308 97.5579 852.075 L97.5579 857.168 Q90.0782 861.942 82.8531 864.329 Q75.628 866.684 68.4984 866.684 Q61.4006 866.684 54.2074 864.329 Q47.0142 861.974 39.5026 857.168 L39.5026 852.075 Z" fill="#000000" fill-rule="evenodd" fill-opacity="1" /><path clip-path="url(#clip320)" d="M 0 0 M43.1947 840.139 L53.3162 840.139 L53.3162 828.076 L57.8677 828.076 L57.8677 840.139 L77.2194 840.139 Q81.5799 840.139 82.8213 838.962 Q84.0626 837.752 84.0626 834.092 L84.0626 828.076 L88.9642 828.076 L88.9642 834.092 Q88.9642 840.871 86.4497 843.45 Q83.9034 846.028 77.2194 846.028 L57.8677 846.028 L57.8677 850.325 L53.3162 850.325 L53.3162 846.028 L43.1947 846.028 L43.1947 840.139 Z" fill="#000000" fill-rule="evenodd" fill-opacity="1" /><path clip-path="url(#clip320)" d="M 0 0 M39.5026 822.856 L39.5026 817.764 Q47.0142 812.99 54.2074 810.634 Q61.4006 808.247 68.4984 808.247 Q75.628 808.247 82.8531 810.634 Q90.0782 812.99 97.5579 817.764 L97.5579 822.856 Q90.2691 818.623 83.0759 816.554 Q75.8508 814.454 68.4984 814.454 Q61.146 814.454 53.9846 816.554 Q46.8232 818.623 39.5026 822.856 Z" fill="#000000" fill-rule="evenodd" fill-opacity="1" /><path clip-path="url(#clip320)" d="M 0 0 M39.5026 767.316 Q46.8232 771.581 53.9846 773.65 Q61.146 775.718 68.4984 775.718 Q75.8508 775.718 83.0759 773.65 Q90.2691 771.549 97.5579 767.316 L97.5579 772.408 Q90.0782 777.183 82.8531 779.57 Q75.628 781.925 68.4984 781.925 Q61.4006 781.925 54.2074 779.57 Q47.0142 777.214 39.5026 772.408 L39.5026 767.316 Z" fill="#000000" fill-rule="evenodd" fill-opacity="1" /><path clip-path="url(#clip320)" d="M 0 0 M53.3162 761.173 L53.3162 755.316 L88.9642 755.316 L88.9642 761.173 L53.3162 761.173 M39.439 761.173 L39.439 755.316 L46.855 755.316 L46.855 761.173 L39.439 761.173 Z" fill="#000000" fill-rule="evenodd" fill-opacity="1" /><path clip-path="url(#clip320)" d="M 0 0 M67.4481 719.541 L88.9642 719.541 L88.9642 725.398 L67.639 725.398 Q62.5783 725.398 60.0638 727.371 Q57.5494 729.344 57.5494 733.291 Q57.5494 738.033 60.5731 740.771 Q63.5968 743.508 68.8167 743.508 L88.9642 743.508 L88.9642 749.396 L53.3162 749.396 L53.3162 743.508 L58.8544 743.508 Q55.6397 741.407 54.0483 738.575 Q52.4568 735.71 52.4568 731.986 Q52.4568 725.843 56.2763 722.692 Q60.0638 719.541 67.4481 719.541 Z" fill="#000000" fill-rule="evenodd" fill-opacity="1" /><path clip-path="url(#clip320)" d="M 0 0 M102.523 693.283 L53.3162 693.283 L53.3162 687.426 L75.4689 687.426 Q80.084 687.426 82.4393 685.23 Q84.7946 683.034 84.7946 678.737 Q84.7946 674.026 82.121 671.671 Q79.4474 669.284 74.1002 669.284 L53.3162 669.284 L53.3162 663.427 L80.7524 663.427 Q82.6621 663.427 83.5851 662.886 Q84.4763 662.313 84.4763 661.136 Q84.4763 660.849 84.3172 660.34 Q84.1262 659.831 83.7443 658.94 L88.4549 658.94 Q89.187 660.245 89.5371 661.422 Q89.8872 662.568 89.8872 663.682 Q89.8872 665.878 88.6459 667.183 Q87.4046 668.488 84.8583 668.966 Q87.3727 670.557 88.6459 672.88 Q89.8872 675.172 89.8872 678.291 Q89.8872 681.538 88.6459 683.829 Q87.4046 686.089 84.9219 687.426 L102.523 687.426 L102.523 693.283 Z" fill="#000000" fill-rule="evenodd" fill-opacity="1" /><path clip-path="url(#clip320)" d="M 0 0 M60.1593 625.042 Q56.2126 622.846 54.3347 619.79 Q52.4568 616.735 52.4568 612.597 Q52.4568 607.027 56.3717 604.003 Q60.2548 600.98 67.4481 600.98 L88.9642 600.98 L88.9642 606.868 L67.639 606.868 Q62.5146 606.868 60.032 608.682 Q57.5494 610.497 57.5494 614.22 Q57.5494 618.772 60.5731 621.414 Q63.5968 624.055 68.8167 624.055 L88.9642 624.055 L88.9642 629.944 L67.639 629.944 Q62.4828 629.944 60.032 631.758 Q57.5494 633.572 57.5494 637.36 Q57.5494 641.848 60.6049 644.489 Q63.6286 647.131 68.8167 647.131 L88.9642 647.131 L88.9642 653.019 L53.3162 653.019 L53.3162 647.131 L58.8544 647.131 Q55.576 645.126 54.0164 642.325 Q52.4568 639.524 52.4568 635.673 Q52.4568 631.79 54.4302 629.084 Q56.4036 626.347 60.1593 625.042 Z" fill="#000000" fill-rule="evenodd" fill-opacity="1" /><path clip-path="url(#clip320)" d="M 0 0 M39.5026 595.76 L39.5026 590.667 Q47.0142 585.893 54.2074 583.538 Q61.4006 581.151 68.4984 581.151 Q75.628 581.151 82.8531 583.538 Q90.0782 585.893 97.5579 590.667 L97.5579 595.76 Q90.2691 591.527 83.0759 589.458 Q75.8508 587.357 68.4984 587.357 Q61.146 587.357 53.9846 589.458 Q46.8232 591.527 39.5026 595.76 Z" fill="#000000" fill-rule="evenodd" fill-opacity="1" /><polyline clip-path="url(#clip322)" style="stroke:#009af9; stroke-width:12; stroke-opacity:1; fill:none" points="
  294.328,1324.83 297.504,1323.85 300.679,1322.86 303.854,1321.87 307.03,1320.88 310.205,1319.88 313.381,1318.88 316.556,1317.88 319.732,1316.87 322.907,1315.85 
  326.083,1314.84 329.258,1313.81 332.434,1312.79 335.609,1311.76 338.784,1310.73 341.96,1309.69 345.135,1308.65 348.311,1307.6 351.486,1306.55 354.662,1305.5 
  357.837,1304.44 361.013,1303.38 364.188,1302.31 367.363,1301.24 370.539,1300.17 373.714,1299.09 376.89,1298 380.065,1296.92 383.241,1295.83 386.416,1294.73 
  389.592,1293.63 392.767,1292.52 395.943,1291.41 399.118,1290.3 402.293,1289.18 405.469,1288.06 408.644,1286.93 411.82,1285.8 414.995,1284.66 418.171,1283.52 
  421.346,1282.38 424.522,1281.23 427.697,1280.07 430.872,1278.91 434.048,1277.75 437.223,1276.58 440.399,1275.38 443.574,1274.14 446.75,1272.86 449.925,1271.54 
  453.101,1270.17 456.276,1268.77 459.452,1267.33 462.627,1265.84 465.802,1264.32 468.978,1262.76 472.153,1261.16 475.329,1259.51 478.504,1257.83 481.68,1256.11 
  484.855,1254.36 488.031,1252.56 491.206,1250.72 494.381,1248.85 497.557,1246.93 500.732,1244.98 503.908,1242.99 507.083,1240.96 510.259,1238.9 513.434,1236.79 
  516.61,1234.65 519.785,1232.47 522.961,1230.26 526.136,1228.01 529.311,1225.72 532.487,1223.39 535.662,1221.03 538.838,1218.63 542.013,1216.2 545.189,1213.73 
  548.364,1211.22 551.54,1208.68 554.715,1206.1 557.89,1203.48 561.066,1200.83 564.241,1198.15 567.417,1195.43 570.592,1192.67 573.768,1189.88 576.943,1187.06 
  580.119,1184.2 583.294,1181.31 586.469,1178.38 589.645,1175.42 592.82,1172.42 595.996,1169.39 599.171,1166.32 602.347,1163.23 605.522,1160.09 608.698,1156.93 
  611.873,1153.73 615.049,1150.5 618.224,1147.23 621.399,1143.93 624.575,1140.6 627.75,1137.23 630.926,1133.83 634.101,1130.4 637.277,1126.94 640.452,1123.44 
  643.628,1119.91 646.803,1116.35 649.978,1112.75 653.154,1109.13 656.329,1105.47 659.505,1101.78 662.68,1098.05 665.856,1094.3 669.031,1090.51 672.207,1086.69 
  675.382,1082.84 678.558,1078.95 681.733,1075.04 684.908,1071.09 688.084,1067.11 691.259,1063.1 694.435,1059.06 697.61,1054.99 700.786,1050.89 703.961,1046.75 
  707.137,1042.59 710.312,1038.39 713.487,1034.16 716.663,1029.91 719.838,1025.62 723.014,1021.3 726.189,1016.95 729.365,1012.57 732.54,1008.16 735.716,1003.72 
  738.891,999.247 742.067,994.745 745.242,990.212 748.417,985.649 751.593,981.056 754.768,976.432 757.944,971.778 761.119,967.094 764.295,962.379 767.47,957.634 
  770.646,952.861 773.821,948.06 776.996,943.232 780.172,938.376 783.347,933.493 786.523,928.586 789.698,923.654 792.874,918.697 796.049,913.717 799.225,908.712 
  802.4,903.683 805.576,898.629 808.751,893.552 811.926,888.451 815.102,883.325 818.277,878.176 821.453,873.003 824.628,867.806 827.804,862.585 830.979,857.342 
  834.155,852.076 837.33,846.788 840.505,841.478 843.681,836.145 846.856,830.79 850.032,825.413 853.207,820.015 856.383,814.595 859.558,809.153 862.734,803.691 
  865.909,798.207 869.084,792.702 872.26,787.176 875.435,781.63 878.611,776.062 881.786,770.474 884.962,764.865 888.137,759.236 891.313,753.586 894.488,747.916 
  897.664,742.226 900.839,736.515 904.014,730.784 907.19,725.033 910.365,719.262 913.541,713.47 916.716,707.658 919.892,701.825 923.067,695.973 926.243,690.1 
  929.418,684.207 932.593,678.294 935.769,672.362 938.944,666.41 942.12,660.438 945.295,654.446 948.471,648.434 951.646,642.403 954.822,636.351 957.997,630.28 
  961.173,624.189 964.348,618.078 967.523,611.947 970.699,605.796 973.874,599.625 977.05,593.433 980.225,587.222 983.401,580.991 986.576,574.74 989.752,568.469 
  992.927,562.177 996.102,555.865 999.278,549.533 1002.45,543.181 1005.63,536.809 1008.8,530.416 1011.98,524.003 1015.16,517.57 1018.33,511.116 1021.51,504.641 
  1024.68,498.146 1027.86,491.63 1031.03,485.094 1034.21,478.537 1037.38,471.959 1040.56,465.361 1043.73,458.742 1046.91,452.111 1050.09,445.594 1053.26,439.234 
  1056.44,433.028 1059.61,426.973 1062.79,421.065 1065.96,415.301 1069.14,409.679 1072.31,404.196 1075.49,398.849 1078.66,393.635 1081.84,388.552 1085.02,383.597 
  1088.19,378.767 1091.37,374.06 1094.54,369.474 1097.72,365.006 1100.89,360.654 1104.07,356.416 1107.24,352.289 1110.42,348.272 1113.59,344.362 1116.77,340.557 
  1119.95,336.855 1123.12,333.255 1126.3,329.755 1129.47,326.352 1132.65,323.046 1135.82,319.833 1139,316.714 1142.17,313.687 1145.35,310.749 1148.52,307.9 
  1151.7,305.138 1154.87,302.462 1158.05,299.871 1161.23,297.362 1164.4,294.935 1167.58,292.59 1170.75,290.324 1173.93,288.136 1177.1,286.032 1180.28,284.011 
  1183.45,282.072 1186.63,280.214 1189.8,278.435 1192.98,276.734 1196.16,275.11 1199.33,273.561 1202.51,272.087 1205.68,270.685 1208.86,269.356 1212.03,268.1 
  1215.21,266.916 1218.38,265.803 1221.56,264.76 1224.73,263.791 1227.91,262.893 1231.09,262.066 1234.26,261.31 1237.44,260.624 1240.61,260.008 1243.79,259.461 
  1246.96,258.983 1250.14,258.574 1253.31,258.232 1256.49,257.958 1259.66,257.753 1262.84,257.616 1266.02,257.548 1269.19,257.549 1272.37,257.618 1275.54,257.757 
  1278.72,257.965 1281.89,258.243 1285.07,258.591 1288.24,259.011 1291.42,259.502 1294.59,260.065 1297.77,260.701 1300.95,261.411 1304.12,262.196 1307.3,263.056 
  1310.47,263.994 1313.65,265.01 1316.82,266.105 1320,267.281 1323.17,268.539 1326.35,269.88 1329.52,271.307 1332.7,272.821 1335.88,274.423 1339.05,276.117 
  1342.23,277.902 1345.4,279.783 1348.58,281.76 1351.75,283.834 1354.93,286.009 1358.1,288.288 1361.28,290.671 1364.45,293.163 1367.63,295.765 1370.81,298.481 
  1373.98,301.312 1377.16,304.262 1380.33,307.333 1383.51,310.527 1386.68,313.848 1389.86,317.297 1393.03,320.877 1396.21,324.592 1399.38,328.444 1402.56,332.437 
  1405.74,336.574 1408.91,340.859 1412.09,345.296 1415.26,349.887 1418.44,354.637 1421.61,359.551 1424.79,364.631 1427.96,369.882 1431.14,375.308 1434.31,380.914 
  1437.49,386.704 1440.67,392.683 1443.84,398.855 1447.02,405.226 1450.19,411.8 1453.37,418.578 1456.54,425.565 1459.72,432.765 1462.89,440.184 1466.07,447.827 
  1469.24,455.613 1472.42,463.382 1475.6,471.13 1478.77,478.857 1481.95,486.564 1485.12,494.249 1488.3,501.91 1491.47,509.543 1494.65,517.144 1497.82,524.714 
  1501,532.252 1504.17,539.76 1507.35,547.237 1510.53,554.682 1513.7,562.096 1516.88,569.478 1520.05,576.828 1523.23,584.147 1526.4,591.436 1529.58,598.693 
  1532.75,605.919 1535.93,613.111 1539.1,620.268 1542.28,627.39 1545.46,634.476 1548.63,641.528 1551.81,648.545 1554.98,655.528 1558.16,662.476 1561.33,669.39 
  1564.51,676.27 1567.68,683.117 1570.86,689.929 1574.03,696.708 1577.21,703.454 1580.39,710.166 1583.56,716.846 1586.74,723.492 1589.91,730.106 1593.09,736.686 
  1596.26,743.227 1599.44,749.728 1602.61,756.189 1605.79,762.61 1608.96,768.992 1612.14,775.335 1615.32,781.64 1618.49,787.906 1621.67,794.134 1624.84,800.324 
  1628.02,806.477 1631.19,812.592 1634.37,818.671 1637.54,824.713 1640.72,830.718 1643.89,836.688 1647.07,842.621 1650.25,848.519 1653.42,854.382 1656.6,860.209 
  1659.77,866.002 1662.95,871.76 1666.12,877.483 1669.3,883.172 1672.47,888.826 1675.65,894.447 1678.82,900.034 1682,905.588 1685.18,911.108 1688.35,916.596 
  1691.53,922.051 1694.7,927.472 1697.88,932.857 1701.05,938.209 1704.23,943.526 1707.4,948.809 1710.58,954.058 1713.75,959.274 1716.93,964.457 1720.1,969.607 
  1723.28,974.724 1726.46,979.809 1729.63,984.862 1732.81,989.883 1735.98,994.872 1739.16,999.828 1742.33,1004.73 1745.51,1009.57 1748.68,1014.35 1751.86,1019.08 
  1755.03,1023.75 1758.21,1028.36 1761.39,1032.92 1764.56,1037.42 1767.74,1041.86 1770.91,1046.26 1774.09,1050.6 1777.26,1054.88 1780.44,1059.11 1783.61,1063.3 
  1786.79,1067.43 1789.96,1071.5 1793.14,1075.53 1796.32,1079.51 1799.49,1083.44 1802.67,1087.32 1805.84,1091.15 1809.02,1094.94 1812.19,1098.67 1815.37,1102.36 
  1818.54,1106 1821.72,1109.6 1824.89,1113.15 1828.07,1116.65 1831.25,1120.11 1834.42,1123.53 1837.6,1126.9 1840.77,1130.23 1843.95,1133.51 1847.12,1136.75 
  1850.3,1139.95 1853.47,1143.11 1856.65,1146.23 1859.82,1149.3 1863,1152.34 1866.18,1155.33 1869.35,1158.28 1872.53,1161.2 1875.7,1164.07 1878.88,1166.9 
  1882.05,1169.7 1885.23,1172.45 1888.4,1175.17 1891.58,1177.85 1894.75,1180.49 1897.93,1183.1 1901.11,1185.67 1904.28,1188.21 1907.46,1190.71 1910.63,1193.17 
  1913.81,1195.61 1916.98,1198.01 1920.16,1200.37 1923.33,1202.7 1926.51,1205 1929.68,1207.27 1932.86,1209.51 1936.04,1211.71 1939.21,1213.88 1942.39,1216.02 
  1945.56,1218.13 1948.74,1220.21 1951.91,1222.26 1955.09,1224.28 1958.26,1226.27 1961.44,1228.22 1964.61,1230.16 1967.79,1232.06 1970.97,1233.93 1974.14,1235.78 
  1977.32,1237.59 1980.49,1239.38 1983.67,1241.15 1986.84,1242.88 1990.02,1244.59 1993.19,1246.27 1996.37,1247.93 1999.54,1249.56 2002.72,1251.16 2005.9,1252.74 
  2009.07,1254.3 2012.25,1255.82 2015.42,1257.33 2018.6,1258.81 2021.77,1260.26 2024.95,1261.69 2028.12,1263.1 2031.3,1264.49 2034.47,1265.85 2037.65,1267.18 
  2040.83,1268.5 2044,1269.79 2047.18,1271.06 2050.35,1272.31 2053.53,1273.54 2056.7,1274.74 2059.88,1275.92 2063.05,1277.09 2066.23,1278.23 2069.4,1279.35 
  2072.58,1280.45 2075.76,1281.53 2078.93,1282.59 2082.11,1283.63 2085.28,1284.65 2088.46,1285.65 2091.63,1286.63 2094.81,1287.59 2097.98,1288.53 2101.16,1289.46 
  2104.33,1290.36 2107.51,1291.25 2110.69,1292.12 2113.86,1292.97 2117.04,1293.8 2120.21,1294.61 2123.39,1295.41 2126.56,1296.19 2129.74,1296.96 2132.91,1297.71 
  2136.09,1298.44 2139.26,1299.15 2142.44,1299.85 2145.62,1300.53 2148.79,1301.2 2151.97,1301.85 2155.14,1302.49 2158.32,1303.11 2161.49,1303.71 2164.67,1304.3 
  2167.84,1304.87 2171.02,1305.43 2174.19,1305.98 2177.37,1306.51 2180.55,1307.03 2183.72,1307.53 2186.9,1308.02 2190.07,1308.49 2193.25,1308.95 2196.42,1309.4 
  2199.6,1309.83 
  "/>
<polyline clip-path="url(#clip322)" style="stroke:#e26f46; stroke-width:12; stroke-opacity:1; fill:none" points="
  294.328,1321.71 297.504,1321.71 300.679,1321.71 303.854,1321.71 307.03,1321.71 310.205,1321.71 313.381,1321.71 316.556,1321.71 319.732,1321.71 322.907,1321.71 
  326.083,1321.71 329.258,1321.71 332.434,1321.71 335.609,1321.71 338.784,1321.71 341.96,1321.71 345.135,1321.71 348.311,1321.71 351.486,1321.71 354.662,1321.71 
  357.837,1321.71 361.013,1321.71 364.188,1321.71 367.363,1321.71 370.539,1321.71 373.714,1321.71 376.89,1321.71 380.065,1321.71 383.241,1321.71 386.416,1321.71 
  389.592,1321.71 392.767,1321.71 395.943,1321.71 399.118,1321.71 402.293,1321.71 405.469,1321.71 408.644,1321.71 411.82,1321.71 414.995,1321.71 418.171,1321.71 
  421.346,1321.71 424.522,1321.71 427.697,1321.71 430.872,1321.71 434.048,1321.71 437.223,1321.71 440.399,1321.71 443.574,1321.71 446.75,1321.71 449.925,1321.71 
  453.101,1321.71 456.276,1321.71 459.452,1321.71 462.627,1321.71 465.802,1321.71 468.978,1321.71 472.153,1321.71 475.329,1321.71 478.504,1321.71 481.68,1321.71 
  484.855,1321.71 488.031,1321.71 491.206,1321.71 494.381,1321.71 497.557,1321.71 500.732,1321.71 503.908,1321.71 507.083,1321.71 510.259,1321.71 513.434,1321.71 
  516.61,1321.71 519.785,1321.71 522.961,1321.71 526.136,1321.71 529.311,1321.71 532.487,1321.71 535.662,1321.71 538.838,1321.71 542.013,1321.71 545.189,1321.71 
  548.364,1321.71 551.54,1321.71 554.715,1321.71 557.89,1321.71 561.066,1321.71 564.241,1321.71 567.417,1321.71 570.592,1321.71 573.768,1321.71 576.943,1321.71 
  580.119,1321.71 583.294,1321.71 586.469,1321.71 589.645,1321.71 592.82,1321.71 595.996,1321.71 599.171,1321.71 602.347,1321.71 605.522,1321.71 608.698,1321.71 
  611.873,1321.71 615.049,1321.71 618.224,1321.71 621.399,1321.71 624.575,1321.71 627.75,1321.71 630.926,1321.71 634.101,1321.71 637.277,1321.71 640.452,1321.71 
  643.628,1321.71 646.803,1321.71 649.978,1321.71 653.154,1321.71 656.329,1321.71 659.505,1321.71 662.68,1321.71 665.856,1321.71 669.031,1321.71 672.207,1321.71 
  675.382,1321.71 678.558,1321.71 681.733,1321.71 684.908,1321.71 688.084,1321.71 691.259,1321.71 694.435,1321.71 697.61,1321.71 700.786,1321.71 703.961,1321.71 
  707.137,1321.71 710.312,1321.71 713.487,1321.71 716.663,1321.71 719.838,1321.71 723.014,1321.71 726.189,1321.71 729.365,1321.71 732.54,1321.71 735.716,1321.71 
  738.891,1321.7 742.067,1321.7 745.242,1321.7 748.417,1321.7 751.593,1321.7 754.768,1321.7 757.944,1321.69 761.119,1321.69 764.295,1321.69 767.47,1321.68 
  770.646,1321.68 773.821,1321.67 776.996,1321.67 780.172,1321.66 783.347,1321.65 786.523,1321.64 789.698,1321.63 792.874,1321.62 796.049,1321.61 799.225,1321.6 
  802.4,1321.58 805.576,1321.56 808.751,1321.54 811.926,1321.52 815.102,1321.49 818.277,1321.46 821.453,1321.43 824.628,1321.39 827.804,1321.35 830.979,1321.3 
  834.155,1321.24 837.33,1321.19 840.505,1321.12 843.681,1321.04 846.856,1320.96 850.032,1320.87 853.207,1320.77 856.383,1320.65 859.558,1320.52 862.734,1320.38 
  865.909,1320.22 869.084,1320.05 872.26,1319.86 875.435,1319.65 878.611,1319.41 881.786,1319.15 884.962,1318.86 888.137,1318.55 891.313,1318.2 894.488,1317.82 
  897.664,1317.4 900.839,1316.94 904.014,1316.44 907.19,1315.89 910.365,1315.28 913.541,1314.62 916.716,1313.9 919.892,1313.12 923.067,1312.26 926.243,1311.33 
  929.418,1310.32 932.593,1309.22 935.769,1308.03 938.944,1306.74 942.12,1305.34 945.295,1303.83 948.471,1302.19 951.646,1300.43 954.822,1298.53 957.997,1296.48 
  961.173,1294.28 964.348,1291.91 967.523,1289.37 970.699,1286.64 973.874,1283.72 977.05,1280.59 980.225,1277.24 983.401,1273.67 986.576,1269.86 989.752,1265.8 
  992.927,1261.48 996.102,1256.88 999.278,1251.99 1002.45,1246.81 1005.63,1241.32 1008.8,1235.5 1011.98,1229.35 1015.16,1222.85 1018.33,1215.99 1021.51,1208.76 
  1024.68,1201.15 1027.86,1193.14 1031.03,1184.73 1034.21,1175.9 1037.38,1166.65 1040.56,1156.96 1043.73,1146.83 1046.91,1136.24 1050.09,1125.2 1053.26,1113.7 
  1056.44,1101.72 1059.61,1089.27 1062.79,1076.34 1065.96,1062.94 1069.14,1049.05 1072.31,1034.68 1075.49,1019.84 1078.66,1004.52 1081.84,988.733 1085.02,972.483 
  1088.19,955.778 1091.37,938.629 1094.54,921.048 1097.72,903.047 1100.89,884.642 1104.07,865.849 1107.24,846.689 1110.42,827.181 1113.59,807.347 1116.77,787.214 
  1119.95,766.805 1123.12,746.151 1126.3,725.279 1129.47,704.222 1132.65,683.013 1135.82,661.687 1139,640.279 1142.17,618.828 1145.35,597.371 1148.52,575.95 
  1151.7,554.606 1154.87,533.38 1158.05,512.316 1161.23,491.458 1164.4,470.85 1167.58,450.537 1170.75,430.564 1173.93,410.976 1177.1,391.818 1180.28,373.136 
  1183.45,354.972 1186.63,337.373 1189.8,320.379 1192.98,304.034 1196.16,288.379 1199.33,273.454 1202.51,259.296 1205.68,245.943 1208.86,233.429 1212.03,221.788 
  1215.21,211.05 1218.38,201.245 1221.56,192.398 1224.73,184.535 1227.91,177.675 1231.09,171.839 1234.26,167.041 1237.44,163.296 1240.61,160.614 1243.79,159.001 
  1246.96,158.463 1250.14,159.001 1253.31,160.614 1256.49,163.296 1259.66,167.041 1262.84,171.839 1266.02,177.675 1269.19,184.535 1272.37,192.398 1275.54,201.245 
  1278.72,211.05 1281.89,221.788 1285.07,233.429 1288.24,245.943 1291.42,259.296 1294.59,273.454 1297.77,288.379 1300.95,304.034 1304.12,320.379 1307.3,337.373 
  1310.47,354.972 1313.65,373.136 1316.82,391.818 1320,410.976 1323.17,430.564 1326.35,450.537 1329.52,470.85 1332.7,491.458 1335.88,512.316 1339.05,533.38 
  1342.23,554.606 1345.4,575.95 1348.58,597.371 1351.75,618.828 1354.93,640.279 1358.1,661.687 1361.28,683.013 1364.45,704.222 1367.63,725.279 1370.81,746.151 
  1373.98,766.805 1377.16,787.214 1380.33,807.347 1383.51,827.181 1386.68,846.689 1389.86,865.849 1393.03,884.642 1396.21,903.047 1399.38,921.048 1402.56,938.629 
  1405.74,955.778 1408.91,972.483 1412.09,988.733 1415.26,1004.52 1418.44,1019.84 1421.61,1034.68 1424.79,1049.05 1427.96,1062.94 1431.14,1076.34 1434.31,1089.27 
  1437.49,1101.72 1440.67,1113.7 1443.84,1125.2 1447.02,1136.24 1450.19,1146.83 1453.37,1156.96 1456.54,1166.65 1459.72,1175.9 1462.89,1184.73 1466.07,1193.14 
  1469.24,1201.15 1472.42,1208.76 1475.6,1215.99 1478.77,1222.85 1481.95,1229.35 1485.12,1235.5 1488.3,1241.32 1491.47,1246.81 1494.65,1251.99 1497.82,1256.88 
  1501,1261.48 1504.17,1265.8 1507.35,1269.86 1510.53,1273.67 1513.7,1277.24 1516.88,1280.59 1520.05,1283.72 1523.23,1286.64 1526.4,1289.37 1529.58,1291.91 
  1532.75,1294.28 1535.93,1296.48 1539.1,1298.53 1542.28,1300.43 1545.46,1302.19 1548.63,1303.83 1551.81,1305.34 1554.98,1306.74 1558.16,1308.03 1561.33,1309.22 
  1564.51,1310.32 1567.68,1311.33 1570.86,1312.26 1574.03,1313.12 1577.21,1313.9 1580.39,1314.62 1583.56,1315.28 1586.74,1315.89 1589.91,1316.44 1593.09,1316.94 
  1596.26,1317.4 1599.44,1317.82 1602.61,1318.2 1605.79,1318.55 1608.96,1318.86 1612.14,1319.15 1615.32,1319.41 1618.49,1319.65 1621.67,1319.86 1624.84,1320.05 
  1628.02,1320.22 1631.19,1320.38 1634.37,1320.52 1637.54,1320.65 1640.72,1320.77 1643.89,1320.87 1647.07,1320.96 1650.25,1321.04 1653.42,1321.12 1656.6,1321.19 
  1659.77,1321.24 1662.95,1321.3 1666.12,1321.35 1669.3,1321.39 1672.47,1321.43 1675.65,1321.46 1678.82,1321.49 1682,1321.52 1685.18,1321.54 1688.35,1321.56 
  1691.53,1321.58 1694.7,1321.6 1697.88,1321.61 1701.05,1321.62 1704.23,1321.63 1707.4,1321.64 1710.58,1321.65 1713.75,1321.66 1716.93,1321.67 1720.1,1321.67 
  1723.28,1321.68 1726.46,1321.68 1729.63,1321.69 1732.81,1321.69 1735.98,1321.69 1739.16,1321.7 1742.33,1321.7 1745.51,1321.7 1748.68,1321.7 1751.86,1321.7 
  1755.03,1321.7 1758.21,1321.71 1761.39,1321.71 1764.56,1321.71 1767.74,1321.71 1770.91,1321.71 1774.09,1321.71 1777.26,1321.71 1780.44,1321.71 1783.61,1321.71 
  1786.79,1321.71 1789.96,1321.71 1793.14,1321.71 1796.32,1321.71 1799.49,1321.71 1802.67,1321.71 1805.84,1321.71 1809.02,1321.71 1812.19,1321.71 1815.37,1321.71 
  1818.54,1321.71 1821.72,1321.71 1824.89,1321.71 1828.07,1321.71 1831.25,1321.71 1834.42,1321.71 1837.6,1321.71 1840.77,1321.71 1843.95,1321.71 1847.12,1321.71 
  1850.3,1321.71 1853.47,1321.71 1856.65,1321.71 1859.82,1321.71 1863,1321.71 1866.18,1321.71 1869.35,1321.71 1872.53,1321.71 1875.7,1321.71 1878.88,1321.71 
  1882.05,1321.71 1885.23,1321.71 1888.4,1321.71 1891.58,1321.71 1894.75,1321.71 1897.93,1321.71 1901.11,1321.71 1904.28,1321.71 1907.46,1321.71 1910.63,1321.71 
  1913.81,1321.71 1916.98,1321.71 1920.16,1321.71 1923.33,1321.71 1926.51,1321.71 1929.68,1321.71 1932.86,1321.71 1936.04,1321.71 1939.21,1321.71 1942.39,1321.71 
  1945.56,1321.71 1948.74,1321.71 1951.91,1321.71 1955.09,1321.71 1958.26,1321.71 1961.44,1321.71 1964.61,1321.71 1967.79,1321.71 1970.97,1321.71 1974.14,1321.71 
  1977.32,1321.71 1980.49,1321.71 1983.67,1321.71 1986.84,1321.71 1990.02,1321.71 1993.19,1321.71 1996.37,1321.71 1999.54,1321.71 2002.72,1321.71 2005.9,1321.71 
  2009.07,1321.71 2012.25,1321.71 2015.42,1321.71 2018.6,1321.71 2021.77,1321.71 2024.95,1321.71 2028.12,1321.71 2031.3,1321.71 2034.47,1321.71 2037.65,1321.71 
  2040.83,1321.71 2044,1321.71 2047.18,1321.71 2050.35,1321.71 2053.53,1321.71 2056.7,1321.71 2059.88,1321.71 2063.05,1321.71 2066.23,1321.71 2069.4,1321.71 
  2072.58,1321.71 2075.76,1321.71 2078.93,1321.71 2082.11,1321.71 2085.28,1321.71 2088.46,1321.71 2091.63,1321.71 2094.81,1321.71 2097.98,1321.71 2101.16,1321.71 
  2104.33,1321.71 2107.51,1321.71 2110.69,1321.71 2113.86,1321.71 2117.04,1321.71 2120.21,1321.71 2123.39,1321.71 2126.56,1321.71 2129.74,1321.71 2132.91,1321.71 
  2136.09,1321.71 2139.26,1321.71 2142.44,1321.71 2145.62,1321.71 2148.79,1321.71 2151.97,1321.71 2155.14,1321.71 2158.32,1321.71 2161.49,1321.71 2164.67,1321.71 
  2167.84,1321.71 2171.02,1321.71 2174.19,1321.71 2177.37,1321.71 2180.55,1321.71 2183.72,1321.71 2186.9,1321.71 2190.07,1321.71 2193.25,1321.71 2196.42,1321.71 
  2199.6,1321.71 
  "/>
<path clip-path="url(#clip320)" d="
M1643.14 382.672 L2187.64 382.672 L2187.64 201.232 L1643.14 201.232  Z
  " fill="#ffffff" fill-rule="evenodd" fill-opacity="1"/>
<polyline clip-path="url(#clip320)" style="stroke:#000000; stroke-width:4; stroke-opacity:1; fill:none" points="
  1643.14,382.672 2187.64,382.672 2187.64,201.232 1643.14,201.232 1643.14,382.672 
  "/>
<polyline clip-path="url(#clip320)" style="stroke:#009af9; stroke-width:4; stroke-opacity:1; fill:none" points="
  1666.18,261.712 1804.42,261.712 
  "/>
<path clip-path="url(#clip320)" d="M 0 0 M1827.46 244.432 L1833.76 244.432 L1849.08 273.344 L1849.08 244.432 L1853.62 244.432 L1853.62 278.992 L1847.32 278.992 L1832 250.08 L1832 278.992 L1827.46 278.992 L1827.46 244.432 Z" fill="#000000" fill-rule="evenodd" fill-opacity="1" /><path clip-path="url(#clip320)" d="M 0 0 M1858.27 244.432 L1864.57 244.432 L1879.89 273.344 L1879.89 244.432 L1884.43 244.432 L1884.43 278.992 L1878.13 278.992 L1862.81 250.08 L1862.81 278.992 L1858.27 278.992 L1858.27 244.432 Z" fill="#000000" fill-rule="evenodd" fill-opacity="1" /><path clip-path="url(#clip320)" d="M 0 0 M1889.08 244.432 L1893.76 244.432 L1893.76 259.039 L1909.27 244.432 L1915.28 244.432 L1898.13 260.543 L1916.51 278.992 L1910.35 278.992 L1893.76 262.349 L1893.76 278.992 L1889.08 278.992 L1889.08 244.432 Z" fill="#000000" fill-rule="evenodd" fill-opacity="1" /><path clip-path="url(#clip320)" d="M 0 0 M1928.66 256.052 Q1925.24 256.052 1923.25 258.738 Q1921.26 261.4 1921.26 266.052 Q1921.26 270.705 1923.22 273.39 Q1925.21 276.052 1928.66 276.052 Q1932.07 276.052 1934.06 273.367 Q1936.05 270.682 1936.05 266.052 Q1936.05 261.446 1934.06 258.761 Q1932.07 256.052 1928.66 256.052 M1928.66 252.441 Q1934.22 252.441 1937.39 256.052 Q1940.56 259.664 1940.56 266.052 Q1940.56 272.418 1937.39 276.052 Q1934.22 279.663 1928.66 279.663 Q1923.08 279.663 1919.91 276.052 Q1916.77 272.418 1916.77 266.052 Q1916.77 259.664 1919.91 256.052 Q1923.08 252.441 1928.66 252.441 Z" fill="#000000" fill-rule="evenodd" fill-opacity="1" /><path clip-path="url(#clip320)" d="M 0 0 M1945.03 242.974 L1949.29 242.974 L1949.29 278.992 L1945.03 278.992 L1945.03 242.974 Z" fill="#000000" fill-rule="evenodd" fill-opacity="1" /><path clip-path="url(#clip320)" d="M 0 0 M1973.94 258.043 Q1975.54 255.173 1977.76 253.807 Q1979.98 252.441 1982.99 252.441 Q1987.04 252.441 1989.24 255.289 Q1991.44 258.113 1991.44 263.344 L1991.44 278.992 L1987.16 278.992 L1987.16 263.483 Q1987.16 259.756 1985.84 257.951 Q1984.52 256.145 1981.81 256.145 Q1978.5 256.145 1976.58 258.344 Q1974.66 260.543 1974.66 264.339 L1974.66 278.992 L1970.38 278.992 L1970.38 263.483 Q1970.38 259.733 1969.06 257.951 Q1967.74 256.145 1964.98 256.145 Q1961.72 256.145 1959.8 258.367 Q1957.88 260.566 1957.88 264.339 L1957.88 278.992 L1953.59 278.992 L1953.59 253.066 L1957.88 253.066 L1957.88 257.094 Q1959.33 254.71 1961.37 253.576 Q1963.41 252.441 1966.21 252.441 Q1969.03 252.441 1971 253.877 Q1972.99 255.312 1973.94 258.043 Z" fill="#000000" fill-rule="evenodd" fill-opacity="1" /><path clip-path="url(#clip320)" d="M 0 0 M2005.95 256.052 Q2002.53 256.052 2000.54 258.738 Q1998.55 261.4 1998.55 266.052 Q1998.55 270.705 2000.51 273.39 Q2002.51 276.052 2005.95 276.052 Q2009.36 276.052 2011.35 273.367 Q2013.34 270.682 2013.34 266.052 Q2013.34 261.446 2011.35 258.761 Q2009.36 256.052 2005.95 256.052 M2005.95 252.441 Q2011.51 252.441 2014.68 256.052 Q2017.85 259.664 2017.85 266.052 Q2017.85 272.418 2014.68 276.052 Q2011.51 279.663 2005.95 279.663 Q2000.38 279.663 1997.2 276.052 Q1994.06 272.418 1994.06 266.052 Q1994.06 259.664 1997.2 256.052 Q2000.38 252.441 2005.95 252.441 Z" fill="#000000" fill-rule="evenodd" fill-opacity="1" /><path clip-path="url(#clip320)" d="M 0 0 M2039.38 265.728 Q2039.38 261.099 2037.46 258.552 Q2035.56 256.006 2032.11 256.006 Q2028.69 256.006 2026.76 258.552 Q2024.87 261.099 2024.87 265.728 Q2024.87 270.335 2026.76 272.881 Q2028.69 275.427 2032.11 275.427 Q2035.56 275.427 2037.46 272.881 Q2039.38 270.335 2039.38 265.728 M2043.64 275.775 Q2043.64 282.395 2040.7 285.612 Q2037.76 288.853 2031.7 288.853 Q2029.45 288.853 2027.46 288.506 Q2025.47 288.182 2023.59 287.487 L2023.59 283.344 Q2025.47 284.362 2027.3 284.849 Q2029.13 285.335 2031.02 285.335 Q2035.21 285.335 2037.3 283.136 Q2039.38 280.96 2039.38 276.538 L2039.38 274.432 Q2038.06 276.724 2036 277.858 Q2033.94 278.992 2031.07 278.992 Q2026.3 278.992 2023.39 275.358 Q2020.47 271.724 2020.47 265.728 Q2020.47 259.71 2023.39 256.076 Q2026.3 252.441 2031.07 252.441 Q2033.94 252.441 2036 253.576 Q2038.06 254.71 2039.38 257.002 L2039.38 253.066 L2043.64 253.066 L2043.64 275.775 Z" fill="#000000" fill-rule="evenodd" fill-opacity="1" /><path clip-path="url(#clip320)" d="M 0 0 M2058.15 256.052 Q2054.73 256.052 2052.74 258.738 Q2050.75 261.4 2050.75 266.052 Q2050.75 270.705 2052.71 273.39 Q2054.7 276.052 2058.15 276.052 Q2061.56 276.052 2063.55 273.367 Q2065.54 270.682 2065.54 266.052 Q2065.54 261.446 2063.55 258.761 Q2061.56 256.052 2058.15 256.052 M2058.15 252.441 Q2063.71 252.441 2066.88 256.052 Q2070.05 259.664 2070.05 266.052 Q2070.05 272.418 2066.88 276.052 Q2063.71 279.663 2058.15 279.663 Q2052.57 279.663 2049.4 276.052 Q2046.26 272.418 2046.26 266.052 Q2046.26 259.664 2049.4 256.052 Q2052.57 252.441 2058.15 252.441 Z" fill="#000000" fill-rule="evenodd" fill-opacity="1" /><path clip-path="url(#clip320)" d="M 0 0 M2089.54 257.048 Q2088.82 256.631 2087.97 256.446 Q2087.13 256.238 2086.12 256.238 Q2082.51 256.238 2080.56 258.599 Q2078.64 260.937 2078.64 265.335 L2078.64 278.992 L2074.36 278.992 L2074.36 253.066 L2078.64 253.066 L2078.64 257.094 Q2079.98 254.733 2082.13 253.599 Q2084.29 252.441 2087.37 252.441 Q2087.81 252.441 2088.34 252.511 Q2088.87 252.557 2089.52 252.673 L2089.54 257.048 Z" fill="#000000" fill-rule="evenodd" fill-opacity="1" /><path clip-path="url(#clip320)" d="M 0 0 M2103.01 256.052 Q2099.59 256.052 2097.6 258.738 Q2095.61 261.4 2095.61 266.052 Q2095.61 270.705 2097.57 273.39 Q2099.57 276.052 2103.01 276.052 Q2106.42 276.052 2108.41 273.367 Q2110.4 270.682 2110.4 266.052 Q2110.4 261.446 2108.41 258.761 Q2106.42 256.052 2103.01 256.052 M2103.01 252.441 Q2108.57 252.441 2111.74 256.052 Q2114.91 259.664 2114.91 266.052 Q2114.91 272.418 2111.74 276.052 Q2108.57 279.663 2103.01 279.663 Q2097.44 279.663 2094.26 276.052 Q2091.12 272.418 2091.12 266.052 Q2091.12 259.664 2094.26 256.052 Q2097.44 252.441 2103.01 252.441 Z" fill="#000000" fill-rule="evenodd" fill-opacity="1" /><path clip-path="url(#clip320)" d="M 0 0 M2116.32 253.066 L2120.84 253.066 L2128.94 274.825 L2137.04 253.066 L2141.56 253.066 L2131.83 278.992 L2126.05 278.992 L2116.32 253.066 Z" fill="#000000" fill-rule="evenodd" fill-opacity="1" /><polyline clip-path="url(#clip320)" style="stroke:#e26f46; stroke-width:4; stroke-opacity:1; fill:none" points="
  1666.18,322.192 1804.42,322.192 
  "/>
<path clip-path="url(#clip320)" d="M 0 0 M1843.29 309.519 L1836.95 326.718 L1849.66 326.718 L1843.29 309.519 M1840.65 304.912 L1845.96 304.912 L1859.13 339.472 L1854.27 339.472 L1851.12 330.606 L1835.54 330.606 L1832.39 339.472 L1827.46 339.472 L1840.65 304.912 Z" fill="#000000" fill-rule="evenodd" fill-opacity="1" /><path clip-path="url(#clip320)" d="M 0 0 M1885.15 323.824 L1885.15 339.472 L1880.89 339.472 L1880.89 323.963 Q1880.89 320.282 1879.45 318.454 Q1878.02 316.625 1875.15 316.625 Q1871.7 316.625 1869.71 318.824 Q1867.71 321.023 1867.71 324.819 L1867.71 339.472 L1863.43 339.472 L1863.43 313.546 L1867.71 313.546 L1867.71 317.574 Q1869.24 315.236 1871.3 314.079 Q1873.39 312.921 1876.09 312.921 Q1880.56 312.921 1882.85 315.699 Q1885.15 318.454 1885.15 323.824 Z" fill="#000000" fill-rule="evenodd" fill-opacity="1" /><path clip-path="url(#clip320)" d="M 0 0 M1901.4 326.44 Q1896.23 326.44 1894.24 327.62 Q1892.25 328.801 1892.25 331.648 Q1892.25 333.917 1893.73 335.259 Q1895.24 336.579 1897.81 336.579 Q1901.35 336.579 1903.48 334.079 Q1905.63 331.556 1905.63 327.389 L1905.63 326.44 L1901.4 326.44 M1909.89 324.681 L1909.89 339.472 L1905.63 339.472 L1905.63 335.537 Q1904.17 337.898 1902 339.032 Q1899.82 340.143 1896.67 340.143 Q1892.69 340.143 1890.33 337.921 Q1887.99 335.676 1887.99 331.926 Q1887.99 327.551 1890.91 325.329 Q1893.85 323.106 1899.66 323.106 L1905.63 323.106 L1905.63 322.69 Q1905.63 319.75 1903.69 318.153 Q1901.77 316.532 1898.27 316.532 Q1896.05 316.532 1893.94 317.065 Q1891.84 317.597 1889.89 318.662 L1889.89 314.727 Q1892.23 313.824 1894.43 313.384 Q1896.63 312.921 1898.71 312.921 Q1904.33 312.921 1907.11 315.838 Q1909.89 318.755 1909.89 324.681 Z" fill="#000000" fill-rule="evenodd" fill-opacity="1" /><path clip-path="url(#clip320)" d="M 0 0 M1914.36 303.454 L1918.62 303.454 L1918.62 339.472 L1914.36 339.472 L1914.36 303.454 Z" fill="#000000" fill-rule="evenodd" fill-opacity="1" /><path clip-path="url(#clip320)" d="M 0 0 M1933.87 341.88 Q1932.07 346.509 1930.35 347.921 Q1928.64 349.333 1925.77 349.333 L1922.37 349.333 L1922.37 345.768 L1924.87 345.768 Q1926.63 345.768 1927.6 344.935 Q1928.57 344.102 1929.75 341 L1930.52 339.055 L1920.03 313.546 L1924.54 313.546 L1932.64 333.824 L1940.75 313.546 L1945.26 313.546 L1933.87 341.88 Z" fill="#000000" fill-rule="evenodd" fill-opacity="1" /><path clip-path="url(#clip320)" d="M 0 0 M1953.94 306.185 L1953.94 313.546 L1962.71 313.546 L1962.71 316.857 L1953.94 316.857 L1953.94 330.931 Q1953.94 334.102 1954.8 335.005 Q1955.68 335.907 1958.34 335.907 L1962.71 335.907 L1962.71 339.472 L1958.34 339.472 Q1953.41 339.472 1951.53 337.643 Q1949.66 335.792 1949.66 330.931 L1949.66 316.857 L1946.53 316.857 L1946.53 313.546 L1949.66 313.546 L1949.66 306.185 L1953.94 306.185 Z" fill="#000000" fill-rule="evenodd" fill-opacity="1" /><path clip-path="url(#clip320)" d="M 0 0 M1967.18 313.546 L1971.44 313.546 L1971.44 339.472 L1967.18 339.472 L1967.18 313.546 M1967.18 303.454 L1971.44 303.454 L1971.44 308.847 L1967.18 308.847 L1967.18 303.454 Z" fill="#000000" fill-rule="evenodd" fill-opacity="1" /><path clip-path="url(#clip320)" d="M 0 0 M1994.57 314.542 L1994.57 318.523 Q1992.76 317.528 1990.93 317.042 Q1989.13 316.532 1987.27 316.532 Q1983.13 316.532 1980.84 319.171 Q1978.55 321.787 1978.55 326.532 Q1978.55 331.278 1980.84 333.917 Q1983.13 336.532 1987.27 336.532 Q1989.13 336.532 1990.93 336.046 Q1992.76 335.537 1994.57 334.542 L1994.57 338.477 Q1992.78 339.31 1990.86 339.727 Q1988.96 340.143 1986.81 340.143 Q1980.95 340.143 1977.51 336.463 Q1974.06 332.782 1974.06 326.532 Q1974.06 320.19 1977.53 316.556 Q1981.02 312.921 1987.09 312.921 Q1989.06 312.921 1990.93 313.338 Q1992.81 313.732 1994.57 314.542 Z" fill="#000000" fill-rule="evenodd" fill-opacity="1" /><path clip-path="url(#clip320)" d="M 0 0 M2010.82 326.44 Q2005.65 326.44 2003.66 327.62 Q2001.67 328.801 2001.67 331.648 Q2001.67 333.917 2003.15 335.259 Q2004.66 336.579 2007.23 336.579 Q2010.77 336.579 2012.9 334.079 Q2015.05 331.556 2015.05 327.389 L2015.05 326.44 L2010.82 326.44 M2019.31 324.681 L2019.31 339.472 L2015.05 339.472 L2015.05 335.537 Q2013.59 337.898 2011.42 339.032 Q2009.24 340.143 2006.09 340.143 Q2002.11 340.143 1999.75 337.921 Q1997.41 335.676 1997.41 331.926 Q1997.41 327.551 2000.33 325.329 Q2003.27 323.106 2009.08 323.106 L2015.05 323.106 L2015.05 322.69 Q2015.05 319.75 2013.11 318.153 Q2011.19 316.532 2007.69 316.532 Q2005.47 316.532 2003.36 317.065 Q2001.26 317.597 1999.31 318.662 L1999.31 314.727 Q2001.65 313.824 2003.85 313.384 Q2006.05 312.921 2008.13 312.921 Q2013.76 312.921 2016.53 315.838 Q2019.31 318.755 2019.31 324.681 Z" fill="#000000" fill-rule="evenodd" fill-opacity="1" /><path clip-path="url(#clip320)" d="M 0 0 M2023.78 303.454 L2028.04 303.454 L2028.04 339.472 L2023.78 339.472 L2023.78 303.454 Z" fill="#000000" fill-rule="evenodd" fill-opacity="1" /></svg>
