<?xml version="1.0" encoding="utf-8"?>
<svg xmlns="http://www.w3.org/2000/svg" xmlns:xlink="http://www.w3.org/1999/xlink" width="576" height="384" viewBox="0 0 2304 1536">
<defs>
  <clipPath id="clip0100">
    <rect x="0" y="0" width="2304" height="1536"/>
  </clipPath>
</defs>
<path clip-path="url(#clip0100)" d="
M0 1536 L2304 1536 L2304 0 L0 0  Z
  " fill="#ffffff" fill-rule="evenodd" fill-opacity="1"/>
<defs>
  <clipPath id="clip0101">
    <rect x="460" y="0" width="1614" height="1536"/>
  </clipPath>
</defs>
<path clip-path="url(#clip0100)" d="
M181.048 1362.26 L2256.76 1362.26 L2256.76 47.2441 L181.048 47.2441  Z
  " fill="#ffffff" fill-rule="evenodd" fill-opacity="1"/>
<defs>
  <clipPath id="clip0102">
    <rect x="181" y="47" width="2077" height="1316"/>
  </clipPath>
</defs>
<polyline clip-path="url(#clip0102)" style="stroke:#000000; stroke-width:2; stroke-opacity:0.1; fill:none" points="
  181.048,1362.26 181.048,47.2441 
  "/>
<polyline clip-path="url(#clip0102)" style="stroke:#000000; stroke-width:2; stroke-opacity:0.1; fill:none" points="
  596.19,1362.26 596.19,47.2441 
  "/>
<polyline clip-path="url(#clip0102)" style="stroke:#000000; stroke-width:2; stroke-opacity:0.1; fill:none" points="
  1011.33,1362.26 1011.33,47.2441 
  "/>
<polyline clip-path="url(#clip0102)" style="stroke:#000000; stroke-width:2; stroke-opacity:0.1; fill:none" points="
  1426.47,1362.26 1426.47,47.2441 
  "/>
<polyline clip-path="url(#clip0102)" style="stroke:#000000; stroke-width:2; stroke-opacity:0.1; fill:none" points="
  1841.61,1362.26 1841.61,47.2441 
  "/>
<polyline clip-path="url(#clip0102)" style="stroke:#000000; stroke-width:2; stroke-opacity:0.1; fill:none" points="
  2256.76,1362.26 2256.76,47.2441 
  "/>
<polyline clip-path="url(#clip0102)" style="stroke:#000000; stroke-width:2; stroke-opacity:0.1; fill:none" points="
  181.048,1150.23 2256.76,1150.23 
  "/>
<polyline clip-path="url(#clip0102)" style="stroke:#000000; stroke-width:2; stroke-opacity:0.1; fill:none" points="
  181.048,883.988 2256.76,883.988 
  "/>
<polyline clip-path="url(#clip0102)" style="stroke:#000000; stroke-width:2; stroke-opacity:0.1; fill:none" points="
  181.048,617.743 2256.76,617.743 
  "/>
<polyline clip-path="url(#clip0102)" style="stroke:#000000; stroke-width:2; stroke-opacity:0.1; fill:none" points="
  181.048,351.498 2256.76,351.498 
  "/>
<polyline clip-path="url(#clip0102)" style="stroke:#000000; stroke-width:2; stroke-opacity:0.1; fill:none" points="
  181.048,85.2523 2256.76,85.2523 
  "/>
<polyline clip-path="url(#clip0100)" style="stroke:#000000; stroke-width:4; stroke-opacity:1; fill:none" points="
  181.048,1362.26 2256.76,1362.26 
  "/>
<polyline clip-path="url(#clip0100)" style="stroke:#000000; stroke-width:4; stroke-opacity:1; fill:none" points="
  181.048,1362.26 181.048,47.2441 
  "/>
<polyline clip-path="url(#clip0100)" style="stroke:#000000; stroke-width:4; stroke-opacity:1; fill:none" points="
  181.048,1362.26 181.048,1346.48 
  "/>
<polyline clip-path="url(#clip0100)" style="stroke:#000000; stroke-width:4; stroke-opacity:1; fill:none" points="
  596.19,1362.26 596.19,1346.48 
  "/>
<polyline clip-path="url(#clip0100)" style="stroke:#000000; stroke-width:4; stroke-opacity:1; fill:none" points="
  1011.33,1362.26 1011.33,1346.48 
  "/>
<polyline clip-path="url(#clip0100)" style="stroke:#000000; stroke-width:4; stroke-opacity:1; fill:none" points="
  1426.47,1362.26 1426.47,1346.48 
  "/>
<polyline clip-path="url(#clip0100)" style="stroke:#000000; stroke-width:4; stroke-opacity:1; fill:none" points="
  1841.61,1362.26 1841.61,1346.48 
  "/>
<polyline clip-path="url(#clip0100)" style="stroke:#000000; stroke-width:4; stroke-opacity:1; fill:none" points="
  2256.76,1362.26 2256.76,1346.48 
  "/>
<polyline clip-path="url(#clip0100)" style="stroke:#000000; stroke-width:4; stroke-opacity:1; fill:none" points="
  181.048,1150.23 205.957,1150.23 
  "/>
<polyline clip-path="url(#clip0100)" style="stroke:#000000; stroke-width:4; stroke-opacity:1; fill:none" points="
  181.048,883.988 205.957,883.988 
  "/>
<polyline clip-path="url(#clip0100)" style="stroke:#000000; stroke-width:4; stroke-opacity:1; fill:none" points="
  181.048,617.743 205.957,617.743 
  "/>
<polyline clip-path="url(#clip0100)" style="stroke:#000000; stroke-width:4; stroke-opacity:1; fill:none" points="
  181.048,351.498 205.957,351.498 
  "/>
<polyline clip-path="url(#clip0100)" style="stroke:#000000; stroke-width:4; stroke-opacity:1; fill:none" points="
  181.048,85.2523 205.957,85.2523 
  "/>
<g clip-path="url(#clip0100)">
<text style="fill:#000000; fill-opacity:1; font-family:Arial,Helvetica Neue,Helvetica,sans-serif; font-size:48px; text-anchor:middle;" transform="rotate(0, 181.048, 1415.78)" x="181.048" y="1415.78">0</text>
</g>
<g clip-path="url(#clip0100)">
<text style="fill:#000000; fill-opacity:1; font-family:Arial,Helvetica Neue,Helvetica,sans-serif; font-size:48px; text-anchor:middle;" transform="rotate(0, 596.19, 1415.78)" x="596.19" y="1415.78">2</text>
</g>
<g clip-path="url(#clip0100)">
<text style="fill:#000000; fill-opacity:1; font-family:Arial,Helvetica Neue,Helvetica,sans-serif; font-size:48px; text-anchor:middle;" transform="rotate(0, 1011.33, 1415.78)" x="1011.33" y="1415.78">4</text>
</g>
<g clip-path="url(#clip0100)">
<text style="fill:#000000; fill-opacity:1; font-family:Arial,Helvetica Neue,Helvetica,sans-serif; font-size:48px; text-anchor:middle;" transform="rotate(0, 1426.47, 1415.78)" x="1426.47" y="1415.78">6</text>
</g>
<g clip-path="url(#clip0100)">
<text style="fill:#000000; fill-opacity:1; font-family:Arial,Helvetica Neue,Helvetica,sans-serif; font-size:48px; text-anchor:middle;" transform="rotate(0, 1841.61, 1415.78)" x="1841.61" y="1415.78">8</text>
</g>
<g clip-path="url(#clip0100)">
<text style="fill:#000000; fill-opacity:1; font-family:Arial,Helvetica Neue,Helvetica,sans-serif; font-size:48px; text-anchor:middle;" transform="rotate(0, 2256.76, 1415.78)" x="2256.76" y="1415.78">10</text>
</g>
<g clip-path="url(#clip0100)">
<text style="fill:#000000; fill-opacity:1; font-family:Arial,Helvetica Neue,Helvetica,sans-serif; font-size:48px; text-anchor:end;" transform="rotate(0, 158.008, 1167.73)" x="158.008" y="1167.73">-1.0</text>
</g>
<g clip-path="url(#clip0100)">
<text style="fill:#000000; fill-opacity:1; font-family:Arial,Helvetica Neue,Helvetica,sans-serif; font-size:48px; text-anchor:end;" transform="rotate(0, 158.008, 901.488)" x="158.008" y="901.488">-0.5</text>
</g>
<g clip-path="url(#clip0100)">
<text style="fill:#000000; fill-opacity:1; font-family:Arial,Helvetica Neue,Helvetica,sans-serif; font-size:48px; text-anchor:end;" transform="rotate(0, 158.008, 635.243)" x="158.008" y="635.243">0.0</text>
</g>
<g clip-path="url(#clip0100)">
<text style="fill:#000000; fill-opacity:1; font-family:Arial,Helvetica Neue,Helvetica,sans-serif; font-size:48px; text-anchor:end;" transform="rotate(0, 158.008, 368.998)" x="158.008" y="368.998">0.5</text>
</g>
<g clip-path="url(#clip0100)">
<text style="fill:#000000; fill-opacity:1; font-family:Arial,Helvetica Neue,Helvetica,sans-serif; font-size:48px; text-anchor:end;" transform="rotate(0, 158.008, 102.752)" x="158.008" y="102.752">1.0</text>
</g>
<g clip-path="url(#clip0100)">
<text style="fill:#000000; fill-opacity:1; font-family:Arial,Helvetica Neue,Helvetica,sans-serif; font-size:66px; text-anchor:middle;" transform="rotate(0, 1218.9, 1495.16)" x="1218.9" y="1495.16">t</text>
</g>
<polyline clip-path="url(#clip0102)" style="stroke:#009af9; stroke-width:4; stroke-opacity:1; fill:none" points="
  181.048,85.2523 183.126,84.8096 185.204,84.5466 187.281,84.4615 189.359,84.5525 191.437,84.8178 193.515,85.2558 195.593,85.8644 197.67,86.642 199.748,87.5867 
  201.826,88.6966 203.904,89.9698 205.981,91.4044 208.059,92.9986 210.137,94.7503 212.215,96.6577 214.293,98.7188 216.37,100.932 218.448,103.294 220.526,105.804 
  222.604,108.46 224.682,111.259 226.759,114.2 228.837,117.281 230.915,120.498 232.993,123.851 235.07,127.337 237.148,130.954 239.226,134.7 241.304,138.573 
  243.382,142.57 245.459,146.689 247.537,150.928 249.615,155.284 251.693,159.757 253.771,164.342 255.848,169.038 257.926,173.843 260.004,178.755 262.082,183.77 
  264.159,188.886 266.237,194.102 268.315,199.414 270.393,204.821 272.471,210.319 274.548,215.907 276.626,221.582 278.704,227.341 280.782,233.182 282.86,239.102 
  284.937,245.099 287.015,251.17 289.093,257.314 291.171,263.526 293.248,269.805 295.326,276.148 297.404,282.552 299.482,289.015 301.56,295.535 303.637,302.108 
  305.715,308.732 307.793,315.403 309.871,322.121 311.949,328.881 314.026,335.681 316.104,342.518 318.182,349.39 320.26,356.294 322.337,363.227 324.415,370.187 
  326.493,377.171 328.571,384.176 330.649,391.199 332.726,398.239 334.804,405.292 336.882,412.356 338.96,419.427 341.038,426.504 343.115,433.584 345.193,440.663 
  347.271,447.741 349.349,454.813 351.426,461.877 353.504,468.932 355.582,475.973 357.66,482.999 359.738,490.007 361.815,496.995 363.893,503.96 365.971,510.899 
  368.049,517.811 370.127,524.692 372.204,531.541 374.282,538.356 376.36,545.133 378.438,551.871 380.515,558.568 382.593,565.221 384.671,571.829 386.749,578.388 
  388.827,584.898 390.904,591.355 392.982,597.759 395.06,604.107 397.138,610.396 399.216,616.627 401.293,622.795 403.371,628.9 405.449,634.94 407.527,640.914 
  409.604,646.818 411.682,652.653 413.76,658.416 415.838,664.106 417.916,669.72 419.993,675.259 422.071,680.72 424.149,686.102 426.227,691.403 428.305,696.623 
  430.382,701.761 432.46,706.814 434.538,711.782 436.616,716.665 438.693,721.46 440.771,726.167 442.849,730.785 444.927,735.313 447.005,739.75 449.082,744.096 
  451.16,748.35 453.238,752.511 455.316,756.579 457.394,760.552 459.471,764.431 461.549,768.215 463.627,771.903 465.705,775.495 467.782,778.99 469.86,782.389 
  471.938,785.69 474.016,788.894 476.094,792.001 478.171,795.01 480.249,797.92 482.327,800.733 484.405,803.448 486.483,806.064 488.56,808.582 490.638,811.002 
  492.716,813.324 494.794,815.548 496.871,817.674 498.949,819.702 501.027,821.634 503.105,823.468 505.183,825.205 507.26,826.846 509.338,828.39 511.416,829.839 
  513.494,831.193 515.572,832.453 517.649,833.618 519.727,834.689 521.805,835.668 523.883,836.554 525.96,837.348 528.038,838.052 530.116,838.664 532.194,839.186 
  534.272,839.619 536.349,839.964 538.427,840.221 540.505,840.391 542.583,840.475 544.661,840.473 546.738,840.387 548.816,840.218 550.894,839.966 552.972,839.631 
  555.049,839.216 557.127,838.721 559.205,838.147 561.283,837.495 563.361,836.766 565.438,835.961 567.516,835.081 569.594,834.127 571.672,833.101 573.75,832.002 
  575.827,830.833 577.905,829.594 579.983,828.287 582.061,826.913 584.138,825.473 586.216,823.968 588.294,822.4 590.372,820.769 592.45,819.077 594.527,817.326 
  596.605,815.515 598.683,813.647 600.761,811.722 602.839,809.743 604.916,807.709 606.994,805.624 609.072,803.487 611.15,801.3 613.227,799.065 615.305,796.783 
  617.383,794.455 619.461,792.082 621.539,789.666 623.616,787.209 625.694,784.71 627.772,782.173 629.85,779.597 631.928,776.985 634.005,774.338 636.083,771.657 
  638.161,768.943 640.239,766.197 642.316,763.422 644.394,760.618 646.472,757.787 648.55,754.93 650.628,752.048 652.705,749.143 654.783,746.217 656.861,743.269 
  658.939,740.302 661.017,737.318 663.094,734.316 665.172,731.3 667.25,728.269 669.328,725.225 671.405,722.169 673.483,719.104 675.561,716.029 677.639,712.947 
  679.717,709.858 681.794,706.765 683.872,703.667 685.95,700.567 688.028,697.466 690.106,694.365 692.183,691.265 694.261,688.168 696.339,685.074 698.417,681.984 
  700.494,678.901 702.572,675.824 704.65,672.756 706.728,669.697 708.806,666.648 710.883,663.61 712.961,660.585 715.039,657.573 717.117,654.576 719.195,651.594 
  721.272,648.629 723.35,645.681 725.428,642.752 727.506,639.842 729.583,636.952 731.661,634.084 733.739,631.237 735.817,628.414 737.895,625.614 739.972,622.84 
  742.05,620.091 744.128,617.368 746.206,614.672 748.284,612.004 750.361,609.365 752.439,606.756 754.517,604.176 756.595,601.628 758.672,599.111 760.75,596.627 
  762.828,594.175 764.906,591.757 766.984,589.374 769.061,587.025 771.139,584.712 773.217,582.435 775.295,580.194 777.373,577.991 779.45,575.825 781.528,573.697 
  783.606,571.607 785.684,569.557 787.761,567.546 789.839,565.574 791.917,563.643 793.995,561.752 796.073,559.901 798.15,558.092 800.228,556.324 802.306,554.598 
  804.384,552.913 806.462,551.271 808.539,549.67 810.617,548.113 812.695,546.597 814.773,545.125 816.85,543.695 818.928,542.308 821.006,540.964 823.084,539.664 
  825.162,538.406 827.239,537.192 829.317,536.022 831.395,534.895 833.473,533.811 835.551,532.771 837.628,531.774 839.706,530.82 841.784,529.91 843.862,529.043 
  845.939,528.219 848.017,527.438 850.095,526.701 852.173,526.005 854.251,525.353 856.328,524.743 858.406,524.176 860.484,523.65 862.562,523.167 864.64,522.725 
  866.717,522.325 868.795,521.965 870.873,521.647 872.951,521.37 875.028,521.132 877.106,520.935 879.184,520.777 881.262,520.659 883.34,520.58 885.417,520.539 
  887.495,520.536 889.573,520.571 891.651,520.644 893.729,520.753 895.806,520.899 897.884,521.081 899.962,521.298 902.04,521.551 904.117,521.838 906.195,522.16 
  908.273,522.516 910.351,522.906 912.429,523.328 914.506,523.783 916.584,524.27 918.662,524.788 920.74,525.338 922.818,525.917 924.895,526.527 926.973,527.166 
  929.051,527.834 931.129,528.53 933.206,529.254 935.284,530.005 937.362,530.782 939.44,531.586 941.518,532.416 943.595,533.27 945.673,534.149 947.751,535.051 
  949.829,535.977 951.907,536.925 953.984,537.896 956.062,538.888 958.14,539.901 960.218,540.934 962.295,541.987 964.373,543.059 966.451,544.149 968.529,545.257 
  970.607,546.382 972.684,547.524 974.762,548.682 976.84,549.855 978.918,551.043 980.996,552.245 983.073,553.461 985.151,554.69 987.229,555.931 989.307,557.184 
  991.384,558.448 993.462,559.723 995.54,561.008 997.618,562.302 999.696,563.605 1001.77,564.915 1003.85,566.234 1005.93,567.559 1008.01,568.89 1010.08,570.228 
  1012.16,571.57 1014.24,572.917 1016.32,574.268 1018.4,575.622 1020.47,576.98 1022.55,578.34 1024.63,579.701 1026.71,581.064 1028.78,582.427 1030.86,583.791 
  1032.94,585.154 1035.02,586.517 1037.1,587.878 1039.17,589.237 1041.25,590.594 1043.33,591.948 1045.41,593.299 1047.48,594.646 1049.56,595.988 1051.64,597.325 
  1053.72,598.658 1055.8,599.984 1057.87,601.304 1059.95,602.618 1062.03,603.924 1064.11,605.223 1066.18,606.513 1068.26,607.796 1070.34,609.07 1072.42,610.334 
  1074.5,611.589 1076.57,612.833 1078.65,614.068 1080.73,615.291 1082.81,616.503 1084.88,617.704 1086.96,618.892 1089.04,620.069 1091.12,621.232 1093.2,622.383 
  1095.27,623.52 1097.35,624.644 1099.43,625.754 1101.51,626.849 1103.58,627.93 1105.66,628.996 1107.74,630.047 1109.82,631.083 1111.9,632.103 1113.97,633.107 
  1116.05,634.095 1118.13,635.067 1120.21,636.023 1122.28,636.961 1124.36,637.883 1126.44,638.788 1128.52,639.676 1130.6,640.546 1132.67,641.398 1134.75,642.233 
  1136.83,643.05 1138.91,643.849 1140.99,644.63 1143.06,645.393 1145.14,646.137 1147.22,646.863 1149.3,647.571 1151.37,648.26 1153.45,648.93 1155.53,649.581 
  1157.61,650.213 1159.69,650.827 1161.76,651.421 1163.84,651.997 1165.92,652.553 1168,653.09 1170.07,653.608 1172.15,654.107 1174.23,654.587 1176.31,655.047 
  1178.39,655.488 1180.46,655.91 1182.54,656.313 1184.62,656.697 1186.7,657.062 1188.77,657.408 1190.85,657.734 1192.93,658.042 1195.01,658.331 1197.09,658.602 
  1199.16,658.853 1201.24,659.086 1203.32,659.3 1205.4,659.496 1207.47,659.674 1209.55,659.834 1211.63,659.975 1213.71,660.099 1215.79,660.204 1217.86,660.293 
  1219.94,660.364 1222.02,660.417 1224.1,660.453 1226.17,660.473 1228.25,660.476 1230.33,660.462 1232.41,660.431 1234.49,660.384 1236.56,660.321 1238.64,660.242 
  1240.72,660.147 1242.8,660.036 1244.87,659.91 1246.95,659.769 1249.03,659.613 1251.11,659.442 1253.19,659.257 1255.26,659.057 1257.34,658.843 1259.42,658.616 
  1261.5,658.374 1263.57,658.119 1265.65,657.851 1267.73,657.57 1269.81,657.276 1271.89,656.97 1273.96,656.651 1276.04,656.32 1278.12,655.977 1280.2,655.623 
  1282.27,655.258 1284.35,654.881 1286.43,654.494 1288.51,654.096 1290.59,653.688 1292.66,653.27 1294.74,652.842 1296.82,652.405 1298.9,651.959 1300.97,651.503 
  1303.05,651.039 1305.13,650.567 1307.21,650.087 1309.29,649.598 1311.36,649.103 1313.44,648.6 1315.52,648.09 1317.6,647.573 1319.67,647.049 1321.75,646.519 
  1323.83,645.984 1325.91,645.442 1327.99,644.895 1330.06,644.343 1332.14,643.786 1334.22,643.225 1336.3,642.659 1338.37,642.089 1340.45,641.515 1342.53,640.938 
  1344.61,640.358 1346.69,639.774 1348.76,639.188 1350.84,638.599 1352.92,638.008 1355,637.414 1357.07,636.82 1359.15,636.223 1361.23,635.626 1363.31,635.027 
  1365.39,634.427 1367.46,633.827 1369.54,633.227 1371.62,632.627 1373.7,632.026 1375.77,631.426 1377.85,630.827 1379.93,630.229 1382.01,629.631 1384.09,629.035 
  1386.16,628.441 1388.24,627.848 1390.32,627.257 1392.4,626.668 1394.47,626.082 1396.55,625.498 1398.63,624.917 1400.71,624.339 1402.79,623.764 1404.86,623.193 
  1406.94,622.625 1409.02,622.06 1411.1,621.5 1413.17,620.944 1415.25,620.391 1417.33,619.844 1419.41,619.301 1421.49,618.763 1423.56,618.23 1425.64,617.701 
  1427.72,617.179 1429.8,616.661 1431.88,616.15 1433.95,615.644 1436.03,615.144 1438.11,614.65 1440.19,614.162 1442.26,613.68 1444.34,613.205 1446.42,612.737 
  1448.5,612.275 1450.58,611.819 1452.65,611.371 1454.73,610.93 1456.81,610.496 1458.89,610.069 1460.96,609.649 1463.04,609.236 1465.12,608.831 1467.2,608.434 
  1469.28,608.044 1471.35,607.662 1473.43,607.287 1475.51,606.921 1477.59,606.562 1479.66,606.211 1481.74,605.868 1483.82,605.533 1485.9,605.206 1487.98,604.887 
  1490.05,604.577 1492.13,604.274 1494.21,603.98 1496.29,603.694 1498.36,603.417 1500.44,603.148 1502.52,602.887 1504.6,602.635 1506.68,602.391 1508.75,602.155 
  1510.83,601.928 1512.91,601.709 1514.99,601.499 1517.06,601.297 1519.14,601.104 1521.22,600.919 1523.3,600.743 1525.38,600.575 1527.45,600.415 1529.53,600.264 
  1531.61,600.121 1533.69,599.987 1535.76,599.86 1537.84,599.742 1539.92,599.633 1542,599.531 1544.08,599.438 1546.15,599.353 1548.23,599.275 1550.31,599.206 
  1552.39,599.145 1554.46,599.091 1556.54,599.046 1558.62,599.008 1560.7,598.978 1562.78,598.955 1564.85,598.94 1566.93,598.932 1569.01,598.932 1571.09,598.939 
  1573.16,598.954 1575.24,598.975 1577.32,599.004 1579.4,599.04 1581.48,599.082 1583.55,599.132 1585.63,599.188 1587.71,599.251 1589.79,599.321 1591.86,599.397 
  1593.94,599.479 1596.02,599.568 1598.1,599.663 1600.18,599.764 1602.25,599.872 1604.33,599.985 1606.41,600.104 1608.49,600.228 1610.56,600.358 1612.64,600.494 
  1614.72,600.635 1616.8,600.782 1618.88,600.933 1620.95,601.09 1623.03,601.252 1625.11,601.418 1627.19,601.589 1629.26,601.765 1631.34,601.945 1633.42,602.13 
  1635.5,602.319 1637.58,602.512 1639.65,602.71 1641.73,602.911 1643.81,603.116 1645.89,603.324 1647.96,603.536 1650.04,603.752 1652.12,603.971 1654.2,604.193 
  1656.28,604.418 1658.35,604.646 1660.43,604.877 1662.51,605.11 1664.59,605.347 1666.66,605.586 1668.74,605.827 1670.82,606.07 1672.9,606.316 1674.98,606.563 
  1677.05,606.813 1679.13,607.064 1681.21,607.317 1683.29,607.571 1685.36,607.827 1687.44,608.084 1689.52,608.343 1691.6,608.602 1693.68,608.863 1695.75,609.124 
  1697.83,609.386 1699.91,609.649 1701.99,609.912 1704.06,610.176 1706.14,610.44 1708.22,610.704 1710.3,610.968 1712.38,611.233 1714.45,611.497 1716.53,611.761 
  1718.61,612.025 1720.69,612.288 1722.76,612.551 1724.84,612.814 1726.92,613.075 1729,613.336 1731.08,613.596 1733.15,613.855 1735.23,614.113 1737.31,614.37 
  1739.39,614.626 1741.47,614.88 1743.54,615.133 1745.62,615.384 1747.7,615.634 1749.78,615.882 1751.85,616.129 1753.93,616.374 1756.01,616.616 1758.09,616.857 
  1760.17,617.096 1762.24,617.333 1764.32,617.567 1766.4,617.799 1768.48,618.029 1770.55,618.256 1772.63,618.481 1774.71,618.704 1776.79,618.924 1778.87,619.141 
  1780.94,619.355 1783.02,619.567 1785.1,619.775 1787.18,619.981 1789.25,620.184 1791.33,620.384 1793.41,620.581 1795.49,620.775 1797.57,620.966 1799.64,621.153 
  1801.72,621.337 1803.8,621.518 1805.88,621.696 1807.95,621.871 1810.03,622.042 1812.11,622.21 1814.19,622.374 1816.27,622.535 1818.34,622.692 1820.42,622.846 
  1822.5,622.996 1824.58,623.143 1826.65,623.287 1828.73,623.426 1830.81,623.563 1832.89,623.695 1834.97,623.824 1837.04,623.949 1839.12,624.071 1841.2,624.189 
  1843.28,624.303 1845.35,624.414 1847.43,624.52 1849.51,624.623 1851.59,624.723 1853.67,624.818 1855.74,624.91 1857.82,624.999 1859.9,625.083 1861.98,625.164 
  1864.05,625.241 1866.13,625.314 1868.21,625.384 1870.29,625.45 1872.37,625.512 1874.44,625.571 1876.52,625.626 1878.6,625.677 1880.68,625.725 1882.75,625.769 
  1884.83,625.81 1886.91,625.847 1888.99,625.88 1891.07,625.91 1893.14,625.936 1895.22,625.959 1897.3,625.979 1899.38,625.995 1901.45,626.008 1903.53,626.017 
  1905.61,626.023 1907.69,626.026 1909.77,626.025 1911.84,626.022 1913.92,626.015 1916,626.005 1918.08,625.992 1920.15,625.975 1922.23,625.956 1924.31,625.934 
  1926.39,625.908 1928.47,625.88 1930.54,625.849 1932.62,625.815 1934.7,625.778 1936.78,625.739 1938.85,625.696 1940.93,625.651 1943.01,625.604 1945.09,625.553 
  1947.17,625.501 1949.24,625.445 1951.32,625.388 1953.4,625.327 1955.48,625.265 1957.55,625.2 1959.63,625.133 1961.71,625.064 1963.79,624.992 1965.87,624.918 
  1967.94,624.843 1970.02,624.765 1972.1,624.685 1974.18,624.603 1976.25,624.52 1978.33,624.435 1980.41,624.347 1982.49,624.259 1984.57,624.168 1986.64,624.076 
  1988.72,623.982 1990.8,623.887 1992.88,623.79 1994.95,623.692 1997.03,623.593 1999.11,623.492 2001.19,623.391 2003.27,623.287 2005.34,623.183 2007.42,623.078 
  2009.5,622.972 2011.58,622.864 2013.65,622.756 2015.73,622.647 2017.81,622.537 2019.89,622.426 2021.97,622.314 2024.04,622.202 2026.12,622.089 2028.2,621.976 
  2030.28,621.862 2032.36,621.748 2034.43,621.633 2036.51,621.518 2038.59,621.402 2040.67,621.287 2042.74,621.171 2044.82,621.055 2046.9,620.938 2048.98,620.822 
  2051.06,620.706 2053.13,620.589 2055.21,620.473 2057.29,620.357 2059.37,620.24 2061.44,620.124 2063.52,620.009 2065.6,619.893 2067.68,619.778 2069.76,619.663 
  2071.83,619.549 2073.91,619.435 2075.99,619.321 2078.07,619.208 2080.14,619.096 2082.22,618.984 2084.3,618.873 2086.38,618.762 2088.46,618.652 2090.53,618.543 
  2092.61,618.435 2094.69,618.327 2096.77,618.22 2098.84,618.115 2100.92,618.01 2103,617.906 2105.08,617.803 2107.16,617.7 2109.23,617.599 2111.31,617.499 
  2113.39,617.401 2115.47,617.303 2117.54,617.206 2119.62,617.111 2121.7,617.017 2123.78,616.924 2125.86,616.832 2127.93,616.741 2130.01,616.652 2132.09,616.565 
  2134.17,616.478 2136.24,616.393 2138.32,616.309 2140.4,616.227 2142.48,616.146 2144.56,616.066 2146.63,615.988 2148.71,615.912 2150.79,615.837 2152.87,615.763 
  2154.94,615.691 2157.02,615.62 2159.1,615.551 2161.18,615.484 2163.26,615.418 2165.33,615.354 2167.41,615.291 2169.49,615.23 2171.57,615.17 2173.64,615.112 
  2175.72,615.055 2177.8,615.001 2179.88,614.947 2181.96,614.896 2184.03,614.846 2186.11,614.797 2188.19,614.751 2190.27,614.705 2192.34,614.662 2194.42,614.62 
  2196.5,614.58 2198.58,614.541 2200.66,614.504 2202.73,614.469 2204.81,614.436 2206.89,614.403 2208.97,614.373 2211.04,614.344 2213.12,614.317 2215.2,614.292 
  2217.28,614.268 2219.36,614.245 2221.43,614.225 2223.51,614.205 2225.59,614.188 2227.67,614.172 2229.74,614.157 2231.82,614.144 2233.9,614.133 2235.98,614.123 
  2238.06,614.115 2240.13,614.108 2242.21,614.103 2244.29,614.099 2246.37,614.096 2248.44,614.096 2250.52,614.096 2252.6,614.098 2254.68,614.101 2256.76,614.106 
  
  "/>
<polyline clip-path="url(#clip0102)" style="stroke:#e26f46; stroke-width:4; stroke-opacity:1; fill:none" points="
  181.048,564.494 183.126,582.524 185.204,600.381 187.281,618.065 189.359,635.572 191.437,652.901 193.515,670.05 195.593,687.017 197.67,703.801 199.748,720.399 
  201.826,736.81 203.904,753.032 205.981,769.064 208.059,784.904 210.137,800.549 212.215,815.999 214.293,831.252 216.37,846.306 218.448,861.16 220.526,875.812 
  222.604,890.26 224.682,904.502 226.759,918.538 228.837,932.365 230.915,945.982 232.993,959.387 235.07,972.579 237.148,985.555 239.226,998.314 241.304,1010.85 
  243.382,1023.17 245.459,1035.27 247.537,1047.15 249.615,1058.79 251.693,1070.22 253.771,1081.41 255.848,1092.37 257.926,1103.1 260.004,1113.59 262.082,1123.85 
  264.159,1133.87 266.237,1143.65 268.315,1153.19 270.393,1162.48 272.471,1171.54 274.548,1180.34 276.626,1188.9 278.704,1197.21 280.782,1205.26 282.86,1213.07 
  284.937,1220.62 287.015,1227.91 289.093,1234.95 291.171,1241.73 293.248,1248.25 295.326,1254.51 297.404,1260.51 299.482,1266.25 301.56,1271.72 303.637,1276.93 
  305.715,1281.87 307.793,1286.54 309.871,1290.95 311.949,1295.09 314.026,1298.97 316.104,1302.57 318.182,1305.91 320.26,1308.97 322.337,1311.77 324.415,1314.3 
  326.493,1316.56 328.571,1318.55 330.649,1320.28 332.726,1321.73 334.804,1322.93 336.882,1323.85 338.96,1324.51 341.038,1324.91 343.115,1325.04 345.193,1324.91 
  347.271,1324.53 349.349,1323.88 351.426,1322.98 353.504,1321.82 355.582,1320.41 357.66,1318.75 359.738,1316.84 361.815,1314.68 363.893,1312.28 365.971,1309.64 
  368.049,1306.76 370.127,1303.65 372.204,1300.3 374.282,1296.72 376.36,1292.92 378.438,1288.89 380.515,1284.64 382.593,1280.17 384.671,1275.49 386.749,1270.6 
  388.827,1265.51 390.904,1260.21 392.982,1254.71 395.06,1249.02 397.138,1243.15 399.216,1237.08 401.293,1230.83 403.371,1224.41 405.449,1217.81 407.527,1211.05 
  409.604,1204.12 411.682,1197.03 413.76,1189.78 415.838,1182.39 417.916,1174.84 419.993,1167.16 422.071,1159.34 424.149,1151.39 426.227,1143.31 428.305,1135.11 
  430.382,1126.79 432.46,1118.36 434.538,1109.81 436.616,1101.17 438.693,1092.42 440.771,1083.58 442.849,1074.65 444.927,1065.63 447.005,1056.53 449.082,1047.35 
  451.16,1038.11 453.238,1028.79 455.316,1019.41 457.394,1009.98 459.471,1000.49 461.549,990.948 463.627,981.363 465.705,971.737 467.782,962.075 469.86,952.38 
  471.938,942.658 474.016,932.911 476.094,923.145 478.171,913.363 480.249,903.57 482.327,893.769 484.405,883.964 486.483,874.16 488.56,864.359 490.638,854.566 
  492.716,844.784 494.794,835.016 496.871,825.267 498.949,815.54 501.027,805.838 503.105,796.165 505.183,786.523 507.26,776.917 509.338,767.349 511.416,757.822 
  513.494,748.339 515.572,738.904 517.649,729.519 519.727,720.188 521.805,710.912 523.883,701.695 525.96,692.539 528.038,683.448 530.116,674.423 532.194,665.468 
  534.272,656.585 536.349,647.776 538.427,639.044 540.505,630.392 542.583,621.821 544.661,613.334 546.738,604.934 548.816,596.621 550.894,588.399 552.972,580.27 
  555.049,572.235 557.127,564.297 559.205,556.457 561.283,548.717 563.361,541.079 565.438,533.545 567.516,526.116 569.594,518.794 571.672,511.581 573.75,504.479 
  575.827,497.487 577.905,490.609 579.983,483.845 582.061,477.197 584.138,470.665 586.216,464.252 588.294,457.958 590.372,451.784 592.45,445.731 594.527,439.801 
  596.605,433.995 598.683,428.312 600.761,422.756 602.839,417.326 604.916,412.023 606.994,406.848 609.072,401.802 611.15,396.885 613.227,392.099 615.305,387.444 
  617.383,382.92 619.461,378.528 621.539,374.269 623.616,370.142 625.694,366.149 627.772,362.289 629.85,358.563 631.928,354.97 634.005,351.512 636.083,348.188 
  638.161,344.999 640.239,341.943 642.316,339.022 644.394,336.235 646.472,333.581 648.55,331.062 650.628,328.676 652.705,326.423 654.783,324.302 656.861,322.314 
  658.939,320.458 661.017,318.734 663.094,317.14 665.172,315.676 667.25,314.343 669.328,313.138 671.405,312.062 673.483,311.114 675.561,310.293 677.639,309.598 
  679.717,309.028 681.794,308.583 683.872,308.261 685.95,308.062 688.028,307.984 690.106,308.027 692.183,308.189 694.261,308.469 696.339,308.866 698.417,309.379 
  700.494,310.007 702.572,310.748 704.65,311.601 706.728,312.565 708.806,313.638 710.883,314.819 712.961,316.106 715.039,317.499 717.117,318.995 719.195,320.592 
  721.272,322.29 723.35,324.087 725.428,325.98 727.506,327.969 729.583,330.051 731.661,332.225 733.739,334.489 735.817,336.84 737.895,339.278 739.972,341.8 
  742.05,344.404 744.128,347.088 746.206,349.852 748.284,352.693 750.361,355.609 752.439,358.599 754.517,361.661 756.595,364.792 758.672,367.99 760.75,371.254 
  762.828,374.582 764.906,377.972 766.984,381.421 769.061,384.928 771.139,388.49 773.217,392.106 775.295,395.775 777.373,399.493 779.45,403.259 781.528,407.071 
  783.606,410.927 785.684,414.825 787.761,418.763 789.839,422.74 791.917,426.753 793.995,430.8 796.073,434.88 798.15,438.99 800.228,443.129 802.306,447.295 
  804.384,451.485 806.462,455.698 808.539,459.932 810.617,464.185 812.695,468.455 814.773,472.741 816.85,477.04 818.928,481.35 821.006,485.671 823.084,490 
  825.162,494.335 827.239,498.675 829.317,503.019 831.395,507.363 833.473,511.707 835.551,516.048 837.628,520.386 839.706,524.717 841.784,529.041 843.862,533.357 
  845.939,537.661 848.017,541.953 850.095,546.232 852.173,550.496 854.251,554.742 856.328,558.971 858.406,563.179 860.484,567.367 862.562,571.532 864.64,575.673 
  866.717,579.789 868.795,583.879 870.873,587.941 872.951,591.973 875.028,595.975 877.106,599.946 879.184,603.884 881.262,607.788 883.34,611.657 885.417,615.49 
  887.495,619.286 889.573,623.043 891.651,626.761 893.729,630.439 895.806,634.076 897.884,637.67 899.962,641.221 902.04,644.727 904.117,648.189 906.195,651.605 
  908.273,654.974 910.351,658.295 912.429,661.567 914.506,664.79 916.584,667.963 918.662,671.085 920.74,674.155 922.818,677.173 924.895,680.138 926.973,683.049 
  929.051,685.906 931.129,688.708 933.206,691.455 935.284,694.146 937.362,696.78 939.44,699.358 941.518,701.878 943.595,704.341 945.673,706.745 947.751,709.091 
  949.829,711.378 951.907,713.606 953.984,715.775 956.062,717.884 958.14,719.933 960.218,721.923 962.295,723.852 964.373,725.721 966.451,727.53 968.529,729.278 
  970.607,730.966 972.684,732.593 974.762,734.16 976.84,735.666 978.918,737.112 980.996,738.498 983.073,739.823 985.151,741.087 987.229,742.291 989.307,743.435 
  991.384,744.519 993.462,745.543 995.54,746.507 997.618,747.411 999.696,748.256 1001.77,749.042 1003.85,749.769 1005.93,750.438 1008.01,751.048 1010.08,751.6 
  1012.16,752.094 1014.24,752.531 1016.32,752.912 1018.4,753.235 1020.47,753.503 1022.55,753.714 1024.63,753.871 1026.71,753.972 1028.78,754.02 1030.86,754.013 
  1032.94,753.954 1035.02,753.841 1037.1,753.677 1039.17,753.46 1041.25,753.193 1043.33,752.876 1045.41,752.509 1047.48,752.093 1049.56,751.628 1051.64,751.116 
  1053.72,750.557 1055.8,749.952 1057.87,749.301 1059.95,748.606 1062.03,747.867 1064.11,747.085 1066.18,746.26 1068.26,745.393 1070.34,744.485 1072.42,743.536 
  1074.5,742.547 1076.57,741.52 1078.65,740.454 1080.73,739.351 1082.81,738.212 1084.88,737.037 1086.96,735.827 1089.04,734.583 1091.12,733.306 1093.2,731.996 
  1095.27,730.655 1097.35,729.284 1099.43,727.882 1101.51,726.451 1103.58,724.992 1105.66,723.506 1107.74,721.993 1109.82,720.455 1111.9,718.891 1113.97,717.304 
  1116.05,715.694 1118.13,714.061 1120.21,712.407 1122.28,710.732 1124.36,709.037 1126.44,707.324 1128.52,705.593 1130.6,703.844 1132.67,702.079 1134.75,700.299 
  1136.83,698.505 1138.91,696.697 1140.99,694.876 1143.06,693.043 1145.14,691.199 1147.22,689.345 1149.3,687.481 1151.37,685.609 1153.45,683.728 1155.53,681.841 
  1157.61,679.947 1159.69,678.047 1161.76,676.144 1163.84,674.236 1165.92,672.325 1168,670.412 1170.07,668.498 1172.15,666.583 1174.23,664.668 1176.31,662.754 
  1178.39,660.842 1180.46,658.932 1182.54,657.025 1184.62,655.121 1186.7,653.223 1188.77,651.329 1190.85,649.441 1192.93,647.56 1195.01,645.686 1197.09,643.819 
  1199.16,641.962 1201.24,640.113 1203.32,638.274 1205.4,636.445 1207.47,634.627 1209.55,632.821 1211.63,631.027 1213.71,629.245 1215.79,627.477 1217.86,625.722 
  1219.94,623.982 1222.02,622.257 1224.1,620.547 1226.17,618.853 1228.25,617.175 1230.33,615.514 1232.41,613.87 1234.49,612.244 1236.56,610.636 1238.64,609.047 
  1240.72,607.477 1242.8,605.927 1244.87,604.397 1246.95,602.887 1249.03,601.398 1251.11,599.93 1253.19,598.484 1255.26,597.06 1257.34,595.658 1259.42,594.278 
  1261.5,592.922 1263.57,591.589 1265.65,590.28 1267.73,588.994 1269.81,587.732 1271.89,586.495 1273.96,585.283 1276.04,584.095 1278.12,582.932 1280.2,581.795 
  1282.27,580.683 1284.35,579.596 1286.43,578.536 1288.51,577.501 1290.59,576.492 1292.66,575.51 1294.74,574.554 1296.82,573.624 1298.9,572.72 1300.97,571.843 
  1303.05,570.993 1305.13,570.169 1307.21,569.372 1309.29,568.602 1311.36,567.858 1313.44,567.141 1315.52,566.451 1317.6,565.787 1319.67,565.151 1321.75,564.541 
  1323.83,563.958 1325.91,563.402 1327.99,562.872 1330.06,562.369 1332.14,561.893 1334.22,561.443 1336.3,561.02 1338.37,560.623 1340.45,560.253 1342.53,559.908 
  1344.61,559.59 1346.69,559.297 1348.76,559.03 1350.84,558.789 1352.92,558.573 1355,558.383 1357.07,558.218 1359.15,558.078 1361.23,557.962 1363.31,557.871 
  1365.39,557.805 1367.46,557.762 1369.54,557.744 1371.62,557.749 1373.7,557.778 1375.77,557.83 1377.85,557.905 1379.93,558.002 1382.01,558.122 1384.09,558.265 
  1386.16,558.428 1388.24,558.614 1390.32,558.82 1392.4,559.048 1394.47,559.296 1396.55,559.564 1398.63,559.852 1400.71,560.16 1402.79,560.487 1404.86,560.834 
  1406.94,561.199 1409.02,561.583 1411.1,561.985 1413.17,562.405 1415.25,562.842 1417.33,563.296 1419.41,563.767 1421.49,564.254 1423.56,564.757 1425.64,565.276 
  1427.72,565.811 1429.8,566.36 1431.88,566.924 1433.95,567.502 1436.03,568.093 1438.11,568.699 1440.19,569.317 1442.26,569.949 1444.34,570.592 1446.42,571.248 
  1448.5,571.916 1450.58,572.594 1452.65,573.284 1454.73,573.984 1456.81,574.694 1458.89,575.414 1460.96,576.144 1463.04,576.882 1465.12,577.63 1467.2,578.385 
  1469.28,579.148 1471.35,579.919 1473.43,580.697 1475.51,581.482 1477.59,582.273 1479.66,583.07 1481.74,583.872 1483.82,584.68 1485.9,585.492 1487.98,586.309 
  1490.05,587.13 1492.13,587.956 1494.21,588.784 1496.29,589.616 1498.36,590.45 1500.44,591.287 1502.52,592.126 1504.6,592.966 1506.68,593.808 1508.75,594.65 
  1510.83,595.493 1512.91,596.337 1514.99,597.18 1517.06,598.023 1519.14,598.865 1521.22,599.706 1523.3,600.546 1525.38,601.384 1527.45,602.22 1529.53,603.054 
  1531.61,603.885 1533.69,604.714 1535.76,605.539 1537.84,606.361 1539.92,607.179 1542,607.993 1544.08,608.802 1546.15,609.607 1548.23,610.408 1550.31,611.203 
  1552.39,611.993 1554.46,612.777 1556.54,613.555 1558.62,614.327 1560.7,615.093 1562.78,615.853 1564.85,616.605 1566.93,617.351 1569.01,618.089 1571.09,618.82 
  1573.16,619.543 1575.24,620.259 1577.32,620.966 1579.4,621.665 1581.48,622.356 1583.55,623.038 1585.63,623.711 1587.71,624.375 1589.79,625.03 1591.86,625.675 
  1593.94,626.311 1596.02,626.937 1598.1,627.554 1600.18,628.16 1602.25,628.756 1604.33,629.342 1606.41,629.918 1608.49,630.483 1610.56,631.037 1612.64,631.58 
  1614.72,632.113 1616.8,632.635 1618.88,633.145 1620.95,633.645 1623.03,634.133 1625.11,634.61 1627.19,635.076 1629.26,635.53 1631.34,635.972 1633.42,636.403 
  1635.5,636.823 1637.58,637.231 1639.65,637.627 1641.73,638.012 1643.81,638.384 1645.89,638.745 1647.96,639.095 1650.04,639.432 1652.12,639.758 1654.2,640.072 
  1656.28,640.374 1658.35,640.665 1660.43,640.943 1662.51,641.21 1664.59,641.465 1666.66,641.708 1668.74,641.94 1670.82,642.159 1672.9,642.367 1674.98,642.564 
  1677.05,642.748 1679.13,642.921 1681.21,643.083 1683.29,643.233 1685.36,643.371 1687.44,643.498 1689.52,643.614 1691.6,643.718 1693.68,643.812 1695.75,643.894 
  1697.83,643.965 1699.91,644.025 1701.99,644.074 1704.06,644.112 1706.14,644.14 1708.22,644.157 1710.3,644.163 1712.38,644.159 1714.45,644.145 1716.53,644.12 
  1718.61,644.086 1720.69,644.041 1722.76,643.987 1724.84,643.922 1726.92,643.849 1729,643.766 1731.08,643.673 1733.15,643.571 1735.23,643.461 1737.31,643.341 
  1739.39,643.213 1741.47,643.076 1743.54,642.93 1745.62,642.776 1747.7,642.614 1749.78,642.444 1751.85,642.265 1753.93,642.079 1756.01,641.886 1758.09,641.684 
  1760.17,641.476 1762.24,641.26 1764.32,641.037 1766.4,640.808 1768.48,640.571 1770.55,640.328 1772.63,640.079 1774.71,639.823 1776.79,639.562 1778.87,639.294 
  1780.94,639.021 1783.02,638.742 1785.1,638.458 1787.18,638.168 1789.25,637.874 1791.33,637.574 1793.41,637.269 1795.49,636.96 1797.57,636.647 1799.64,636.329 
  1801.72,636.007 1803.8,635.681 1805.88,635.352 1807.95,635.019 1810.03,634.682 1812.11,634.342 1814.19,633.999 1816.27,633.653 1818.34,633.304 1820.42,632.953 
  1822.5,632.599 1824.58,632.243 1826.65,631.885 1828.73,631.525 1830.81,631.163 1832.89,630.799 1834.97,630.434 1837.04,630.068 1839.12,629.7 1841.2,629.332 
  1843.28,628.962 1845.35,628.592 1847.43,628.221 1849.51,627.85 1851.59,627.479 1853.67,627.107 1855.74,626.736 1857.82,626.365 1859.9,625.994 1861.98,625.623 
  1864.05,625.254 1866.13,624.885 1868.21,624.517 1870.29,624.15 1872.37,623.784 1874.44,623.419 1876.52,623.056 1878.6,622.694 1880.68,622.334 1882.75,621.976 
  1884.83,621.62 1886.91,621.266 1888.99,620.914 1891.07,620.564 1893.14,620.217 1895.22,619.872 1897.3,619.53 1899.38,619.19 1901.45,618.853 1903.53,618.519 
  1905.61,618.188 1907.69,617.861 1909.77,617.536 1911.84,617.215 1913.92,616.897 1916,616.583 1918.08,616.272 1920.15,615.964 1922.23,615.661 1924.31,615.361 
  1926.39,615.065 1928.47,614.774 1930.54,614.486 1932.62,614.202 1934.7,613.923 1936.78,613.648 1938.85,613.377 1940.93,613.111 1943.01,612.849 1945.09,612.592 
  1947.17,612.339 1949.24,612.091 1951.32,611.848 1953.4,611.609 1955.48,611.375 1957.55,611.146 1959.63,610.922 1961.71,610.703 1963.79,610.489 1965.87,610.28 
  1967.94,610.075 1970.02,609.876 1972.1,609.682 1974.18,609.493 1976.25,609.309 1978.33,609.131 1980.41,608.957 1982.49,608.789 1984.57,608.625 1986.64,608.467 
  1988.72,608.315 1990.8,608.167 1992.88,608.024 1994.95,607.887 1997.03,607.755 1999.11,607.628 2001.19,607.506 2003.27,607.39 2005.34,607.278 2007.42,607.172 
  2009.5,607.071 2011.58,606.975 2013.65,606.885 2015.73,606.799 2017.81,606.719 2019.89,606.643 2021.97,606.573 2024.04,606.508 2026.12,606.448 2028.2,606.393 
  2030.28,606.343 2032.36,606.297 2034.43,606.257 2036.51,606.222 2038.59,606.191 2040.67,606.166 2042.74,606.145 2044.82,606.129 2046.9,606.118 2048.98,606.111 
  2051.06,606.109 2053.13,606.111 2055.21,606.118 2057.29,606.13 2059.37,606.146 2061.44,606.166 2063.52,606.191 2065.6,606.22 2067.68,606.253 2069.76,606.291 
  2071.83,606.332 2073.91,606.378 2075.99,606.427 2078.07,606.48 2080.14,606.538 2082.22,606.599 2084.3,606.664 2086.38,606.732 2088.46,606.804 2090.53,606.88 
  2092.61,606.959 2094.69,607.041 2096.77,607.127 2098.84,607.216 2100.92,607.309 2103,607.404 2105.08,607.503 2107.16,607.605 2109.23,607.709 2111.31,607.817 
  2113.39,607.927 2115.47,608.04 2117.54,608.156 2119.62,608.274 2121.7,608.395 2123.78,608.518 2125.86,608.644 2127.93,608.772 2130.01,608.902 2132.09,609.034 
  2134.17,609.169 2136.24,609.305 2138.32,609.443 2140.4,609.583 2142.48,609.725 2144.56,609.869 2146.63,610.015 2148.71,610.162 2150.79,610.31 2152.87,610.46 
  2154.94,610.611 2157.02,610.764 2159.1,610.918 2161.18,611.073 2163.26,611.229 2165.33,611.385 2167.41,611.543 2169.49,611.702 2171.57,611.862 2173.64,612.022 
  2175.72,612.183 2177.8,612.344 2179.88,612.506 2181.96,612.668 2184.03,612.831 2186.11,612.994 2188.19,613.157 2190.27,613.321 2192.34,613.484 2194.42,613.648 
  2196.5,613.812 2198.58,613.975 2200.66,614.138 2202.73,614.301 2204.81,614.464 2206.89,614.627 2208.97,614.789 2211.04,614.95 2213.12,615.111 2215.2,615.272 
  2217.28,615.432 2219.36,615.591 2221.43,615.749 2223.51,615.907 2225.59,616.063 2227.67,616.219 2229.74,616.374 2231.82,616.528 2233.9,616.681 2235.98,616.832 
  2238.06,616.983 2240.13,617.132 2242.21,617.28 2244.29,617.427 2246.37,617.572 2248.44,617.716 2250.52,617.859 2252.6,618 2254.68,618.14 2256.76,618.278 
  
  "/>
<circle clip-path="url(#clip0102)" cx="388.619" cy="585.066" r="14" fill="#3da44d" fill-rule="evenodd" fill-opacity="1" stroke="#000000" stroke-opacity="1" stroke-width="3.072"/>
<circle clip-path="url(#clip0102)" cx="596.19" cy="813.448" r="14" fill="#3da44d" fill-rule="evenodd" fill-opacity="1" stroke="#000000" stroke-opacity="1" stroke-width="3.072"/>
<circle clip-path="url(#clip0102)" cx="803.76" cy="554.725" r="14" fill="#3da44d" fill-rule="evenodd" fill-opacity="1" stroke="#000000" stroke-opacity="1" stroke-width="3.072"/>
<circle clip-path="url(#clip0102)" cx="1011.33" cy="560.061" r="14" fill="#3da44d" fill-rule="evenodd" fill-opacity="1" stroke="#000000" stroke-opacity="1" stroke-width="3.072"/>
<circle clip-path="url(#clip0102)" cx="1218.9" cy="661.133" r="14" fill="#3da44d" fill-rule="evenodd" fill-opacity="1" stroke="#000000" stroke-opacity="1" stroke-width="3.072"/>
<circle clip-path="url(#clip0102)" cx="1426.47" cy="623.636" r="14" fill="#3da44d" fill-rule="evenodd" fill-opacity="1" stroke="#000000" stroke-opacity="1" stroke-width="3.072"/>
<circle clip-path="url(#clip0102)" cx="1634.04" cy="604.549" r="14" fill="#3da44d" fill-rule="evenodd" fill-opacity="1" stroke="#000000" stroke-opacity="1" stroke-width="3.072"/>
<circle clip-path="url(#clip0102)" cx="1841.61" cy="626.888" r="14" fill="#3da44d" fill-rule="evenodd" fill-opacity="1" stroke="#000000" stroke-opacity="1" stroke-width="3.072"/>
<circle clip-path="url(#clip0102)" cx="2049.19" cy="626.361" r="14" fill="#3da44d" fill-rule="evenodd" fill-opacity="1" stroke="#000000" stroke-opacity="1" stroke-width="3.072"/>
<circle clip-path="url(#clip0102)" cx="2256.76" cy="614.529" r="14" fill="#3da44d" fill-rule="evenodd" fill-opacity="1" stroke="#000000" stroke-opacity="1" stroke-width="3.072"/>
<circle clip-path="url(#clip0102)" cx="388.619" cy="1269.31" r="14" fill="#c271d2" fill-rule="evenodd" fill-opacity="1" stroke="#000000" stroke-opacity="1" stroke-width="3.072"/>
<circle clip-path="url(#clip0102)" cx="596.19" cy="433.752" r="14" fill="#c271d2" fill-rule="evenodd" fill-opacity="1" stroke="#000000" stroke-opacity="1" stroke-width="3.072"/>
<circle clip-path="url(#clip0102)" cx="803.76" cy="454.556" r="14" fill="#c271d2" fill-rule="evenodd" fill-opacity="1" stroke="#000000" stroke-opacity="1" stroke-width="3.072"/>
<circle clip-path="url(#clip0102)" cx="1011.33" cy="755.55" r="14" fill="#c271d2" fill-rule="evenodd" fill-opacity="1" stroke="#000000" stroke-opacity="1" stroke-width="3.072"/>
<circle clip-path="url(#clip0102)" cx="1218.9" cy="624.45" r="14" fill="#c271d2" fill-rule="evenodd" fill-opacity="1" stroke="#000000" stroke-opacity="1" stroke-width="3.072"/>
<circle clip-path="url(#clip0102)" cx="1426.47" cy="564.363" r="14" fill="#c271d2" fill-rule="evenodd" fill-opacity="1" stroke="#000000" stroke-opacity="1" stroke-width="3.072"/>
<circle clip-path="url(#clip0102)" cx="1634.04" cy="628.734" r="14" fill="#c271d2" fill-rule="evenodd" fill-opacity="1" stroke="#000000" stroke-opacity="1" stroke-width="3.072"/>
<circle clip-path="url(#clip0102)" cx="1841.61" cy="636.431" r="14" fill="#c271d2" fill-rule="evenodd" fill-opacity="1" stroke="#000000" stroke-opacity="1" stroke-width="3.072"/>
<circle clip-path="url(#clip0102)" cx="2049.19" cy="597.002" r="14" fill="#c271d2" fill-rule="evenodd" fill-opacity="1" stroke="#000000" stroke-opacity="1" stroke-width="3.072"/>
<circle clip-path="url(#clip0102)" cx="2256.76" cy="616.351" r="14" fill="#c271d2" fill-rule="evenodd" fill-opacity="1" stroke="#000000" stroke-opacity="1" stroke-width="3.072"/>
<path clip-path="url(#clip0100)" d="
M1858.27 427.404 L2187.64 427.404 L2187.64 125.004 L1858.27 125.004  Z
  " fill="#ffffff" fill-rule="evenodd" fill-opacity="1"/>
<polyline clip-path="url(#clip0100)" style="stroke:#000000; stroke-width:4; stroke-opacity:1; fill:none" points="
  1858.27,427.404 2187.64,427.404 2187.64,125.004 1858.27,125.004 1858.27,427.404 
  "/>
<polyline clip-path="url(#clip0100)" style="stroke:#009af9; stroke-width:4; stroke-opacity:1; fill:none" points="
  1881.31,185.484 2019.55,185.484 
  "/>
<g clip-path="url(#clip0100)">
<text style="fill:#000000; fill-opacity:1; font-family:Arial,Helvetica Neue,Helvetica,sans-serif; font-size:48px; text-anchor:start;" transform="rotate(0, 2042.59, 202.984)" x="2042.59" y="202.984">u1(t)</text>
</g>
<polyline clip-path="url(#clip0100)" style="stroke:#e26f46; stroke-width:4; stroke-opacity:1; fill:none" points="
  1881.31,245.964 2019.55,245.964 
  "/>
<g clip-path="url(#clip0100)">
<text style="fill:#000000; fill-opacity:1; font-family:Arial,Helvetica Neue,Helvetica,sans-serif; font-size:48px; text-anchor:start;" transform="rotate(0, 2042.59, 263.464)" x="2042.59" y="263.464">u2(t)</text>
</g>
<circle clip-path="url(#clip0100)" cx="1961.95" cy="306.444" r="21" fill="#3da44d" fill-rule="evenodd" fill-opacity="1" stroke="#000000" stroke-opacity="1" stroke-width="3.072"/>
<g clip-path="url(#clip0100)">
<text style="fill:#000000; fill-opacity:1; font-family:Arial,Helvetica Neue,Helvetica,sans-serif; font-size:48px; text-anchor:start;" transform="rotate(0, 2042.59, 323.944)" x="2042.59" y="323.944">y3</text>
</g>
<circle clip-path="url(#clip0100)" cx="1961.95" cy="366.924" r="21" fill="#c271d2" fill-rule="evenodd" fill-opacity="1" stroke="#000000" stroke-opacity="1" stroke-width="3.072"/>
<g clip-path="url(#clip0100)">
<text style="fill:#000000; fill-opacity:1; font-family:Arial,Helvetica Neue,Helvetica,sans-serif; font-size:48px; text-anchor:start;" transform="rotate(0, 2042.59, 384.424)" x="2042.59" y="384.424">y4</text>
</g>
</svg>
