<?xml version="1.0" encoding="utf-8"?>
<svg xmlns="http://www.w3.org/2000/svg" xmlns:xlink="http://www.w3.org/1999/xlink" width="576" height="384" viewBox="0 0 2304 1536">
<defs>
  <clipPath id="clip9700">
    <rect x="0" y="0" width="2304" height="1536"/>
  </clipPath>
</defs>
<path clip-path="url(#clip9700)" d="
M0 1536 L2304 1536 L2304 0 L0 0  Z
  " fill="#ffffff" fill-rule="evenodd" fill-opacity="1"/>
<defs>
  <clipPath id="clip9701">
    <rect x="460" y="0" width="1614" height="1536"/>
  </clipPath>
</defs>
<path clip-path="url(#clip9700)" d="
M198.008 1417.39 L2256.76 1417.39 L2256.76 47.2441 L198.008 47.2441  Z
  " fill="#ffffff" fill-rule="evenodd" fill-opacity="1"/>
<defs>
  <clipPath id="clip9702">
    <rect x="198" y="47" width="2060" height="1371"/>
  </clipPath>
</defs>
<polyline clip-path="url(#clip9702)" style="stroke:#000000; stroke-width:2; stroke-opacity:0.1; fill:none" points="
  198.008,1417.39 198.008,47.2441 
  "/>
<polyline clip-path="url(#clip9702)" style="stroke:#000000; stroke-width:2; stroke-opacity:0.1; fill:none" points="
  609.758,1417.39 609.758,47.2441 
  "/>
<polyline clip-path="url(#clip9702)" style="stroke:#000000; stroke-width:2; stroke-opacity:0.1; fill:none" points="
  1021.51,1417.39 1021.51,47.2441 
  "/>
<polyline clip-path="url(#clip9702)" style="stroke:#000000; stroke-width:2; stroke-opacity:0.1; fill:none" points="
  1433.26,1417.39 1433.26,47.2441 
  "/>
<polyline clip-path="url(#clip9702)" style="stroke:#000000; stroke-width:2; stroke-opacity:0.1; fill:none" points="
  1845.01,1417.39 1845.01,47.2441 
  "/>
<polyline clip-path="url(#clip9702)" style="stroke:#000000; stroke-width:2; stroke-opacity:0.1; fill:none" points="
  2256.76,1417.39 2256.76,47.2441 
  "/>
<polyline clip-path="url(#clip9702)" style="stroke:#000000; stroke-width:2; stroke-opacity:0.1; fill:none" points="
  198.008,1196.48 2256.76,1196.48 
  "/>
<polyline clip-path="url(#clip9702)" style="stroke:#000000; stroke-width:2; stroke-opacity:0.1; fill:none" points="
  198.008,919.071 2256.76,919.071 
  "/>
<polyline clip-path="url(#clip9702)" style="stroke:#000000; stroke-width:2; stroke-opacity:0.1; fill:none" points="
  198.008,641.663 2256.76,641.663 
  "/>
<polyline clip-path="url(#clip9702)" style="stroke:#000000; stroke-width:2; stroke-opacity:0.1; fill:none" points="
  198.008,364.254 2256.76,364.254 
  "/>
<polyline clip-path="url(#clip9702)" style="stroke:#000000; stroke-width:2; stroke-opacity:0.1; fill:none" points="
  198.008,86.8459 2256.76,86.8459 
  "/>
<polyline clip-path="url(#clip9700)" style="stroke:#000000; stroke-width:4; stroke-opacity:1; fill:none" points="
  198.008,1417.39 2256.76,1417.39 
  "/>
<polyline clip-path="url(#clip9700)" style="stroke:#000000; stroke-width:4; stroke-opacity:1; fill:none" points="
  198.008,1417.39 198.008,47.2441 
  "/>
<polyline clip-path="url(#clip9700)" style="stroke:#000000; stroke-width:4; stroke-opacity:1; fill:none" points="
  198.008,1417.39 198.008,1400.95 
  "/>
<polyline clip-path="url(#clip9700)" style="stroke:#000000; stroke-width:4; stroke-opacity:1; fill:none" points="
  609.758,1417.39 609.758,1400.95 
  "/>
<polyline clip-path="url(#clip9700)" style="stroke:#000000; stroke-width:4; stroke-opacity:1; fill:none" points="
  1021.51,1417.39 1021.51,1400.95 
  "/>
<polyline clip-path="url(#clip9700)" style="stroke:#000000; stroke-width:4; stroke-opacity:1; fill:none" points="
  1433.26,1417.39 1433.26,1400.95 
  "/>
<polyline clip-path="url(#clip9700)" style="stroke:#000000; stroke-width:4; stroke-opacity:1; fill:none" points="
  1845.01,1417.39 1845.01,1400.95 
  "/>
<polyline clip-path="url(#clip9700)" style="stroke:#000000; stroke-width:4; stroke-opacity:1; fill:none" points="
  2256.76,1417.39 2256.76,1400.95 
  "/>
<polyline clip-path="url(#clip9700)" style="stroke:#000000; stroke-width:4; stroke-opacity:1; fill:none" points="
  198.008,1196.48 222.713,1196.48 
  "/>
<polyline clip-path="url(#clip9700)" style="stroke:#000000; stroke-width:4; stroke-opacity:1; fill:none" points="
  198.008,919.071 222.713,919.071 
  "/>
<polyline clip-path="url(#clip9700)" style="stroke:#000000; stroke-width:4; stroke-opacity:1; fill:none" points="
  198.008,641.663 222.713,641.663 
  "/>
<polyline clip-path="url(#clip9700)" style="stroke:#000000; stroke-width:4; stroke-opacity:1; fill:none" points="
  198.008,364.254 222.713,364.254 
  "/>
<polyline clip-path="url(#clip9700)" style="stroke:#000000; stroke-width:4; stroke-opacity:1; fill:none" points="
  198.008,86.8459 222.713,86.8459 
  "/>
<g clip-path="url(#clip9700)">
<text style="fill:#000000; fill-opacity:1; font-family:Arial,Helvetica Neue,Helvetica,sans-serif; font-size:48px; text-anchor:middle;" transform="rotate(0, 198.008, 1470.91)" x="198.008" y="1470.91">0</text>
</g>
<g clip-path="url(#clip9700)">
<text style="fill:#000000; fill-opacity:1; font-family:Arial,Helvetica Neue,Helvetica,sans-serif; font-size:48px; text-anchor:middle;" transform="rotate(0, 609.758, 1470.91)" x="609.758" y="1470.91">2</text>
</g>
<g clip-path="url(#clip9700)">
<text style="fill:#000000; fill-opacity:1; font-family:Arial,Helvetica Neue,Helvetica,sans-serif; font-size:48px; text-anchor:middle;" transform="rotate(0, 1021.51, 1470.91)" x="1021.51" y="1470.91">4</text>
</g>
<g clip-path="url(#clip9700)">
<text style="fill:#000000; fill-opacity:1; font-family:Arial,Helvetica Neue,Helvetica,sans-serif; font-size:48px; text-anchor:middle;" transform="rotate(0, 1433.26, 1470.91)" x="1433.26" y="1470.91">6</text>
</g>
<g clip-path="url(#clip9700)">
<text style="fill:#000000; fill-opacity:1; font-family:Arial,Helvetica Neue,Helvetica,sans-serif; font-size:48px; text-anchor:middle;" transform="rotate(0, 1845.01, 1470.91)" x="1845.01" y="1470.91">8</text>
</g>
<g clip-path="url(#clip9700)">
<text style="fill:#000000; fill-opacity:1; font-family:Arial,Helvetica Neue,Helvetica,sans-serif; font-size:48px; text-anchor:middle;" transform="rotate(0, 2256.76, 1470.91)" x="2256.76" y="1470.91">10</text>
</g>
<g clip-path="url(#clip9700)">
<text style="fill:#000000; fill-opacity:1; font-family:Arial,Helvetica Neue,Helvetica,sans-serif; font-size:48px; text-anchor:end;" transform="rotate(0, 174.968, 1213.98)" x="174.968" y="1213.98">-1.0</text>
</g>
<g clip-path="url(#clip9700)">
<text style="fill:#000000; fill-opacity:1; font-family:Arial,Helvetica Neue,Helvetica,sans-serif; font-size:48px; text-anchor:end;" transform="rotate(0, 174.968, 936.571)" x="174.968" y="936.571">-0.5</text>
</g>
<g clip-path="url(#clip9700)">
<text style="fill:#000000; fill-opacity:1; font-family:Arial,Helvetica Neue,Helvetica,sans-serif; font-size:48px; text-anchor:end;" transform="rotate(0, 174.968, 659.163)" x="174.968" y="659.163">0.0</text>
</g>
<g clip-path="url(#clip9700)">
<text style="fill:#000000; fill-opacity:1; font-family:Arial,Helvetica Neue,Helvetica,sans-serif; font-size:48px; text-anchor:end;" transform="rotate(0, 174.968, 381.754)" x="174.968" y="381.754">0.5</text>
</g>
<g clip-path="url(#clip9700)">
<text style="fill:#000000; fill-opacity:1; font-family:Arial,Helvetica Neue,Helvetica,sans-serif; font-size:48px; text-anchor:end;" transform="rotate(0, 174.968, 104.346)" x="174.968" y="104.346">1.0</text>
</g>
<g clip-path="url(#clip9700)">
<text style="fill:#000000; fill-opacity:1; font-family:Arial,Helvetica Neue,Helvetica,sans-serif; font-size:66px; text-anchor:middle;" transform="rotate(0, 1227.38, 1550.3)" x="1227.38" y="1550.3">t</text>
</g>
<polyline clip-path="url(#clip9702)" style="stroke:#009af9; stroke-width:4; stroke-opacity:1; fill:none" points="
  198.008,86.8459 200.069,86.3847 202.13,86.1106 204.19,86.0219 206.251,86.1167 208.312,86.3932 210.373,86.8495 212.434,87.4837 214.495,88.2939 216.555,89.2782 
  218.616,90.4346 220.677,91.7612 222.738,93.256 224.799,94.917 226.859,96.7422 228.92,98.7295 230.981,100.877 233.042,103.183 235.103,105.644 237.163,108.259 
  239.224,111.027 241.285,113.943 243.346,117.008 245.407,120.217 247.467,123.57 249.528,127.063 251.589,130.696 253.65,134.464 255.711,138.367 257.772,142.402 
  259.832,146.566 261.893,150.858 263.954,155.275 266.015,159.814 268.076,164.474 270.136,169.252 272.197,174.145 274.258,179.151 276.319,184.269 278.38,189.494 
  280.44,194.825 282.501,200.259 284.562,205.795 286.623,211.428 288.684,217.157 290.744,222.979 292.805,228.891 294.866,234.892 296.927,240.978 298.988,247.146 
  301.048,253.395 303.109,259.721 305.17,266.121 307.231,272.594 309.292,279.136 311.353,285.745 313.413,292.418 315.474,299.152 317.535,305.945 319.596,312.794 
  321.657,319.695 323.717,326.647 325.778,333.646 327.839,340.689 329.9,347.774 331.961,354.898 334.021,362.058 336.082,369.252 338.143,376.476 340.204,383.727 
  342.265,391.004 344.325,398.303 346.386,405.621 348.447,412.956 350.508,420.304 352.569,427.664 354.63,435.032 356.69,442.406 358.751,449.782 360.812,457.159 
  362.873,464.532 364.934,471.901 366.994,479.262 369.055,486.612 371.116,493.949 373.177,501.269 375.238,508.571 377.298,515.852 379.359,523.109 381.42,530.339 
  383.481,537.541 385.542,544.711 387.602,551.847 389.663,558.947 391.724,566.009 393.785,573.029 395.846,580.007 397.906,586.939 399.967,593.823 402.028,600.658 
  404.089,607.44 406.15,614.169 408.211,620.841 410.271,627.455 412.332,634.008 414.393,640.5 416.454,646.927 418.515,653.288 420.575,659.581 422.636,665.805 
  424.697,671.957 426.758,678.037 428.819,684.041 430.879,689.969 432.94,695.819 435.001,701.59 437.062,707.28 439.123,712.888 441.183,718.412 443.244,723.85 
  445.305,729.203 447.366,734.468 449.427,739.645 451.488,744.732 453.548,749.728 455.609,754.632 457.67,759.444 459.731,764.162 461.792,768.786 463.852,773.314 
  465.913,777.746 467.974,782.082 470.035,786.32 472.096,790.46 474.156,794.501 476.217,798.443 478.278,802.286 480.339,806.029 482.4,809.671 484.46,813.212 
  486.521,816.652 488.582,819.99 490.643,823.227 492.704,826.362 494.765,829.395 496.825,832.325 498.886,835.154 500.947,837.88 503.008,840.503 505.069,843.025 
  507.129,845.444 509.19,847.761 511.251,849.976 513.312,852.09 515.373,854.102 517.433,856.013 519.494,857.823 521.555,859.533 523.616,861.142 525.677,862.652 
  527.737,864.063 529.798,865.375 531.859,866.589 533.92,867.705 535.981,868.725 538.041,869.648 540.102,870.476 542.163,871.208 544.224,871.846 546.285,872.391 
  548.346,872.842 550.406,873.201 552.467,873.469 554.528,873.646 556.589,873.733 558.65,873.732 560.71,873.642 562.771,873.466 564.832,873.203 566.893,872.855 
  568.954,872.422 571.014,871.906 573.075,871.308 575.136,870.629 577.197,869.869 579.258,869.031 581.318,868.114 583.379,867.12 585.44,866.05 587.501,864.905 
  589.562,863.687 591.623,862.397 593.683,861.035 595.744,859.603 597.805,858.103 599.866,856.535 601.927,854.9 603.987,853.201 606.048,851.439 608.109,849.614 
  610.17,847.727 612.231,845.78 614.291,843.775 616.352,841.712 618.413,839.594 620.474,837.421 622.535,835.194 624.595,832.916 626.656,830.587 628.717,828.209 
  630.778,825.784 632.839,823.312 634.899,820.795 636.96,818.234 639.021,815.631 641.082,812.987 643.143,810.303 645.204,807.582 647.264,804.823 649.325,802.03 
  651.386,799.202 653.447,796.342 655.508,793.45 657.568,790.529 659.629,787.579 661.69,784.602 663.751,781.599 665.812,778.573 667.872,775.523 669.933,772.452 
  671.994,769.361 674.055,766.251 676.116,763.124 678.176,759.981 680.237,756.823 682.298,753.651 684.359,750.468 686.42,747.273 688.481,744.07 690.541,740.858 
  692.602,737.64 694.663,734.417 696.724,731.19 698.785,727.96 700.845,724.729 702.906,721.498 704.967,718.268 707.028,715.04 709.089,711.816 711.149,708.598 
  713.21,705.385 715.271,702.179 717.332,698.982 719.393,695.795 721.453,692.618 723.514,689.453 725.575,686.301 727.636,683.163 729.697,680.04 731.758,676.933 
  733.818,673.844 735.879,670.772 737.94,667.72 740.001,664.688 742.062,661.677 744.122,658.689 746.183,655.723 748.244,652.781 750.305,649.864 752.366,646.973 
  754.426,644.109 756.487,641.272 758.548,638.463 760.609,635.683 762.67,632.934 764.73,630.215 766.791,627.527 768.852,624.872 770.913,622.25 772.974,619.661 
  775.034,617.107 777.095,614.588 779.156,612.104 781.217,609.657 783.278,607.247 785.339,604.874 787.399,602.54 789.46,600.244 791.521,597.987 793.582,595.77 
  795.643,593.593 797.703,591.456 799.764,589.361 801.825,587.306 803.886,585.294 805.947,583.324 808.007,581.396 810.068,579.511 812.129,577.669 814.19,575.87 
  816.251,574.115 818.311,572.403 820.372,570.736 822.433,569.113 824.494,567.534 826.555,566 828.616,564.51 830.676,563.065 832.737,561.665 834.798,560.31 
  836.859,559 838.92,557.735 840.98,556.515 843.041,555.341 845.102,554.212 847.163,553.128 849.224,552.089 851.284,551.096 853.345,550.147 855.406,549.244 
  857.467,548.385 859.528,547.572 861.588,546.803 863.649,546.079 865.71,545.399 867.771,544.764 869.832,544.172 871.892,543.625 873.953,543.121 876.014,542.661 
  878.075,542.244 880.136,541.869 882.197,541.538 884.257,541.249 886.318,541.001 888.379,540.796 890.44,540.632 892.501,540.508 894.561,540.426 896.622,540.383 
  898.683,540.38 900.744,540.417 902.805,540.493 904.865,540.606 906.926,540.758 908.987,540.948 911.048,541.174 913.109,541.437 915.169,541.737 917.23,542.073 
  919.291,542.444 921.352,542.849 923.413,543.289 925.474,543.763 927.534,544.271 929.595,544.811 931.656,545.383 933.717,545.987 935.778,546.622 937.838,547.288 
  939.899,547.984 941.96,548.709 944.021,549.463 946.082,550.246 948.142,551.056 950.203,551.894 952.264,552.758 954.325,553.648 956.386,554.564 958.446,555.504 
  960.507,556.469 962.568,557.457 964.629,558.468 966.69,559.502 968.75,560.557 970.811,561.633 972.872,562.73 974.933,563.847 976.994,564.983 979.055,566.138 
  981.115,567.31 983.176,568.5 985.237,569.706 987.298,570.928 989.359,572.166 991.419,573.419 993.48,574.685 995.541,575.966 997.602,577.259 999.663,578.565 
  1001.72,579.882 1003.78,581.21 1005.85,582.549 1007.91,583.897 1009.97,585.255 1012.03,586.62 1014.09,587.994 1016.15,589.375 1018.21,590.762 1020.27,592.155 
  1022.33,593.554 1024.39,594.957 1026.45,596.365 1028.51,597.776 1030.57,599.19 1032.64,600.607 1034.7,602.026 1036.76,603.446 1038.82,604.866 1040.88,606.287 
  1042.94,607.708 1045,609.127 1047.06,610.546 1049.12,611.962 1051.18,613.376 1053.24,614.786 1055.3,616.194 1057.37,617.597 1059.43,618.996 1061.49,620.389 
  1063.55,621.777 1065.61,623.159 1067.67,624.535 1069.73,625.903 1071.79,627.264 1073.85,628.618 1075.91,629.962 1077.97,631.299 1080.03,632.626 1082.09,633.943 
  1084.16,635.251 1086.22,636.547 1088.28,637.833 1090.34,639.108 1092.4,640.371 1094.46,641.622 1096.52,642.861 1098.58,644.086 1100.64,645.299 1102.7,646.497 
  1104.76,647.682 1106.82,648.853 1108.89,650.009 1110.95,651.151 1113.01,652.277 1115.07,653.388 1117.13,654.483 1119.19,655.562 1121.25,656.625 1123.31,657.671 
  1125.37,658.701 1127.43,659.713 1129.49,660.709 1131.55,661.687 1133.62,662.647 1135.68,663.59 1137.74,664.515 1139.8,665.422 1141.86,666.31 1143.92,667.18 
  1145.98,668.031 1148.04,668.863 1150.1,669.677 1152.16,670.472 1154.22,671.248 1156.28,672.004 1158.34,672.741 1160.41,673.459 1162.47,674.157 1164.53,674.836 
  1166.59,675.495 1168.65,676.134 1170.71,676.753 1172.77,677.353 1174.83,677.932 1176.89,678.492 1178.95,679.032 1181.01,679.551 1183.07,680.051 1185.14,680.531 
  1187.2,680.991 1189.26,681.43 1191.32,681.85 1193.38,682.25 1195.44,682.63 1197.5,682.991 1199.56,683.331 1201.62,683.652 1203.68,683.953 1205.74,684.234 
  1207.8,684.496 1209.87,684.739 1211.93,684.963 1213.99,685.167 1216.05,685.352 1218.11,685.518 1220.17,685.666 1222.23,685.794 1224.29,685.905 1226.35,685.997 
  1228.41,686.07 1230.47,686.126 1232.53,686.164 1234.59,686.184 1236.66,686.187 1238.72,686.172 1240.78,686.141 1242.84,686.092 1244.9,686.026 1246.96,685.943 
  1249.02,685.845 1251.08,685.729 1253.14,685.598 1255.2,685.451 1257.26,685.289 1259.32,685.111 1261.39,684.917 1263.45,684.709 1265.51,684.486 1267.57,684.249 
  1269.63,683.998 1271.69,683.732 1273.75,683.453 1275.81,683.16 1277.87,682.853 1279.93,682.534 1281.99,682.202 1284.05,681.857 1286.12,681.5 1288.18,681.131 
  1290.24,680.751 1292.3,680.358 1294.36,679.955 1296.42,679.54 1298.48,679.115 1300.54,678.68 1302.6,678.234 1304.66,677.778 1306.72,677.313 1308.78,676.839 
  1310.84,676.355 1312.91,675.863 1314.97,675.362 1317.03,674.854 1319.09,674.337 1321.15,673.813 1323.21,673.282 1325.27,672.743 1327.33,672.198 1329.39,671.646 
  1331.45,671.087 1333.51,670.523 1335.57,669.953 1337.64,669.378 1339.7,668.798 1341.76,668.213 1343.82,667.623 1345.88,667.03 1347.94,666.432 1350,665.83 
  1352.06,665.225 1354.12,664.617 1356.18,664.007 1358.24,663.393 1360.3,662.777 1362.36,662.159 1364.43,661.539 1366.49,660.918 1368.55,660.295 1370.61,659.671 
  1372.67,659.047 1374.73,658.422 1376.79,657.796 1378.85,657.17 1380.91,656.545 1382.97,655.92 1385.03,655.296 1387.09,654.672 1389.16,654.05 1391.22,653.429 
  1393.28,652.809 1395.34,652.192 1397.4,651.576 1399.46,650.963 1401.52,650.352 1403.58,649.743 1405.64,649.138 1407.7,648.536 1409.76,647.937 1411.82,647.341 
  1413.89,646.749 1415.95,646.161 1418.01,645.577 1420.07,644.998 1422.13,644.422 1424.19,643.852 1426.25,643.286 1428.31,642.725 1430.37,642.17 1432.43,641.62 
  1434.49,641.075 1436.55,640.536 1438.61,640.003 1440.68,639.476 1442.74,638.955 1444.8,638.44 1446.86,637.932 1448.92,637.43 1450.98,636.935 1453.04,636.446 
  1455.1,635.965 1457.16,635.491 1459.22,635.024 1461.28,634.564 1463.34,634.112 1465.41,633.667 1467.47,633.229 1469.53,632.8 1471.59,632.378 1473.65,631.963 
  1475.71,631.557 1477.77,631.159 1479.83,630.769 1481.89,630.387 1483.95,630.013 1486.01,629.647 1488.07,629.29 1490.14,628.941 1492.2,628.6 1494.26,628.268 
  1496.32,627.944 1498.38,627.629 1500.44,627.323 1502.5,627.025 1504.56,626.736 1506.62,626.456 1508.68,626.184 1510.74,625.921 1512.8,625.667 1514.86,625.421 
  1516.93,625.185 1518.99,624.957 1521.05,624.738 1523.11,624.528 1525.17,624.326 1527.23,624.134 1529.29,623.95 1531.35,623.775 1533.41,623.608 1535.47,623.451 
  1537.53,623.302 1539.59,623.162 1541.66,623.03 1543.72,622.908 1545.78,622.793 1547.84,622.687 1549.9,622.59 1551.96,622.501 1554.02,622.421 1556.08,622.349 
  1558.14,622.285 1560.2,622.229 1562.26,622.182 1564.32,622.142 1566.39,622.111 1568.45,622.087 1570.51,622.071 1572.57,622.063 1574.63,622.063 1576.69,622.071 
  1578.75,622.086 1580.81,622.108 1582.87,622.138 1584.93,622.175 1586.99,622.22 1589.05,622.271 1591.11,622.33 1593.18,622.396 1595.24,622.468 1597.3,622.548 
  1599.36,622.634 1601.42,622.726 1603.48,622.825 1605.54,622.93 1607.6,623.042 1609.66,623.16 1611.72,623.284 1613.78,623.414 1615.84,623.549 1617.91,623.691 
  1619.97,623.838 1622.03,623.99 1624.09,624.148 1626.15,624.311 1628.21,624.48 1630.27,624.653 1632.33,624.832 1634.39,625.015 1636.45,625.203 1638.51,625.395 
  1640.57,625.592 1642.63,625.794 1644.7,625.999 1646.76,626.209 1648.82,626.422 1650.88,626.64 1652.94,626.861 1655,627.085 1657.06,627.313 1659.12,627.544 
  1661.18,627.779 1663.24,628.016 1665.3,628.257 1667.36,628.501 1669.43,628.747 1671.49,628.996 1673.55,629.247 1675.61,629.501 1677.67,629.756 1679.73,630.014 
  1681.79,630.274 1683.85,630.536 1685.91,630.799 1687.97,631.065 1690.03,631.331 1692.09,631.599 1694.16,631.868 1696.22,632.139 1698.28,632.41 1700.34,632.682 
  1702.4,632.955 1704.46,633.229 1706.52,633.503 1708.58,633.778 1710.64,634.053 1712.7,634.329 1714.76,634.604 1716.82,634.879 1718.88,635.155 1720.95,635.43 
  1723.01,635.705 1725.07,635.979 1727.13,636.253 1729.19,636.527 1731.25,636.799 1733.31,637.071 1735.37,637.342 1737.43,637.612 1739.49,637.881 1741.55,638.148 
  1743.61,638.415 1745.68,638.68 1747.74,638.943 1749.8,639.205 1751.86,639.466 1753.92,639.724 1755.98,639.981 1758.04,640.236 1760.1,640.489 1762.16,640.74 
  1764.22,640.989 1766.28,641.235 1768.34,641.48 1770.41,641.721 1772.47,641.961 1774.53,642.198 1776.59,642.432 1778.65,642.664 1780.71,642.893 1782.77,643.119 
  1784.83,643.342 1786.89,643.563 1788.95,643.78 1791.01,643.995 1793.07,644.206 1795.13,644.415 1797.2,644.62 1799.26,644.822 1801.32,645.02 1803.38,645.216 
  1805.44,645.408 1807.5,645.597 1809.56,645.782 1811.62,645.964 1813.68,646.142 1815.74,646.317 1817.8,646.488 1819.86,646.655 1821.93,646.819 1823.99,646.98 
  1826.05,647.137 1828.11,647.29 1830.17,647.439 1832.23,647.585 1834.29,647.726 1836.35,647.864 1838.41,647.999 1840.47,648.129 1842.53,648.256 1844.59,648.379 
  1846.65,648.498 1848.72,648.613 1850.78,648.724 1852.84,648.832 1854.9,648.935 1856.96,649.035 1859.02,649.131 1861.08,649.223 1863.14,649.311 1865.2,649.395 
  1867.26,649.475 1869.32,649.552 1871.38,649.624 1873.45,649.693 1875.51,649.758 1877.57,649.819 1879.63,649.876 1881.69,649.93 1883.75,649.98 1885.81,650.026 
  1887.87,650.068 1889.93,650.106 1891.99,650.141 1894.05,650.172 1896.11,650.2 1898.18,650.224 1900.24,650.244 1902.3,650.261 1904.36,650.274 1906.42,650.284 
  1908.48,650.29 1910.54,650.293 1912.6,650.293 1914.66,650.289 1916.72,650.281 1918.78,650.271 1920.84,650.257 1922.9,650.24 1924.97,650.22 1927.03,650.197 
  1929.09,650.171 1931.15,650.141 1933.21,650.109 1935.27,650.073 1937.33,650.035 1939.39,649.994 1941.45,649.95 1943.51,649.903 1945.57,649.853 1947.63,649.801 
  1949.7,649.746 1951.76,649.688 1953.82,649.628 1955.88,649.565 1957.94,649.5 1960,649.433 1962.06,649.363 1964.12,649.29 1966.18,649.216 1968.24,649.139 
  1970.3,649.06 1972.36,648.979 1974.43,648.896 1976.49,648.811 1978.55,648.724 1980.61,648.635 1982.67,648.544 1984.73,648.452 1986.79,648.357 1988.85,648.261 
  1990.91,648.164 1992.97,648.064 1995.03,647.964 1997.09,647.862 1999.15,647.758 2001.22,647.653 2003.28,647.547 2005.34,647.44 2007.4,647.331 2009.46,647.221 
  2011.52,647.111 2013.58,646.999 2015.64,646.886 2017.7,646.772 2019.76,646.657 2021.82,646.542 2023.88,646.426 2025.95,646.309 2028.01,646.191 2030.07,646.073 
  2032.13,645.955 2034.19,645.836 2036.25,645.716 2038.31,645.596 2040.37,645.476 2042.43,645.355 2044.49,645.234 2046.55,645.113 2048.61,644.992 2050.68,644.871 
  2052.74,644.75 2054.8,644.628 2056.86,644.507 2058.92,644.386 2060.98,644.265 2063.04,644.144 2065.1,644.024 2067.16,643.903 2069.22,643.783 2071.28,643.664 
  2073.34,643.544 2075.4,643.426 2077.47,643.307 2079.53,643.19 2081.59,643.072 2083.65,642.956 2085.71,642.84 2087.77,642.725 2089.83,642.61 2091.89,642.497 
  2093.95,642.384 2096.01,642.272 2098.07,642.16 2100.13,642.05 2102.2,641.941 2104.26,641.832 2106.32,641.725 2108.38,641.618 2110.44,641.513 2112.5,641.409 
  2114.56,641.306 2116.62,641.204 2118.68,641.104 2120.74,641.004 2122.8,640.906 2124.86,640.809 2126.92,640.714 2128.99,640.619 2131.05,640.526 2133.11,640.435 
  2135.17,640.345 2137.23,640.256 2139.29,640.169 2141.35,640.083 2143.41,639.999 2145.47,639.916 2147.53,639.835 2149.59,639.755 2151.65,639.677 2153.72,639.6 
  2155.78,639.525 2157.84,639.451 2159.9,639.379 2161.96,639.309 2164.02,639.24 2166.08,639.173 2168.14,639.108 2170.2,639.044 2172.26,638.982 2174.32,638.921 
  2176.38,638.863 2178.45,638.805 2180.51,638.75 2182.57,638.696 2184.63,638.644 2186.69,638.594 2188.75,638.545 2190.81,638.498 2192.87,638.453 2194.93,638.409 
  2196.99,638.367 2199.05,638.327 2201.11,638.288 2203.17,638.252 2205.24,638.217 2207.3,638.183 2209.36,638.152 2211.42,638.122 2213.48,638.093 2215.54,638.067 
  2217.6,638.042 2219.66,638.018 2221.72,637.997 2223.78,637.977 2225.84,637.959 2227.9,637.942 2229.97,637.927 2232.03,637.913 2234.09,637.901 2236.15,637.891 
  2238.21,637.883 2240.27,637.875 2242.33,637.87 2244.39,637.866 2246.45,637.863 2248.51,637.862 2250.57,637.863 2252.63,637.865 2254.7,637.868 2256.76,637.873 
  
  "/>
<polyline clip-path="url(#clip9702)" style="stroke:#e26f46; stroke-width:4; stroke-opacity:1; fill:none" points="
  198.008,586.181 200.069,604.967 202.13,623.573 204.19,641.998 206.251,660.239 208.312,678.295 210.373,696.163 212.434,713.842 214.495,731.329 216.555,748.623 
  218.616,765.722 220.677,782.625 222.738,799.328 224.799,815.832 226.859,832.134 228.92,848.231 230.981,864.124 233.042,879.809 235.103,895.286 237.163,910.552 
  239.224,925.605 241.285,940.445 243.346,955.07 245.407,969.476 247.467,983.664 249.528,997.631 251.589,1011.38 253.65,1024.9 255.711,1038.19 257.772,1051.26 
  259.832,1064.09 261.893,1076.7 263.954,1089.07 266.015,1101.21 268.076,1113.11 270.136,1124.77 272.197,1136.19 274.258,1147.37 276.319,1158.3 278.38,1168.99 
  280.44,1179.43 282.501,1189.62 284.562,1199.56 286.623,1209.24 288.684,1218.68 290.744,1227.85 292.805,1236.77 294.866,1245.42 296.927,1253.82 298.988,1261.95 
  301.048,1269.81 303.109,1277.42 305.17,1284.75 307.231,1291.81 309.292,1298.61 311.353,1305.13 313.413,1311.38 315.474,1317.36 317.535,1323.06 319.596,1328.48 
  321.657,1333.63 323.717,1338.5 325.778,1343.1 327.839,1347.41 329.9,1351.45 331.961,1355.2 334.021,1358.68 336.082,1361.87 338.143,1364.79 340.204,1367.42 
  342.265,1369.78 344.325,1371.86 346.386,1373.65 348.447,1375.17 350.508,1376.41 352.569,1377.38 354.63,1378.06 356.69,1378.48 358.751,1378.62 360.812,1378.48 
  362.873,1378.08 364.934,1377.41 366.994,1376.47 369.055,1375.26 371.116,1373.79 373.177,1372.06 375.238,1370.07 377.298,1367.82 379.359,1365.32 381.42,1362.57 
  383.481,1359.57 385.542,1356.33 387.602,1352.84 389.663,1349.11 391.724,1345.14 393.785,1340.95 395.846,1336.52 397.906,1331.87 399.967,1326.99 402.028,1321.9 
  404.089,1316.59 406.15,1311.07 408.211,1305.34 410.271,1299.41 412.332,1293.29 414.393,1286.97 416.454,1280.46 418.515,1273.77 420.575,1266.89 422.636,1259.84 
  424.697,1252.62 426.758,1245.23 428.819,1237.69 430.879,1229.98 432.94,1222.12 435.001,1214.12 437.062,1205.97 439.123,1197.69 441.183,1189.27 443.244,1180.72 
  445.305,1172.05 447.366,1163.27 449.427,1154.37 451.488,1145.36 453.548,1136.24 455.609,1127.03 457.67,1117.72 459.731,1108.33 461.792,1098.85 463.852,1089.29 
  465.913,1079.65 467.974,1069.94 470.035,1060.17 472.096,1050.34 474.156,1040.45 476.217,1030.52 478.278,1020.53 480.339,1010.5 482.4,1000.43 484.46,990.331 
  486.521,980.2 488.582,970.045 490.643,959.87 492.704,949.678 494.765,939.474 496.825,929.262 498.886,919.046 500.947,908.831 503.008,898.619 505.069,888.415 
  507.129,878.223 509.19,868.046 511.251,857.888 513.312,847.753 515.373,837.645 517.433,827.566 519.494,817.52 521.555,807.511 523.616,797.541 525.677,787.615 
  527.737,777.735 529.798,767.904 531.859,758.126 533.92,748.403 535.981,738.738 538.041,729.135 540.102,719.595 542.163,710.122 544.224,700.719 546.285,691.389 
  548.346,682.133 550.406,672.955 552.467,663.857 554.528,654.842 556.589,645.912 558.65,637.069 560.71,628.316 562.771,619.655 564.832,611.089 566.893,602.619 
  568.954,594.247 571.014,585.976 573.075,577.807 575.136,569.742 577.197,561.784 579.258,553.934 581.318,546.194 583.379,538.566 585.44,531.05 587.501,523.649 
  589.562,516.365 591.623,509.198 593.683,502.151 595.744,495.224 597.805,488.418 599.866,481.736 601.927,475.178 603.987,468.745 606.048,462.439 608.109,456.26 
  610.17,450.21 612.231,444.29 614.291,438.5 616.352,432.842 618.413,427.317 620.474,421.925 622.535,416.668 624.595,411.545 626.656,406.558 628.717,401.708 
  630.778,396.994 632.839,392.418 634.899,387.98 636.96,383.681 639.021,379.52 641.082,375.498 643.143,371.616 645.204,367.873 647.264,364.27 649.325,360.806 
  651.386,357.483 653.447,354.299 655.508,351.255 657.568,348.351 659.629,345.587 661.69,342.962 663.751,340.475 665.812,338.128 667.872,335.919 669.933,333.848 
  671.994,331.914 674.055,330.117 676.116,328.456 678.176,326.931 680.237,325.541 682.298,324.286 684.359,323.165 686.42,322.178 688.481,321.322 690.541,320.598 
  692.602,320.004 694.663,319.54 696.724,319.205 698.785,318.997 700.845,318.916 702.906,318.961 704.967,319.129 707.028,319.421 709.089,319.835 711.149,320.37 
  713.21,321.024 715.271,321.796 717.332,322.685 719.393,323.689 721.453,324.807 723.514,326.038 725.575,327.379 727.636,328.83 729.697,330.388 731.758,332.053 
  733.818,333.822 735.879,335.694 737.94,337.667 740.001,339.739 742.062,341.909 744.122,344.174 746.183,346.532 748.244,348.982 750.305,351.522 752.366,354.15 
  754.426,356.863 756.487,359.66 758.548,362.539 760.609,365.5 762.67,368.538 764.73,371.654 766.791,374.844 768.852,378.106 770.913,381.439 772.974,384.84 
  775.034,388.307 777.095,391.838 779.156,395.432 781.217,399.086 783.278,402.798 785.339,406.566 787.399,410.388 789.46,414.262 791.521,418.186 793.582,422.158 
  795.643,426.175 797.703,430.237 799.764,434.34 801.825,438.484 803.886,442.665 805.947,446.882 808.007,451.133 810.068,455.415 812.129,459.728 814.19,464.068 
  816.251,468.434 818.311,472.824 820.372,477.235 822.433,481.667 824.494,486.116 826.555,490.581 828.616,495.06 830.676,499.551 832.737,504.053 834.798,508.563 
  836.859,513.081 838.92,517.603 840.98,522.128 843.041,526.655 845.102,531.181 847.163,535.704 849.224,540.223 851.284,544.737 853.345,549.242 855.406,553.738 
  857.467,558.223 859.528,562.696 861.588,567.154 863.649,571.596 865.71,576.02 867.771,580.426 869.832,584.811 871.892,589.175 873.953,593.514 876.014,597.829 
  878.075,602.118 880.136,606.379 882.197,610.611 884.257,614.812 886.318,618.983 888.379,623.12 890.44,627.223 892.501,631.291 894.561,635.322 896.622,639.316 
  898.683,643.27 900.744,647.185 902.805,651.059 904.865,654.891 906.926,658.68 908.987,662.425 911.048,666.125 913.109,669.779 915.169,673.385 917.23,676.944 
  919.291,680.454 921.352,683.915 923.413,687.324 925.474,690.683 927.534,693.988 929.595,697.241 931.656,700.44 933.717,703.585 935.778,706.674 937.838,709.707 
  939.899,712.684 941.96,715.604 944.021,718.465 946.082,721.269 948.142,724.014 950.203,726.7 952.264,729.325 954.325,731.891 956.386,734.396 958.446,736.841 
  960.507,739.224 962.568,741.545 964.629,743.805 966.69,746.003 968.75,748.138 970.811,750.211 972.872,752.221 974.933,754.168 976.994,756.053 979.055,757.874 
  981.115,759.633 983.176,761.328 985.237,762.961 987.298,764.531 989.359,766.037 991.419,767.481 993.48,768.861 995.541,770.179 997.602,771.433 999.663,772.625 
  1001.72,773.754 1003.78,774.821 1005.85,775.825 1007.91,776.768 1009.97,777.648 1012.03,778.467 1014.09,779.224 1016.15,779.921 1018.21,780.557 1020.27,781.132 
  1022.33,781.647 1024.39,782.103 1026.45,782.499 1028.51,782.836 1030.57,783.114 1032.64,783.335 1034.7,783.498 1036.76,783.604 1038.82,783.653 1040.88,783.647 
  1042.94,783.585 1045,783.467 1047.06,783.296 1049.12,783.071 1051.18,782.792 1053.24,782.462 1055.3,782.079 1057.37,781.645 1059.43,781.162 1061.49,780.628 
  1063.55,780.046 1065.61,779.415 1067.67,778.737 1069.73,778.013 1071.79,777.243 1073.85,776.428 1075.91,775.569 1077.97,774.665 1080.03,773.719 1082.09,772.73 
  1084.16,771.7 1086.22,770.629 1088.28,769.519 1090.34,768.37 1092.4,767.183 1094.46,765.958 1096.52,764.698 1098.58,763.402 1100.64,762.071 1102.7,760.707 
  1104.76,759.309 1106.82,757.88 1108.89,756.42 1110.95,754.929 1113.01,753.409 1115.07,751.86 1117.13,750.284 1119.19,748.681 1121.25,747.052 1123.31,745.398 
  1125.37,743.72 1127.43,742.019 1129.49,740.295 1131.55,738.55 1133.62,736.785 1135.68,735 1137.74,733.196 1139.8,731.374 1141.86,729.535 1143.92,727.681 
  1145.98,725.811 1148.04,723.927 1150.1,722.029 1152.16,720.12 1154.22,718.199 1156.28,716.267 1158.34,714.325 1160.41,712.374 1162.47,710.415 1164.53,708.448 
  1166.59,706.475 1168.65,704.496 1170.71,702.512 1172.77,700.524 1174.83,698.534 1176.89,696.54 1178.95,694.546 1181.01,692.551 1183.07,690.555 1185.14,688.561 
  1187.2,686.569 1189.26,684.578 1191.32,682.591 1193.38,680.608 1195.44,678.63 1197.5,676.657 1199.56,674.69 1201.62,672.73 1203.68,670.777 1205.74,668.833 
  1207.8,666.897 1209.87,664.971 1211.93,663.054 1213.99,661.149 1216.05,659.255 1218.11,657.373 1220.17,655.504 1222.23,653.647 1224.29,651.805 1226.35,649.977 
  1228.41,648.164 1230.47,646.366 1232.53,644.584 1234.59,642.819 1236.66,641.071 1238.72,639.34 1240.78,637.628 1242.84,635.933 1244.9,634.258 1246.96,632.603 
  1249.02,630.967 1251.08,629.351 1253.14,627.757 1255.2,626.184 1257.26,624.632 1259.32,623.103 1261.39,621.596 1263.45,620.112 1265.51,618.652 1267.57,617.214 
  1269.63,615.801 1271.69,614.412 1273.75,613.048 1275.81,611.708 1277.87,610.394 1279.93,609.105 1281.99,607.841 1284.05,606.604 1286.12,605.392 1288.18,604.207 
  1290.24,603.049 1292.3,601.917 1294.36,600.812 1296.42,599.733 1298.48,598.683 1300.54,597.659 1302.6,596.662 1304.66,595.694 1306.72,594.752 1308.78,593.839 
  1310.84,592.953 1312.91,592.094 1314.97,591.264 1317.03,590.461 1319.09,589.686 1321.15,588.939 1323.21,588.22 1325.27,587.529 1327.33,586.865 1329.39,586.23 
  1331.45,585.623 1333.51,585.043 1335.57,584.491 1337.64,583.967 1339.7,583.471 1341.76,583.003 1343.82,582.562 1345.88,582.148 1347.94,581.762 1350,581.403 
  1352.06,581.071 1354.12,580.766 1356.18,580.488 1358.24,580.237 1360.3,580.012 1362.36,579.814 1364.43,579.642 1366.49,579.496 1368.55,579.375 1370.61,579.281 
  1372.67,579.211 1374.73,579.167 1376.79,579.148 1378.85,579.154 1380.91,579.184 1382.97,579.238 1385.03,579.316 1387.09,579.417 1389.16,579.542 1391.22,579.691 
  1393.28,579.861 1395.34,580.054 1397.4,580.27 1399.46,580.507 1401.52,580.765 1403.58,581.044 1405.64,581.345 1407.7,581.665 1409.76,582.006 1411.82,582.368 
  1413.89,582.748 1415.95,583.148 1418.01,583.567 1420.07,584.004 1422.13,584.46 1424.19,584.933 1426.25,585.423 1428.31,585.931 1430.37,586.456 1432.43,586.996 
  1434.49,587.553 1436.55,588.125 1438.61,588.713 1440.68,589.315 1442.74,589.932 1444.8,590.562 1446.86,591.207 1448.92,591.865 1450.98,592.535 1453.04,593.218 
  1455.1,593.914 1457.16,594.621 1459.22,595.34 1461.28,596.069 1463.34,596.809 1465.41,597.559 1467.47,598.319 1469.53,599.089 1471.59,599.868 1473.65,600.655 
  1475.71,601.45 1477.77,602.253 1479.83,603.064 1481.89,603.881 1483.95,604.705 1486.01,605.536 1488.07,606.372 1490.14,607.213 1492.2,608.06 1494.26,608.911 
  1496.32,609.767 1498.38,610.626 1500.44,611.49 1502.5,612.356 1504.56,613.226 1506.62,614.097 1508.68,614.971 1510.74,615.847 1512.8,616.724 1514.86,617.602 
  1516.93,618.48 1518.99,619.359 1521.05,620.238 1523.11,621.116 1525.17,621.993 1527.23,622.87 1529.29,623.745 1531.35,624.618 1533.41,625.489 1535.47,626.358 
  1537.53,627.224 1539.59,628.087 1541.66,628.947 1543.72,629.803 1545.78,630.656 1547.84,631.504 1549.9,632.347 1551.96,633.186 1554.02,634.02 1556.08,634.848 
  1558.14,635.671 1560.2,636.488 1562.26,637.299 1564.32,638.104 1566.39,638.902 1568.45,639.693 1570.51,640.477 1572.57,641.254 1574.63,642.023 1576.69,642.785 
  1578.75,643.538 1580.81,644.284 1582.87,645.021 1584.93,645.749 1586.99,646.469 1589.05,647.179 1591.11,647.881 1593.18,648.573 1595.24,649.255 1597.3,649.928 
  1599.36,650.59 1601.42,651.243 1603.48,651.885 1605.54,652.517 1607.6,653.138 1609.66,653.748 1611.72,654.348 1613.78,654.937 1615.84,655.514 1617.91,656.08 
  1619.97,656.635 1622.03,657.179 1624.09,657.711 1626.15,658.231 1628.21,658.74 1630.27,659.237 1632.33,659.722 1634.39,660.195 1636.45,660.657 1638.51,661.106 
  1640.57,661.543 1642.63,661.968 1644.7,662.381 1646.76,662.781 1648.82,663.17 1650.88,663.546 1652.94,663.91 1655,664.261 1657.06,664.601 1659.12,664.928 
  1661.18,665.243 1663.24,665.546 1665.3,665.836 1667.36,666.114 1669.43,666.38 1671.49,666.633 1673.55,666.874 1675.61,667.103 1677.67,667.32 1679.73,667.524 
  1681.79,667.716 1683.85,667.897 1685.91,668.065 1687.97,668.221 1690.03,668.365 1692.09,668.498 1694.16,668.618 1696.22,668.727 1698.28,668.824 1700.34,668.91 
  1702.4,668.984 1704.46,669.046 1706.52,669.098 1708.58,669.137 1710.64,669.166 1712.7,669.184 1714.76,669.191 1716.82,669.186 1718.88,669.172 1720.95,669.146 
  1723.01,669.11 1725.07,669.063 1727.13,669.007 1729.19,668.94 1731.25,668.863 1733.31,668.776 1735.37,668.68 1737.43,668.574 1739.49,668.459 1741.55,668.334 
  1743.61,668.2 1745.68,668.058 1747.74,667.906 1749.8,667.746 1751.86,667.577 1753.92,667.399 1755.98,667.213 1758.04,667.02 1760.1,666.818 1762.16,666.608 
  1764.22,666.391 1766.28,666.166 1768.34,665.934 1770.41,665.694 1772.47,665.448 1774.53,665.195 1776.59,664.935 1778.65,664.669 1780.71,664.397 1782.77,664.118 
  1784.83,663.833 1786.89,663.542 1788.95,663.246 1791.01,662.944 1793.07,662.637 1795.13,662.325 1797.2,662.008 1799.26,661.686 1801.32,661.359 1803.38,661.028 
  1805.44,660.693 1807.5,660.353 1809.56,660.01 1811.62,659.663 1813.68,659.312 1815.74,658.958 1817.8,658.6 1819.86,658.24 1821.93,657.876 1823.99,657.51 
  1826.05,657.142 1828.11,656.771 1830.17,656.398 1832.23,656.022 1834.29,655.645 1836.35,655.267 1838.41,654.886 1840.47,654.504 1842.53,654.121 1844.59,653.737 
  1846.65,653.352 1848.72,652.967 1850.78,652.58 1852.84,652.194 1854.9,651.807 1856.96,651.42 1859.02,651.033 1861.08,650.646 1863.14,650.26 1865.2,649.874 
  1867.26,649.488 1869.32,649.104 1871.38,648.72 1873.45,648.338 1875.51,647.957 1877.57,647.577 1879.63,647.199 1881.69,646.822 1883.75,646.447 1885.81,646.074 
  1887.87,645.703 1889.93,645.333 1891.99,644.967 1894.05,644.602 1896.11,644.24 1898.18,643.881 1900.24,643.524 1902.3,643.17 1904.36,642.82 1906.42,642.472 
  1908.48,642.127 1910.54,641.785 1912.6,641.447 1914.66,641.113 1916.72,640.781 1918.78,640.454 1920.84,640.13 1922.9,639.81 1924.97,639.493 1927.03,639.181 
  1929.09,638.873 1931.15,638.569 1933.21,638.269 1935.27,637.974 1937.33,637.683 1939.39,637.396 1941.45,637.114 1943.51,636.837 1945.57,636.564 1947.63,636.296 
  1949.7,636.032 1951.76,635.774 1953.82,635.52 1955.88,635.272 1957.94,635.028 1960,634.79 1962.06,634.556 1964.12,634.328 1966.18,634.105 1968.24,633.887 
  1970.3,633.674 1972.36,633.466 1974.43,633.264 1976.49,633.067 1978.55,632.876 1980.61,632.689 1982.67,632.509 1984.73,632.333 1986.79,632.163 1988.85,631.998 
  1990.91,631.839 1992.97,631.685 1995.03,631.537 1997.09,631.394 1999.15,631.256 2001.22,631.124 2003.28,630.997 2005.34,630.875 2007.4,630.759 2009.46,630.649 
  2011.52,630.543 2013.58,630.444 2015.64,630.349 2017.7,630.26 2019.76,630.176 2021.82,630.098 2023.88,630.025 2025.95,629.957 2028.01,629.894 2030.07,629.837 
  2032.13,629.784 2034.19,629.737 2036.25,629.695 2038.31,629.659 2040.37,629.627 2042.43,629.6 2044.49,629.579 2046.55,629.562 2048.61,629.55 2050.68,629.543 
  2052.74,629.541 2054.8,629.543 2056.86,629.551 2058.92,629.563 2060.98,629.579 2063.04,629.601 2065.1,629.626 2067.16,629.657 2069.22,629.691 2071.28,629.73 
  2073.34,629.773 2075.4,629.821 2077.47,629.872 2079.53,629.928 2081.59,629.988 2083.65,630.051 2085.71,630.119 2087.77,630.19 2089.83,630.265 2091.89,630.344 
  2093.95,630.426 2096.01,630.512 2098.07,630.602 2100.13,630.695 2102.2,630.791 2104.26,630.891 2106.32,630.994 2108.38,631.099 2110.44,631.208 2112.5,631.32 
  2114.56,631.435 2116.62,631.553 2118.68,631.674 2120.74,631.797 2122.8,631.923 2124.86,632.051 2126.92,632.182 2128.99,632.315 2131.05,632.451 2133.11,632.589 
  2135.17,632.729 2137.23,632.871 2139.29,633.015 2141.35,633.161 2143.41,633.309 2145.47,633.459 2147.53,633.61 2149.59,633.764 2151.65,633.918 2153.72,634.074 
  2155.78,634.232 2157.84,634.391 2159.9,634.551 2161.96,634.713 2164.02,634.875 2166.08,635.039 2168.14,635.203 2170.2,635.369 2172.26,635.535 2174.32,635.702 
  2176.38,635.869 2178.45,636.037 2180.51,636.206 2182.57,636.375 2184.63,636.545 2186.69,636.715 2188.75,636.885 2190.81,637.055 2192.87,637.226 2194.93,637.396 
  2196.99,637.567 2199.05,637.737 2201.11,637.907 2203.17,638.077 2205.24,638.247 2207.3,638.416 2209.36,638.585 2211.42,638.753 2213.48,638.921 2215.54,639.088 
  2217.6,639.254 2219.66,639.42 2221.72,639.585 2223.78,639.749 2225.84,639.913 2227.9,640.075 2229.97,640.236 2232.03,640.397 2234.09,640.556 2236.15,640.714 
  2238.21,640.871 2240.27,641.026 2242.33,641.181 2244.39,641.333 2246.45,641.485 2248.51,641.635 2250.57,641.784 2252.63,641.931 2254.7,642.076 2256.76,642.22 
  
  "/>
<path clip-path="url(#clip9700)" d="
M1858.27 306.444 L2187.64 306.444 L2187.64 125.004 L1858.27 125.004  Z
  " fill="#ffffff" fill-rule="evenodd" fill-opacity="1"/>
<polyline clip-path="url(#clip9700)" style="stroke:#000000; stroke-width:4; stroke-opacity:1; fill:none" points="
  1858.27,306.444 2187.64,306.444 2187.64,125.004 1858.27,125.004 1858.27,306.444 
  "/>
<polyline clip-path="url(#clip9700)" style="stroke:#009af9; stroke-width:4; stroke-opacity:1; fill:none" points="
  1881.31,185.484 2019.55,185.484 
  "/>
<g clip-path="url(#clip9700)">
<text style="fill:#000000; fill-opacity:1; font-family:Arial,Helvetica Neue,Helvetica,sans-serif; font-size:48px; text-anchor:start;" transform="rotate(0, 2042.59, 202.984)" x="2042.59" y="202.984">u1(t)</text>
</g>
<polyline clip-path="url(#clip9700)" style="stroke:#e26f46; stroke-width:4; stroke-opacity:1; fill:none" points="
  1881.31,245.964 2019.55,245.964 
  "/>
<g clip-path="url(#clip9700)">
<text style="fill:#000000; fill-opacity:1; font-family:Arial,Helvetica Neue,Helvetica,sans-serif; font-size:48px; text-anchor:start;" transform="rotate(0, 2042.59, 263.464)" x="2042.59" y="263.464">u2(t)</text>
</g>
</svg>
